<svg width="20" height="20" viewBox="0 0 20 20" fill="none" xmlns="http://www.w3.org/2000/svg">
<path d="M13.4917 1.66699H6.50841C3.47508 1.66699 1.66675 3.47533 1.66675 6.50866V13.4837C1.66675 16.5253 3.47508 18.3337 6.50841 18.3337H13.4834C16.5167 18.3337 18.3251 16.5253 18.3251 13.492V6.50866C18.3334 3.47533 16.5251 1.66699 13.4917 1.66699ZM13.5001 15.2087C12.5584 15.2087 11.7917 14.442 11.7917 13.5003C11.7917 12.9503 12.0584 12.467 12.4667 12.1503C12.1167 11.2337 11.2417 10.6003 10.2584 10.6337L8.54175 10.642H8.53341C8.02508 10.642 7.54175 10.492 7.13341 10.2337V11.917C7.76675 12.167 8.21675 12.7837 8.21675 13.5003C8.21675 14.442 7.45008 15.2087 6.50841 15.2087C5.56675 15.2087 4.80008 14.442 4.80008 13.5003C4.80008 12.7753 5.25008 12.167 5.88341 11.917V8.29199C5.25008 8.00032 4.80008 7.36699 4.80008 6.62532C4.80008 5.61699 5.62508 4.79199 6.63341 4.79199C7.64175 4.79199 8.46675 5.61699 8.46675 6.62532C8.46675 7.44199 7.92508 8.12532 7.18341 8.36699C7.35008 8.97532 7.90008 9.40032 8.53341 9.40032C8.53341 9.40032 8.53341 9.40032 8.54175 9.40032L10.2584 9.39199C10.2667 9.39199 10.2667 9.39199 10.2751 9.39199C11.8084 9.39199 13.1834 10.367 13.6834 11.817C14.5417 11.9087 15.2167 12.6253 15.2167 13.5087C15.2084 14.442 14.4417 15.2087 13.5001 15.2087Z" fill="#7E57FF"/>
</svg>
