<svg width="20" height="20" viewBox="0 0 20 20" fill="none" xmlns="http://www.w3.org/2000/svg">
<path d="M12.9832 16.4169C11.2249 16.5419 11.2249 19.0919 12.9832 19.2169H17.1582C17.6666 19.2169 18.1499 19.0336 18.5249 18.6919C19.7582 17.6169 19.0999 15.4503 17.4749 15.2503C16.8916 11.7336 11.7999 13.0669 13.0082 16.4169" fill="#FF796E"/>
<path d="M12.9832 16.4169C11.2249 16.5419 11.2249 19.0919 12.9832 19.2169H17.1582C17.6666 19.2169 18.1499 19.0336 18.5249 18.6919C19.7582 17.6169 19.0999 15.4503 17.4749 15.2503C16.8916 11.7336 11.7999 13.0669 13.0082 16.4169" fill="#FF796E"/>
<path d="M18.3334 9.22533V12.7837C18.3334 13.0503 17.9084 13.167 17.7251 12.9753C17.3334 12.567 16.8417 12.2587 16.2751 12.0837C14.9667 11.6753 13.4584 12.0753 12.5084 13.0587C11.9084 13.7003 11.5834 14.5003 11.5667 15.367C11.5667 15.517 11.4917 15.6503 11.3751 15.742C10.7751 16.217 10.4084 16.9587 10.4084 17.8087V17.817C10.4084 18.0837 10.2167 18.3253 9.95008 18.3253H6.11675C3.66675 18.3337 1.66675 16.3337 1.66675 13.8753V5.35033C1.66675 3.31699 3.31675 1.66699 5.35008 1.66699H7.28341C8.64175 1.66699 9.06675 2.10866 9.60841 2.83366L10.7751 4.38366C11.0334 4.72533 11.0667 4.76699 11.5501 4.76699H13.8751C15.8584 4.76699 17.5417 6.06699 18.1167 7.86699C18.2417 8.24199 18.3084 8.62533 18.3251 9.03366C18.3334 9.09199 18.3334 9.16699 18.3334 9.22533Z" fill="#FF796E"/>
</svg>
