<svg width="20" height="20" viewBox="0 0 20 20" fill="none" xmlns="http://www.w3.org/2000/svg">
<path d="M1.02488 18.0681L1.65822 17.4348C1.32488 16.9348 1.13322 16.3348 1.13322 15.6931C1.13322 13.9348 2.55822 12.5098 4.31655 12.5098C6.07488 12.5098 7.49988 13.9264 7.49988 15.6848C7.49988 17.4431 6.07488 18.8681 4.31655 18.8681C3.67488 18.8681 3.07488 18.6764 2.57488 18.3431L1.94155 18.9764C1.80822 19.1014 1.64155 19.1681 1.47488 19.1681C1.30822 19.1681 1.14155 19.1014 1.01655 18.9764C0.766549 18.7264 0.766549 18.3181 1.02488 18.0681Z" fill="#FFAB2A"/>
<path d="M17.9167 10.417H15.8334C14.9167 10.417 14.1667 11.167 14.1667 12.0837C14.1667 13.0003 14.9167 13.7503 15.8334 13.7503H17.9167C18.1501 13.7503 18.3334 13.567 18.3334 13.3337V10.8337C18.3334 10.6003 18.1501 10.417 17.9167 10.417Z" fill="#FFAB2A"/>
<path d="M13.7751 4.49956C14.0251 4.74123 13.8167 5.11623 13.4667 5.11623L6.56674 5.10789C6.16674 5.10789 5.96674 4.62456 6.25007 4.34123L7.7084 2.87456C8.94174 1.64956 10.9334 1.64956 12.1667 2.87456L13.7417 4.46623C13.7501 4.47456 13.7667 4.49123 13.7751 4.49956Z" fill="#FFAB2A"/>
<path d="M18.2251 15.5497C17.7168 17.2663 16.2501 18.333 14.2501 18.333H8.83342C8.50842 18.333 8.30009 17.9747 8.43342 17.6747C8.68342 17.0913 8.84176 16.433 8.84176 15.833C8.84176 13.308 6.78342 11.2497 4.25842 11.2497C3.62509 11.2497 3.00842 11.383 2.44176 11.633C2.13342 11.7663 1.75842 11.558 1.75842 11.2247V9.99967C1.75842 7.73301 3.12509 6.14967 5.25009 5.88301C5.45842 5.84967 5.68342 5.83301 5.91676 5.83301H14.2501C14.4668 5.83301 14.6751 5.84134 14.8751 5.87467C16.5584 6.06634 17.7751 7.09134 18.2251 8.61634C18.3084 8.89134 18.1084 9.16634 17.8251 9.16634H15.9168C14.1084 9.16634 12.6751 10.8163 13.0668 12.6913C13.3418 14.058 14.6084 14.9997 16.0001 14.9997H17.8251C18.1168 14.9997 18.3084 15.283 18.2251 15.5497Z" fill="#FFAB2A"/>
</svg>
