<svg width="20" height="20" viewBox="0 0 20 20" fill="none" xmlns="http://www.w3.org/2000/svg">
<path d="M18.3334 15.8333V18.3333H1.66675V15.8333C1.66675 15.375 2.04175 15 2.50008 15H17.5001C17.9584 15 18.3334 15.375 18.3334 15.8333Z" fill="#0AA630" stroke="#0AA630" stroke-width="1.5" stroke-miterlimit="10" stroke-linecap="round" stroke-linejoin="round"/>
<path d="M5.83341 9.16699H4.16675V15.0003H5.83341V9.16699Z" fill="#0AA630"/>
<path d="M9.16667 9.16699H7.5V15.0003H9.16667V9.16699Z" fill="#0AA630"/>
<path d="M12.4999 9.16699H10.8333V15.0003H12.4999V9.16699Z" fill="#0AA630"/>
<path d="M15.8334 9.16699H14.1667V15.0003H15.8334V9.16699Z" fill="#0AA630"/>
<path d="M19.1666 18.958H0.833252C0.491585 18.958 0.208252 18.6747 0.208252 18.333C0.208252 17.9913 0.491585 17.708 0.833252 17.708H19.1666C19.5083 17.708 19.7916 17.9913 19.7916 18.333C19.7916 18.6747 19.5083 18.958 19.1666 18.958Z" fill="#0AA630"/>
<path d="M17.8084 4.79145L10.3084 1.79146C10.1417 1.72479 9.85841 1.72479 9.69175 1.79146L2.19175 4.79145C1.90008 4.90812 1.66675 5.24979 1.66675 5.56645V8.33312C1.66675 8.79145 2.04175 9.16645 2.50008 9.16645H17.5001C17.9584 9.16645 18.3334 8.79145 18.3334 8.33312V5.56645C18.3334 5.24979 18.1001 4.90812 17.8084 4.79145ZM10.0001 7.08312C9.30841 7.08312 8.75008 6.52479 8.75008 5.83312C8.75008 5.14145 9.30841 4.58312 10.0001 4.58312C10.6917 4.58312 11.2501 5.14145 11.2501 5.83312C11.2501 6.52479 10.6917 7.08312 10.0001 7.08312Z" fill="#0AA630"/>
</svg>
