<svg width="360" height="160" viewBox="0 0 360 160" fill="none" xmlns="http://www.w3.org/2000/svg">
<rect width="360" height="160" fill="white"/>
<path d="M20.936 17.216C20.936 17.664 20.828 18.084 20.612 18.476C20.404 18.868 20.072 19.184 19.616 19.424C19.168 19.664 18.6 19.784 17.912 19.784H16.508V23H14.828V14.624H17.912C18.56 14.624 19.112 14.736 19.568 14.96C20.024 15.184 20.364 15.492 20.588 15.884C20.82 16.276 20.936 16.72 20.936 17.216ZM17.84 18.428C18.304 18.428 18.648 18.324 18.872 18.116C19.096 17.9 19.208 17.6 19.208 17.216C19.208 16.4 18.752 15.992 17.84 15.992H16.508V18.428H17.84ZM21.7968 19.652C21.7968 18.98 21.9288 18.384 22.1928 17.864C22.4648 17.344 22.8288 16.944 23.2848 16.664C23.7488 16.384 24.2648 16.244 24.8328 16.244C25.3288 16.244 25.7608 16.344 26.1288 16.544C26.5048 16.744 26.8048 16.996 27.0288 17.3V16.352H28.7208V23H27.0288V22.028C26.8128 22.34 26.5128 22.6 26.1288 22.808C25.7528 23.008 25.3168 23.108 24.8208 23.108C24.2608 23.108 23.7488 22.964 23.2848 22.676C22.8288 22.388 22.4648 21.984 22.1928 21.464C21.9288 20.936 21.7968 20.332 21.7968 19.652ZM27.0288 19.676C27.0288 19.268 26.9488 18.92 26.7888 18.632C26.6288 18.336 26.4128 18.112 26.1408 17.96C25.8688 17.8 25.5768 17.72 25.2648 17.72C24.9528 17.72 24.6648 17.796 24.4008 17.948C24.1368 18.1 23.9208 18.324 23.7528 18.62C23.5928 18.908 23.5128 19.252 23.5128 19.652C23.5128 20.052 23.5928 20.404 23.7528 20.708C23.9208 21.004 24.1368 21.232 24.4008 21.392C24.6728 21.552 24.9608 21.632 25.2648 21.632C25.5768 21.632 25.8688 21.556 26.1408 21.404C26.4128 21.244 26.6288 21.02 26.7888 20.732C26.9488 20.436 27.0288 20.084 27.0288 19.676ZM36.8216 16.352L32.7056 26.144H30.9176L32.3576 22.832L29.6936 16.352H31.5776L33.2936 20.996L35.0336 16.352H36.8216ZM46.0832 16.256C46.8992 16.256 47.5552 16.508 48.0512 17.012C48.5552 17.508 48.8072 18.204 48.8072 19.1V23H47.1272V19.328C47.1272 18.808 46.9952 18.412 46.7312 18.14C46.4672 17.86 46.1072 17.72 45.6512 17.72C45.1952 17.72 44.8312 17.86 44.5592 18.14C44.2952 18.412 44.1632 18.808 44.1632 19.328V23H42.4832V19.328C42.4832 18.808 42.3512 18.412 42.0872 18.14C41.8232 17.86 41.4632 17.72 41.0072 17.72C40.5432 17.72 40.1752 17.86 39.9032 18.14C39.6392 18.412 39.5072 18.808 39.5072 19.328V23H37.8272V16.352H39.5072V17.156C39.7232 16.876 39.9992 16.656 40.3352 16.496C40.6792 16.336 41.0552 16.256 41.4632 16.256C41.9832 16.256 42.4472 16.368 42.8552 16.592C43.2632 16.808 43.5792 17.12 43.8032 17.528C44.0192 17.144 44.3312 16.836 44.7392 16.604C45.1552 16.372 45.6032 16.256 46.0832 16.256ZM56.6814 19.532C56.6814 19.772 56.6654 19.988 56.6334 20.18H51.7734C51.8134 20.66 51.9814 21.036 52.2774 21.308C52.5734 21.58 52.9374 21.716 53.3694 21.716C53.9934 21.716 54.4374 21.448 54.7014 20.912H56.5134C56.3214 21.552 55.9534 22.08 55.4094 22.496C54.8654 22.904 54.1974 23.108 53.4054 23.108C52.7654 23.108 52.1894 22.968 51.6774 22.688C51.1734 22.4 50.7774 21.996 50.4894 21.476C50.2094 20.956 50.0694 20.356 50.0694 19.676C50.0694 18.988 50.2094 18.384 50.4894 17.864C50.7694 17.344 51.1614 16.944 51.6654 16.664C52.1694 16.384 52.7494 16.244 53.4054 16.244C54.0374 16.244 54.6014 16.38 55.0974 16.652C55.6014 16.924 55.9894 17.312 56.2614 17.816C56.5414 18.312 56.6814 18.884 56.6814 19.532ZM54.9414 19.052C54.9334 18.62 54.7774 18.276 54.4734 18.02C54.1694 17.756 53.7974 17.624 53.3574 17.624C52.9414 17.624 52.5894 17.752 52.3014 18.008C52.0214 18.256 51.8494 18.604 51.7854 19.052H54.9414ZM61.6917 16.256C62.4837 16.256 63.1237 16.508 63.6117 17.012C64.0997 17.508 64.3437 18.204 64.3437 19.1V23H62.6637V19.328C62.6637 18.8 62.5317 18.396 62.2677 18.116C62.0037 17.828 61.6437 17.684 61.1877 17.684C60.7237 17.684 60.3557 17.828 60.0837 18.116C59.8197 18.396 59.6877 18.8 59.6877 19.328V23H58.0077V16.352H59.6877V17.18C59.9117 16.892 60.1957 16.668 60.5397 16.508C60.8917 16.34 61.2757 16.256 61.6917 16.256ZM67.9973 17.732V20.948C67.9973 21.172 68.0493 21.336 68.1533 21.44C68.2653 21.536 68.4493 21.584 68.7053 21.584H69.4853V23H68.4293C67.0133 23 66.3053 22.312 66.3053 20.936V17.732H65.5133V16.352H66.3053V14.708H67.9973V16.352H69.4853V17.732H67.9973ZM76.645 23.084C76.061 23.084 75.533 22.984 75.061 22.784C74.597 22.584 74.229 22.296 73.957 21.92C73.685 21.544 73.545 21.1 73.537 20.588H75.337C75.361 20.932 75.481 21.204 75.697 21.404C75.921 21.604 76.225 21.704 76.609 21.704C77.001 21.704 77.309 21.612 77.533 21.428C77.757 21.236 77.869 20.988 77.869 20.684C77.869 20.436 77.793 20.232 77.641 20.072C77.489 19.912 77.297 19.788 77.065 19.7C76.841 19.604 76.529 19.5 76.129 19.388C75.585 19.228 75.141 19.072 74.797 18.92C74.461 18.76 74.169 18.524 73.921 18.212C73.681 17.892 73.561 17.468 73.561 16.94C73.561 16.444 73.685 16.012 73.933 15.644C74.181 15.276 74.529 14.996 74.977 14.804C75.425 14.604 75.937 14.504 76.513 14.504C77.377 14.504 78.077 14.716 78.613 15.14C79.157 15.556 79.457 16.14 79.513 16.892H77.665C77.649 16.604 77.525 16.368 77.293 16.184C77.069 15.992 76.769 15.896 76.393 15.896C76.065 15.896 75.801 15.98 75.601 16.148C75.409 16.316 75.313 16.56 75.313 16.88C75.313 17.104 75.385 17.292 75.529 17.444C75.681 17.588 75.865 17.708 76.081 17.804C76.305 17.892 76.617 17.996 77.017 18.116C77.561 18.276 78.005 18.436 78.349 18.596C78.693 18.756 78.989 18.996 79.237 19.316C79.485 19.636 79.609 20.056 79.609 20.576C79.609 21.024 79.493 21.44 79.261 21.824C79.029 22.208 78.689 22.516 78.241 22.748C77.793 22.972 77.261 23.084 76.645 23.084ZM83.1215 17.732V20.948C83.1215 21.172 83.1735 21.336 83.2775 21.44C83.3895 21.536 83.5735 21.584 83.8295 21.584H84.6095V23H83.5535C82.1375 23 81.4295 22.312 81.4295 20.936V17.732H80.6375V16.352H81.4295V14.708H83.1215V16.352H84.6095V17.732H83.1215ZM85.4858 19.652C85.4858 18.98 85.6178 18.384 85.8818 17.864C86.1538 17.344 86.5178 16.944 86.9738 16.664C87.4378 16.384 87.9538 16.244 88.5218 16.244C89.0178 16.244 89.4498 16.344 89.8178 16.544C90.1938 16.744 90.4938 16.996 90.7178 17.3V16.352H92.4098V23H90.7178V22.028C90.5018 22.34 90.2018 22.6 89.8178 22.808C89.4418 23.008 89.0058 23.108 88.5098 23.108C87.9498 23.108 87.4378 22.964 86.9738 22.676C86.5178 22.388 86.1538 21.984 85.8818 21.464C85.6178 20.936 85.4858 20.332 85.4858 19.652ZM90.7178 19.676C90.7178 19.268 90.6378 18.92 90.4778 18.632C90.3178 18.336 90.1018 18.112 89.8298 17.96C89.5578 17.8 89.2658 17.72 88.9538 17.72C88.6418 17.72 88.3538 17.796 88.0898 17.948C87.8258 18.1 87.6098 18.324 87.4418 18.62C87.2818 18.908 87.2018 19.252 87.2018 19.652C87.2018 20.052 87.2818 20.404 87.4418 20.708C87.6098 21.004 87.8258 21.232 88.0898 21.392C88.3618 21.552 88.6498 21.632 88.9538 21.632C89.2658 21.632 89.5578 21.556 89.8298 21.404C90.1018 21.244 90.3178 21.02 90.4778 20.732C90.6378 20.436 90.7178 20.084 90.7178 19.676ZM96.1067 17.732V20.948C96.1067 21.172 96.1587 21.336 96.2627 21.44C96.3747 21.536 96.5587 21.584 96.8147 21.584H97.5947V23H96.5387C95.1227 23 94.4147 22.312 94.4147 20.936V17.732H93.6227V16.352H94.4147V14.708H96.1067V16.352H97.5947V17.732H96.1067ZM99.755 15.56C99.459 15.56 99.211 15.468 99.011 15.284C98.819 15.092 98.723 14.856 98.723 14.576C98.723 14.296 98.819 14.064 99.011 13.88C99.211 13.688 99.459 13.592 99.755 13.592C100.051 13.592 100.295 13.688 100.487 13.88C100.687 14.064 100.787 14.296 100.787 14.576C100.787 14.856 100.687 15.092 100.487 15.284C100.295 15.468 100.051 15.56 99.755 15.56ZM100.583 16.352V23H98.903V16.352H100.583ZM101.911 19.676C101.911 18.988 102.051 18.388 102.331 17.876C102.611 17.356 102.999 16.956 103.495 16.676C103.991 16.388 104.559 16.244 105.199 16.244C106.023 16.244 106.703 16.452 107.239 16.868C107.783 17.276 108.147 17.852 108.331 18.596H106.519C106.423 18.308 106.259 18.084 106.027 17.924C105.803 17.756 105.523 17.672 105.187 17.672C104.707 17.672 104.327 17.848 104.047 18.2C103.767 18.544 103.627 19.036 103.627 19.676C103.627 20.308 103.767 20.8 104.047 21.152C104.327 21.496 104.707 21.668 105.187 21.668C105.867 21.668 106.311 21.364 106.519 20.756H108.331C108.147 21.476 107.783 22.048 107.239 22.472C106.695 22.896 106.015 23.108 105.199 23.108C104.559 23.108 103.991 22.968 103.495 22.688C102.999 22.4 102.611 22 102.331 21.488C102.051 20.968 101.911 20.364 101.911 19.676ZM112.206 23.108C111.662 23.108 111.174 23.012 110.742 22.82C110.31 22.62 109.966 22.352 109.71 22.016C109.462 21.68 109.326 21.308 109.302 20.9H110.994C111.026 21.156 111.15 21.368 111.366 21.536C111.59 21.704 111.866 21.788 112.194 21.788C112.514 21.788 112.762 21.724 112.938 21.596C113.122 21.468 113.214 21.304 113.214 21.104C113.214 20.888 113.102 20.728 112.878 20.624C112.662 20.512 112.314 20.392 111.834 20.264C111.338 20.144 110.93 20.02 110.61 19.892C110.298 19.764 110.026 19.568 109.794 19.304C109.57 19.04 109.458 18.684 109.458 18.236C109.458 17.868 109.562 17.532 109.77 17.228C109.986 16.924 110.29 16.684 110.682 16.508C111.082 16.332 111.55 16.244 112.086 16.244C112.878 16.244 113.51 16.444 113.982 16.844C114.454 17.236 114.714 17.768 114.762 18.44H113.154C113.13 18.176 113.018 17.968 112.818 17.816C112.626 17.656 112.366 17.576 112.038 17.576C111.734 17.576 111.498 17.632 111.33 17.744C111.17 17.856 111.09 18.012 111.09 18.212C111.09 18.436 111.202 18.608 111.426 18.728C111.65 18.84 111.998 18.956 112.47 19.076C112.95 19.196 113.346 19.32 113.658 19.448C113.97 19.576 114.238 19.776 114.462 20.048C114.694 20.312 114.814 20.664 114.822 21.104C114.822 21.488 114.714 21.832 114.498 22.136C114.29 22.44 113.986 22.68 113.586 22.856C113.194 23.024 112.734 23.108 112.206 23.108Z" fill="#171725"/>
<path d="M14.6605 124V122.968C14.9885 122.848 15.2405 122.7 15.4165 122.524C15.6005 122.34 15.6925 122.1 15.6925 121.804V120.22H14.6485V119.296H15.6925V118.036C15.6925 117.5 15.7965 117.036 16.0045 116.644C16.2205 116.252 16.5405 115.952 16.9645 115.744C17.3885 115.528 17.9245 115.42 18.5725 115.42C19.0685 115.42 19.5285 115.496 19.9525 115.648C20.3845 115.8 20.7605 116.016 21.0805 116.296L20.5405 117.412C20.2525 117.148 19.9525 116.956 19.6405 116.836C19.3285 116.716 18.9965 116.656 18.6445 116.656C18.1645 116.656 17.8085 116.768 17.5765 116.992C17.3525 117.216 17.2405 117.548 17.2405 117.988V119.296H19.2685V120.22H17.2525V121.444C17.2525 121.804 17.1765 122.096 17.0245 122.32C16.8805 122.536 16.6725 122.696 16.4005 122.8V122.74H20.9605V124H14.6605ZM22.6718 124V122.716H24.6158V116.836H25.3598L22.8638 118.324V116.86L25.0598 115.54H26.1638V122.716H27.9878V124H22.6718ZM32.1952 124.12C31.8272 124.12 31.4592 124.08 31.0912 124C30.7312 123.92 30.3912 123.808 30.0712 123.664C29.7592 123.52 29.4912 123.348 29.2672 123.148L29.7712 121.984C30.1472 122.264 30.5312 122.476 30.9232 122.62C31.3232 122.756 31.7392 122.824 32.1712 122.824C32.6912 122.824 33.0952 122.696 33.3832 122.44C33.6792 122.176 33.8272 121.824 33.8272 121.384C33.8272 120.936 33.6872 120.576 33.4072 120.304C33.1272 120.024 32.7432 119.884 32.2552 119.884C31.9112 119.884 31.5952 119.952 31.3072 120.088C31.0272 120.216 30.7752 120.416 30.5512 120.688H29.5312V115.54H34.7872V116.812H30.9952V119.5H30.6232C30.8312 119.22 31.1072 119.004 31.4512 118.852C31.8032 118.7 32.1952 118.624 32.6272 118.624C33.1712 118.624 33.6432 118.736 34.0432 118.96C34.4432 119.184 34.7552 119.5 34.9792 119.908C35.2032 120.308 35.3152 120.78 35.3152 121.324C35.3152 121.876 35.1872 122.364 34.9312 122.788C34.6832 123.204 34.3232 123.532 33.8512 123.772C33.3872 124.004 32.8352 124.12 32.1952 124.12ZM38.6945 124.12C38.2385 124.12 37.7865 124.036 37.3385 123.868C36.8905 123.692 36.5065 123.456 36.1865 123.16L36.7025 122.008C36.9985 122.28 37.3185 122.484 37.6625 122.62C38.0065 122.756 38.3545 122.824 38.7065 122.824C39.4185 122.824 39.9625 122.58 40.3385 122.092C40.7225 121.604 40.9145 120.876 40.9145 119.908V119.008H41.0585C41.0025 119.408 40.8665 119.756 40.6505 120.052C40.4345 120.348 40.1625 120.576 39.8345 120.736C39.5145 120.888 39.1545 120.964 38.7545 120.964C38.2665 120.964 37.8265 120.848 37.4345 120.616C37.0505 120.384 36.7465 120.064 36.5225 119.656C36.3065 119.24 36.1985 118.772 36.1985 118.252C36.1985 117.7 36.3185 117.212 36.5585 116.788C36.8065 116.364 37.1425 116.032 37.5665 115.792C37.9905 115.544 38.4785 115.42 39.0305 115.42C40.1025 115.42 40.9265 115.788 41.5025 116.524C42.0865 117.252 42.3785 118.284 42.3785 119.62C42.3785 120.572 42.2305 121.384 41.9345 122.056C41.6465 122.728 41.2265 123.24 40.6745 123.592C40.1225 123.944 39.4625 124.12 38.6945 124.12ZM39.1265 119.74C39.4225 119.74 39.6825 119.676 39.9065 119.548C40.1305 119.42 40.3065 119.24 40.4345 119.008C40.5625 118.768 40.6265 118.496 40.6265 118.192C40.6265 117.88 40.5625 117.608 40.4345 117.376C40.3065 117.144 40.1305 116.964 39.9065 116.836C39.6825 116.7 39.4225 116.632 39.1265 116.632C38.8305 116.632 38.5705 116.7 38.3465 116.836C38.1225 116.964 37.9465 117.144 37.8185 117.376C37.6985 117.608 37.6385 117.88 37.6385 118.192C37.6385 118.496 37.6985 118.768 37.8185 119.008C37.9465 119.24 38.1225 119.42 38.3465 119.548C38.5705 119.676 38.8305 119.74 39.1265 119.74ZM44.3058 125.596L43.6938 125.116C43.9498 124.852 44.1258 124.604 44.2218 124.372C44.3258 124.148 44.3778 123.908 44.3778 123.652L44.7018 124H43.5738V122.332H45.2538V123.436C45.2538 123.844 45.1818 124.216 45.0378 124.552C44.9018 124.896 44.6578 125.244 44.3058 125.596ZM49.8023 124.12C48.7383 124.12 47.9143 123.752 47.3303 123.016C46.7543 122.28 46.4663 121.248 46.4663 119.92C46.4663 118.96 46.6143 118.148 46.9103 117.484C47.2063 116.812 47.6263 116.3 48.1703 115.948C48.7223 115.596 49.3823 115.42 50.1503 115.42C50.6063 115.42 51.0583 115.504 51.5063 115.672C51.9543 115.832 52.3383 116.064 52.6583 116.368L52.1423 117.52C51.8463 117.248 51.5263 117.048 51.1823 116.92C50.8383 116.784 50.4903 116.716 50.1383 116.716C49.4183 116.716 48.8703 116.96 48.4943 117.448C48.1183 117.936 47.9303 118.664 47.9303 119.632V120.532H47.7863C47.8503 120.124 47.9863 119.776 48.1943 119.488C48.4023 119.192 48.6703 118.968 48.9983 118.816C49.3263 118.656 49.6903 118.576 50.0903 118.576C50.5863 118.576 51.0263 118.692 51.4103 118.924C51.7943 119.156 52.0943 119.476 52.3103 119.884C52.5343 120.292 52.6463 120.76 52.6463 121.288C52.6463 121.832 52.5223 122.32 52.2743 122.752C52.0343 123.176 51.7023 123.512 51.2783 123.76C50.8543 124 50.3623 124.12 49.8023 124.12ZM49.7183 122.896C50.0143 122.896 50.2743 122.832 50.4983 122.704C50.7223 122.576 50.8943 122.396 51.0143 122.164C51.1423 121.924 51.2063 121.652 51.2063 121.348C51.2063 121.036 51.1423 120.764 51.0143 120.532C50.8943 120.3 50.7223 120.12 50.4983 119.992C50.2743 119.856 50.0143 119.788 49.7183 119.788C49.4223 119.788 49.1623 119.856 48.9383 119.992C48.7143 120.12 48.5383 120.3 48.4103 120.532C48.2823 120.764 48.2183 121.036 48.2183 121.348C48.2183 121.652 48.2823 121.924 48.4103 122.164C48.5383 122.396 48.7143 122.576 48.9383 122.704C49.1623 122.832 49.4223 122.896 49.7183 122.896ZM56.6977 124.12C55.7057 124.12 54.9417 123.744 54.4057 122.992C53.8697 122.232 53.6017 121.152 53.6017 119.752C53.6017 118.336 53.8697 117.26 54.4057 116.524C54.9417 115.788 55.7057 115.42 56.6977 115.42C57.6977 115.42 58.4617 115.788 58.9897 116.524C59.5257 117.26 59.7937 118.332 59.7937 119.74C59.7937 121.148 59.5257 122.232 58.9897 122.992C58.4617 123.744 57.6977 124.12 56.6977 124.12ZM56.6977 122.848C57.2417 122.848 57.6457 122.6 57.9097 122.104C58.1737 121.6 58.3057 120.812 58.3057 119.74C58.3057 118.668 58.1737 117.892 57.9097 117.412C57.6457 116.924 57.2417 116.68 56.6977 116.68C56.1617 116.68 55.7577 116.924 55.4857 117.412C55.2217 117.892 55.0897 118.668 55.0897 119.74C55.0897 120.812 55.2217 121.6 55.4857 122.104C55.7577 122.6 56.1617 122.848 56.6977 122.848ZM64.565 124V122.344H60.785V121.264L64.805 115.54H66.053V121.168H67.265V122.344H66.053V124H64.565ZM64.565 121.168V117.364H64.853L61.937 121.528V121.168H64.565ZM68.1363 124V122.332H69.8163V124H68.1363ZM71.4968 124L75.6008 116.296V116.836H71.1128V115.54H77.0288V116.692L73.1888 124H71.4968ZM81.5602 124.12C80.4962 124.12 79.6722 123.752 79.0882 123.016C78.5122 122.28 78.2242 121.248 78.2242 119.92C78.2242 118.96 78.3722 118.148 78.6682 117.484C78.9642 116.812 79.3842 116.3 79.9282 115.948C80.4802 115.596 81.1402 115.42 81.9082 115.42C82.3642 115.42 82.8162 115.504 83.2642 115.672C83.7122 115.832 84.0962 116.064 84.4162 116.368L83.9002 117.52C83.6042 117.248 83.2842 117.048 82.9402 116.92C82.5962 116.784 82.2482 116.716 81.8962 116.716C81.1762 116.716 80.6282 116.96 80.2522 117.448C79.8762 117.936 79.6882 118.664 79.6882 119.632V120.532H79.5442C79.6082 120.124 79.7442 119.776 79.9522 119.488C80.1602 119.192 80.4282 118.968 80.7562 118.816C81.0842 118.656 81.4482 118.576 81.8482 118.576C82.3442 118.576 82.7842 118.692 83.1682 118.924C83.5522 119.156 83.8522 119.476 84.0682 119.884C84.2922 120.292 84.4042 120.76 84.4042 121.288C84.4042 121.832 84.2802 122.32 84.0322 122.752C83.7922 123.176 83.4602 123.512 83.0362 123.76C82.6122 124 82.1202 124.12 81.5602 124.12ZM81.4762 122.896C81.7722 122.896 82.0322 122.832 82.2562 122.704C82.4802 122.576 82.6522 122.396 82.7722 122.164C82.9002 121.924 82.9642 121.652 82.9642 121.348C82.9642 121.036 82.9002 120.764 82.7722 120.532C82.6522 120.3 82.4802 120.12 82.2562 119.992C82.0322 119.856 81.7722 119.788 81.4762 119.788C81.1802 119.788 80.9202 119.856 80.6962 119.992C80.4722 120.12 80.2962 120.3 80.1682 120.532C80.0402 120.764 79.9762 121.036 79.9762 121.348C79.9762 121.652 80.0402 121.924 80.1682 122.164C80.2962 122.396 80.4722 122.576 80.6962 122.704C80.9202 122.832 81.1802 122.896 81.4762 122.896Z" fill="#171725"/>
<path d="M21.4395 134.807V134.182H25.8031V134.807H23.9736V140H23.269V134.807H21.4395ZM28.0395 140.091C27.6455 140.091 27.2999 139.997 27.0026 139.81C26.7071 139.622 26.476 139.36 26.3094 139.023C26.1446 138.686 26.0622 138.292 26.0622 137.841C26.0622 137.386 26.1446 136.99 26.3094 136.651C26.476 136.312 26.7071 136.048 27.0026 135.861C27.2999 135.673 27.6455 135.58 28.0395 135.58C28.4334 135.58 28.7781 135.673 29.0736 135.861C29.3709 136.048 29.602 136.312 29.7668 136.651C29.9334 136.99 30.0168 137.386 30.0168 137.841C30.0168 138.292 29.9334 138.686 29.7668 139.023C29.602 139.36 29.3709 139.622 29.0736 139.81C28.7781 139.997 28.4334 140.091 28.0395 140.091ZM28.0395 139.489C28.3387 139.489 28.5849 139.412 28.7781 139.259C28.9713 139.105 29.1143 138.903 29.2071 138.653C29.2999 138.403 29.3463 138.133 29.3463 137.841C29.3463 137.549 29.2999 137.277 29.2071 137.026C29.1143 136.774 28.9713 136.57 28.7781 136.415C28.5849 136.259 28.3387 136.182 28.0395 136.182C27.7402 136.182 27.494 136.259 27.3009 136.415C27.1077 136.57 26.9647 136.774 26.8719 137.026C26.7791 137.277 26.7327 137.549 26.7327 137.841C26.7327 138.133 26.7791 138.403 26.8719 138.653C26.9647 138.903 27.1077 139.105 27.3009 139.259C27.494 139.412 27.7402 139.489 28.0395 139.489ZM33.0379 135.636V136.205H30.7766V135.636H33.0379ZM31.4357 134.591H32.1061V138.75C32.1061 138.939 32.1336 139.081 32.1885 139.176C32.2453 139.269 32.3173 139.331 32.4044 139.364C32.4934 139.394 32.5872 139.409 32.6857 139.409C32.7595 139.409 32.8201 139.405 32.8675 139.398C32.9148 139.388 32.9527 139.381 32.9811 139.375L33.1175 139.977C33.072 139.994 33.0086 140.011 32.9271 140.028C32.8457 140.047 32.7425 140.057 32.6175 140.057C32.4281 140.057 32.2425 140.016 32.0607 139.935C31.8807 139.853 31.7311 139.729 31.6118 139.562C31.4944 139.396 31.4357 139.186 31.4357 138.932V134.591ZM35.4305 140.102C35.154 140.102 34.9031 140.05 34.6777 139.946C34.4523 139.84 34.2733 139.688 34.1408 139.489C34.0082 139.288 33.9419 139.045 33.9419 138.761C33.9419 138.511 33.9911 138.309 34.0896 138.153C34.1881 137.996 34.3197 137.873 34.4845 137.784C34.6493 137.695 34.8311 137.629 35.03 137.585C35.2307 137.54 35.4324 137.504 35.6351 137.477C35.9002 137.443 36.1152 137.418 36.28 137.401C36.4466 137.382 36.5679 137.35 36.6436 137.307C36.7213 137.263 36.7601 137.187 36.7601 137.08V137.057C36.7601 136.777 36.6834 136.559 36.53 136.403C36.3785 136.248 36.1483 136.17 35.8396 136.17C35.5196 136.17 35.2686 136.241 35.0868 136.381C34.905 136.521 34.7771 136.67 34.7033 136.83L34.0669 136.602C34.1805 136.337 34.3321 136.131 34.5214 135.983C34.7127 135.833 34.9211 135.729 35.1464 135.67C35.3737 135.61 35.5972 135.58 35.8169 135.58C35.9571 135.58 36.118 135.597 36.2999 135.631C36.4836 135.663 36.6607 135.73 36.8311 135.832C37.0035 135.935 37.1464 136.089 37.2601 136.295C37.3737 136.502 37.4305 136.778 37.4305 137.125V140H36.7601V139.409H36.726C36.6805 139.504 36.6048 139.605 36.4987 139.713C36.3927 139.821 36.2516 139.913 36.0754 139.989C35.8993 140.064 35.6843 140.102 35.4305 140.102ZM35.5328 139.5C35.798 139.5 36.0214 139.448 36.2033 139.344C36.387 139.24 36.5252 139.105 36.618 138.94C36.7127 138.776 36.7601 138.602 36.7601 138.42V137.807C36.7317 137.841 36.6692 137.872 36.5726 137.901C36.4779 137.927 36.368 137.951 36.243 137.972C36.1199 137.991 35.9997 138.008 35.8822 138.023C35.7667 138.036 35.673 138.047 35.601 138.057C35.4268 138.08 35.2639 138.116 35.1124 138.168C34.9627 138.217 34.8415 138.292 34.7487 138.392C34.6578 138.491 34.6124 138.625 34.6124 138.795C34.6124 139.028 34.6985 139.205 34.8709 139.324C35.0451 139.441 35.2658 139.5 35.5328 139.5ZM39.4247 134.182V140H38.7543V134.182H39.4247ZM43.1027 141.636V135.636H43.7504V136.33H43.83C43.8792 136.254 43.9474 136.157 44.0345 136.04C44.1235 135.92 44.2504 135.814 44.4152 135.722C44.5819 135.627 44.8072 135.58 45.0913 135.58C45.4588 135.58 45.7826 135.671 46.0629 135.855C46.3432 136.039 46.562 136.299 46.7192 136.636C46.8764 136.973 46.955 137.371 46.955 137.83C46.955 138.292 46.8764 138.692 46.7192 139.031C46.562 139.368 46.3442 139.63 46.0658 139.815C45.7874 139.999 45.4663 140.091 45.1027 140.091C44.8224 140.091 44.598 140.045 44.4294 139.952C44.2608 139.857 44.1311 139.75 44.0402 139.631C43.9493 139.509 43.8792 139.409 43.83 139.33H43.7732V141.636H43.1027ZM43.7618 137.818C43.7618 138.148 43.8101 138.438 43.9067 138.69C44.0033 138.94 44.1444 139.136 44.33 139.278C44.5156 139.419 44.7429 139.489 45.0118 139.489C45.2921 139.489 45.526 139.415 45.7135 139.267C45.9029 139.117 46.0449 138.917 46.1396 138.665C46.2362 138.411 46.2845 138.129 46.2845 137.818C46.2845 137.511 46.2372 137.235 46.1425 136.989C46.0497 136.741 45.9086 136.545 45.7192 136.401C45.5317 136.255 45.2959 136.182 45.0118 136.182C44.7391 136.182 44.5099 136.251 44.3243 136.389C44.1387 136.526 43.9985 136.717 43.9038 136.963C43.8091 137.207 43.7618 137.492 43.7618 137.818ZM49.3618 140.102C49.0853 140.102 48.8343 140.05 48.609 139.946C48.3836 139.84 48.2046 139.688 48.072 139.489C47.9394 139.288 47.8732 139.045 47.8732 138.761C47.8732 138.511 47.9224 138.309 48.0209 138.153C48.1194 137.996 48.251 137.873 48.4158 137.784C48.5805 137.695 48.7624 137.629 48.9612 137.585C49.162 137.54 49.3637 137.504 49.5663 137.477C49.8315 137.443 50.0465 137.418 50.2112 137.401C50.3779 137.382 50.4991 137.35 50.5749 137.307C50.6525 137.263 50.6913 137.187 50.6913 137.08V137.057C50.6913 136.777 50.6146 136.559 50.4612 136.403C50.3097 136.248 50.0796 136.17 49.7709 136.17C49.4508 136.17 49.1999 136.241 49.018 136.381C48.8362 136.521 48.7084 136.67 48.6345 136.83L47.9982 136.602C48.1118 136.337 48.2633 136.131 48.4527 135.983C48.644 135.833 48.8523 135.729 49.0777 135.67C49.305 135.61 49.5285 135.58 49.7482 135.58C49.8883 135.58 50.0493 135.597 50.2311 135.631C50.4148 135.663 50.5919 135.73 50.7624 135.832C50.9347 135.935 51.0777 136.089 51.1913 136.295C51.305 136.502 51.3618 136.778 51.3618 137.125V140H50.6913V139.409H50.6572C50.6118 139.504 50.536 139.605 50.43 139.713C50.3239 139.821 50.1828 139.913 50.0067 139.989C49.8305 140.064 49.6156 140.102 49.3618 140.102ZM49.4641 139.5C49.7292 139.5 49.9527 139.448 50.1345 139.344C50.3182 139.24 50.4565 139.105 50.5493 138.94C50.644 138.776 50.6913 138.602 50.6913 138.42V137.807C50.6629 137.841 50.6004 137.872 50.5038 137.901C50.4091 137.927 50.2993 137.951 50.1743 137.972C50.0512 137.991 49.9309 138.008 49.8135 138.023C49.698 138.036 49.6042 138.047 49.5322 138.057C49.358 138.08 49.1951 138.116 49.0436 138.168C48.894 138.217 48.7728 138.292 48.68 138.392C48.5891 138.491 48.5436 138.625 48.5436 138.795C48.5436 139.028 48.6298 139.205 48.8021 139.324C48.9764 139.441 49.197 139.5 49.4641 139.5ZM52.9611 141.636C52.8474 141.636 52.7461 141.627 52.6571 141.608C52.5681 141.591 52.5065 141.574 52.4724 141.557L52.6429 140.966C52.8058 141.008 52.9497 141.023 53.0747 141.011C53.1997 141 53.3105 140.944 53.4071 140.844C53.5056 140.745 53.5955 140.585 53.677 140.364L53.802 140.023L52.1884 135.636H52.9156L54.1202 139.114H54.1656L55.3702 135.636H56.0974L54.2452 140.636C54.1618 140.862 54.0586 141.048 53.9355 141.196C53.8124 141.346 53.6694 141.456 53.5065 141.528C53.3455 141.6 53.1637 141.636 52.9611 141.636ZM58.2337 140.102C57.9571 140.102 57.7062 140.05 57.4808 139.946C57.2554 139.84 57.0765 139.688 56.9439 139.489C56.8113 139.288 56.745 139.045 56.745 138.761C56.745 138.511 56.7943 138.309 56.8928 138.153C56.9912 137.996 57.1229 137.873 57.2876 137.784C57.4524 137.695 57.6342 137.629 57.8331 137.585C58.0339 137.54 58.2356 137.504 58.4382 137.477C58.7034 137.443 58.9183 137.418 59.0831 137.401C59.2498 137.382 59.371 137.35 59.4467 137.307C59.5244 137.263 59.5632 137.187 59.5632 137.08V137.057C59.5632 136.777 59.4865 136.559 59.3331 136.403C59.1816 136.248 58.9515 136.17 58.6428 136.17C58.3227 136.17 58.0717 136.241 57.8899 136.381C57.7081 136.521 57.5803 136.67 57.5064 136.83L56.87 136.602C56.9837 136.337 57.1352 136.131 57.3246 135.983C57.5159 135.833 57.7242 135.729 57.9496 135.67C58.1768 135.61 58.4003 135.58 58.62 135.58C58.7602 135.58 58.9212 135.597 59.103 135.631C59.2867 135.663 59.4638 135.73 59.6342 135.832C59.8066 135.935 59.9496 136.089 60.0632 136.295C60.1768 136.502 60.2337 136.778 60.2337 137.125V140H59.5632V139.409H59.5291C59.4837 139.504 59.4079 139.605 59.3018 139.713C59.1958 139.821 59.0547 139.913 58.8786 139.989C58.7024 140.064 58.4875 140.102 58.2337 140.102ZM58.3359 139.5C58.6011 139.5 58.8246 139.448 59.0064 139.344C59.1901 139.24 59.3284 139.105 59.4212 138.94C59.5159 138.776 59.5632 138.602 59.5632 138.42V137.807C59.5348 137.841 59.4723 137.872 59.3757 137.901C59.281 137.927 59.1712 137.951 59.0462 137.972C58.9231 137.991 58.8028 138.008 58.6854 138.023C58.5698 138.036 58.4761 138.047 58.4041 138.057C58.2299 138.08 58.067 138.116 57.9155 138.168C57.7659 138.217 57.6446 138.292 57.5518 138.392C57.4609 138.491 57.4155 138.625 57.4155 138.795C57.4155 139.028 57.5017 139.205 57.674 139.324C57.8482 139.441 58.0689 139.5 58.3359 139.5ZM61.6483 140V134.182H62.3187V136.33H62.3756C62.4248 136.254 62.493 136.157 62.5801 136.04C62.6691 135.92 62.796 135.814 62.9608 135.722C63.1275 135.627 63.3528 135.58 63.6369 135.58C64.0044 135.58 64.3282 135.671 64.6085 135.855C64.8888 136.039 65.1076 136.299 65.2648 136.636C65.422 136.973 65.5006 137.371 65.5006 137.83C65.5006 138.292 65.422 138.692 65.2648 139.031C65.1076 139.368 64.8898 139.63 64.6114 139.815C64.333 139.999 64.0119 140.091 63.6483 140.091C63.368 140.091 63.1436 140.045 62.975 139.952C62.8064 139.857 62.6767 139.75 62.5858 139.631C62.4949 139.509 62.4248 139.409 62.3756 139.33H62.296V140H61.6483ZM62.3074 137.818C62.3074 138.148 62.3557 138.438 62.4523 138.69C62.5489 138.94 62.69 139.136 62.8756 139.278C63.0612 139.419 63.2884 139.489 63.5574 139.489C63.8377 139.489 64.0716 139.415 64.2591 139.267C64.4485 139.117 64.5905 138.917 64.6852 138.665C64.7818 138.411 64.8301 138.129 64.8301 137.818C64.8301 137.511 64.7828 137.235 64.6881 136.989C64.5953 136.741 64.4542 136.545 64.2648 136.401C64.0773 136.255 63.8415 136.182 63.5574 136.182C63.2847 136.182 63.0555 136.251 62.8699 136.389C62.6843 136.526 62.5441 136.717 62.4494 136.963C62.3547 137.207 62.3074 137.492 62.3074 137.818ZM67.2966 134.182V140H66.6261V134.182H67.2966ZM70.4541 140.091C70.0337 140.091 69.671 139.998 69.3661 139.812C69.063 139.625 68.8291 139.364 68.6643 139.028C68.5015 138.691 68.42 138.299 68.42 137.852C68.42 137.405 68.5015 137.011 68.6643 136.67C68.8291 136.328 69.0583 136.061 69.3518 135.869C69.6473 135.676 69.992 135.58 70.3859 135.58C70.6132 135.58 70.8376 135.617 71.0592 135.693C71.2808 135.769 71.4825 135.892 71.6643 136.062C71.8462 136.231 71.9911 136.455 72.099 136.733C72.207 137.011 72.2609 137.354 72.2609 137.761V138.045H68.8973V137.466H71.5791C71.5791 137.22 71.5299 137 71.4314 136.807C71.3348 136.614 71.1965 136.461 71.0166 136.349C70.8386 136.238 70.6284 136.182 70.3859 136.182C70.1189 136.182 69.8878 136.248 69.6928 136.381C69.4996 136.511 69.3509 136.682 69.2467 136.892C69.1426 137.102 69.0905 137.328 69.0905 137.568V137.955C69.0905 138.284 69.1473 138.563 69.2609 138.793C69.3765 139.02 69.5365 139.193 69.7411 139.312C69.9456 139.43 70.1833 139.489 70.4541 139.489C70.6303 139.489 70.7893 139.464 70.9314 139.415C71.0753 139.364 71.1994 139.288 71.3036 139.188C71.4077 139.085 71.4882 138.958 71.545 138.807L72.1928 138.989C72.1246 139.208 72.01 139.402 71.849 139.568C71.688 139.733 71.4892 139.862 71.2524 139.955C71.0157 140.045 70.7496 140.091 70.4541 140.091ZM76.4717 136.614L75.8695 136.784C75.8316 136.684 75.7757 136.586 75.7018 136.491C75.6299 136.395 75.5314 136.315 75.4064 136.253C75.2814 136.19 75.1214 136.159 74.9263 136.159C74.6592 136.159 74.4367 136.221 74.2587 136.344C74.0825 136.465 73.9945 136.619 73.9945 136.807C73.9945 136.973 74.0551 137.105 74.1763 137.202C74.2975 137.298 74.4869 137.379 74.7445 137.443L75.3922 137.602C75.7823 137.697 76.0731 137.842 76.2643 138.037C76.4556 138.23 76.5513 138.479 76.5513 138.784C76.5513 139.034 76.4793 139.258 76.3354 139.455C76.1933 139.652 75.9945 139.807 75.7388 139.92C75.4831 140.034 75.1857 140.091 74.8467 140.091C74.4017 140.091 74.0333 139.994 73.7416 139.801C73.45 139.608 73.2653 139.326 73.1876 138.955L73.824 138.795C73.8846 139.03 73.9992 139.206 74.1678 139.324C74.3382 139.441 74.5607 139.5 74.8354 139.5C75.1479 139.5 75.396 139.434 75.5797 139.301C75.7653 139.167 75.8581 139.006 75.8581 138.818C75.8581 138.667 75.8051 138.54 75.699 138.438C75.5929 138.333 75.4301 138.256 75.2104 138.205L74.4831 138.034C74.0835 137.939 73.7899 137.793 73.6024 137.594C73.4168 137.393 73.324 137.142 73.324 136.841C73.324 136.595 73.3931 136.377 73.5314 136.188C73.6715 135.998 73.8619 135.849 74.1024 135.741C74.3448 135.634 74.6195 135.58 74.9263 135.58C75.3581 135.58 75.6971 135.674 75.9433 135.864C76.1914 136.053 76.3676 136.303 76.4717 136.614Z" fill="#696974"/>
<path d="M38.2775 76.5569V75.5249L42.3095 69.7409H43.9655V75.3689H45.0815V76.5569H43.9655V78.3809H42.6215V76.5569H38.2775ZM42.6815 71.1329L39.8495 75.3689H42.6815V71.1329ZM51.759 70.6889L48.423 78.3809H47.043L50.415 70.8329H45.975V69.6689H51.759V70.6889ZM52.7139 71.7449C52.7139 71.1609 52.8819 70.7049 53.2179 70.3769C53.5619 70.0409 54.0019 69.8729 54.5379 69.8729C55.0739 69.8729 55.5099 70.0409 55.8459 70.3769C56.1899 70.7049 56.3619 71.1609 56.3619 71.7449C56.3619 72.3289 56.1899 72.7889 55.8459 73.1249C55.5099 73.4609 55.0739 73.6289 54.5379 73.6289C54.0019 73.6289 53.5619 73.4609 53.2179 73.1249C52.8819 72.7889 52.7139 72.3289 52.7139 71.7449ZM60.0339 70.0289L55.2459 78.3809H53.9019L58.6899 70.0289H60.0339ZM54.5379 70.7009C54.0339 70.7009 53.7819 71.0489 53.7819 71.7449C53.7819 72.4489 54.0339 72.8009 54.5379 72.8009C54.7779 72.8009 54.9619 72.7169 55.0899 72.5489C55.2259 72.3729 55.2939 72.1049 55.2939 71.7449C55.2939 71.0489 55.0419 70.7009 54.5379 70.7009ZM57.5979 76.6529C57.5979 76.0689 57.7659 75.6129 58.1019 75.2849C58.4459 74.9489 58.8859 74.7809 59.4219 74.7809C59.9499 74.7809 60.3819 74.9489 60.7179 75.2849C61.0619 75.6129 61.2339 76.0689 61.2339 76.6529C61.2339 77.2369 61.0619 77.6969 60.7179 78.0329C60.3819 78.3689 59.9499 78.5369 59.4219 78.5369C58.8859 78.5369 58.4459 78.3689 58.1019 78.0329C57.7659 77.6969 57.5979 77.2369 57.5979 76.6529ZM59.4099 75.6089C58.9059 75.6089 58.6539 75.9569 58.6539 76.6529C58.6539 77.3489 58.9059 77.6969 59.4099 77.6969C59.9139 77.6969 60.1659 77.3489 60.1659 76.6529C60.1659 75.9569 59.9139 75.6089 59.4099 75.6089Z" fill="#FF974A"/>
<circle cx="49.4766" cy="74.4766" r="25.4766" stroke="#FFF5ED" stroke-width="3"/>
<path d="M49.4766 49C55.8183 49 61.9321 51.3652 66.6226 55.6333C71.3131 59.9014 74.2432 65.7654 74.8401 72.079C75.4369 78.3926 73.6575 84.7018 69.8498 89.7732C66.0421 94.8446 60.4798 98.3135 54.2504 99.5019" stroke="#FF974A" stroke-width="3" stroke-linejoin="round"/>
<path d="M145.661 124V122.968C145.989 122.848 146.241 122.7 146.417 122.524C146.601 122.34 146.693 122.1 146.693 121.804V120.22H145.649V119.296H146.693V118.036C146.693 117.5 146.797 117.036 147.005 116.644C147.221 116.252 147.541 115.952 147.965 115.744C148.389 115.528 148.925 115.42 149.573 115.42C150.069 115.42 150.529 115.496 150.953 115.648C151.385 115.8 151.761 116.016 152.081 116.296L151.541 117.412C151.253 117.148 150.953 116.956 150.641 116.836C150.329 116.716 149.997 116.656 149.645 116.656C149.165 116.656 148.809 116.768 148.577 116.992C148.353 117.216 148.241 117.548 148.241 117.988V119.296H150.269V120.22H148.253V121.444C148.253 121.804 148.177 122.096 148.025 122.32C147.881 122.536 147.673 122.696 147.401 122.8V122.74H151.961V124H145.661ZM153.672 124V122.716H155.616V116.836H156.36L153.864 118.324V116.86L156.06 115.54H157.164V122.716H158.988V124H153.672ZM160.471 124V122.86L163.279 119.932C163.631 119.564 163.891 119.224 164.059 118.912C164.227 118.6 164.311 118.28 164.311 117.952C164.311 117.544 164.183 117.236 163.927 117.028C163.671 116.82 163.299 116.716 162.811 116.716C162.419 116.716 162.043 116.788 161.683 116.932C161.323 117.068 160.971 117.284 160.627 117.58L160.123 116.428C160.467 116.124 160.891 115.88 161.395 115.696C161.907 115.512 162.443 115.42 163.003 115.42C163.915 115.42 164.615 115.624 165.103 116.032C165.591 116.44 165.835 117.024 165.835 117.784C165.835 118.312 165.711 118.816 165.463 119.296C165.215 119.768 164.831 120.264 164.311 120.784L161.971 123.124V122.716H166.171V124H160.471ZM169.694 124.12C169.238 124.12 168.786 124.036 168.338 123.868C167.89 123.692 167.506 123.456 167.186 123.16L167.702 122.008C167.998 122.28 168.318 122.484 168.662 122.62C169.006 122.756 169.354 122.824 169.706 122.824C170.418 122.824 170.962 122.58 171.338 122.092C171.722 121.604 171.914 120.876 171.914 119.908V119.008H172.058C172.002 119.408 171.866 119.756 171.65 120.052C171.434 120.348 171.162 120.576 170.834 120.736C170.514 120.888 170.154 120.964 169.754 120.964C169.266 120.964 168.826 120.848 168.434 120.616C168.05 120.384 167.746 120.064 167.522 119.656C167.306 119.24 167.198 118.772 167.198 118.252C167.198 117.7 167.318 117.212 167.558 116.788C167.806 116.364 168.142 116.032 168.566 115.792C168.99 115.544 169.478 115.42 170.03 115.42C171.102 115.42 171.926 115.788 172.502 116.524C173.086 117.252 173.378 118.284 173.378 119.62C173.378 120.572 173.23 121.384 172.934 122.056C172.646 122.728 172.226 123.24 171.674 123.592C171.122 123.944 170.462 124.12 169.694 124.12ZM170.126 119.74C170.422 119.74 170.682 119.676 170.906 119.548C171.13 119.42 171.306 119.24 171.434 119.008C171.562 118.768 171.626 118.496 171.626 118.192C171.626 117.88 171.562 117.608 171.434 117.376C171.306 117.144 171.13 116.964 170.906 116.836C170.682 116.7 170.422 116.632 170.126 116.632C169.83 116.632 169.57 116.7 169.346 116.836C169.122 116.964 168.946 117.144 168.818 117.376C168.698 117.608 168.638 117.88 168.638 118.192C168.638 118.496 168.698 118.768 168.818 119.008C168.946 119.24 169.122 119.42 169.346 119.548C169.57 119.676 169.83 119.74 170.126 119.74ZM175.306 125.596L174.694 125.116C174.95 124.852 175.126 124.604 175.222 124.372C175.326 124.148 175.378 123.908 175.378 123.652L175.702 124H174.574V122.332H176.254V123.436C176.254 123.844 176.182 124.216 176.038 124.552C175.902 124.896 175.658 125.244 175.306 125.596ZM180.802 124.12C179.738 124.12 178.914 123.752 178.33 123.016C177.754 122.28 177.466 121.248 177.466 119.92C177.466 118.96 177.614 118.148 177.91 117.484C178.206 116.812 178.626 116.3 179.17 115.948C179.722 115.596 180.382 115.42 181.15 115.42C181.606 115.42 182.058 115.504 182.506 115.672C182.954 115.832 183.338 116.064 183.658 116.368L183.142 117.52C182.846 117.248 182.526 117.048 182.182 116.92C181.838 116.784 181.49 116.716 181.138 116.716C180.418 116.716 179.87 116.96 179.494 117.448C179.118 117.936 178.93 118.664 178.93 119.632V120.532H178.786C178.85 120.124 178.986 119.776 179.194 119.488C179.402 119.192 179.67 118.968 179.998 118.816C180.326 118.656 180.69 118.576 181.09 118.576C181.586 118.576 182.026 118.692 182.41 118.924C182.794 119.156 183.094 119.476 183.31 119.884C183.534 120.292 183.646 120.76 183.646 121.288C183.646 121.832 183.522 122.32 183.274 122.752C183.034 123.176 182.702 123.512 182.278 123.76C181.854 124 181.362 124.12 180.802 124.12ZM180.718 122.896C181.014 122.896 181.274 122.832 181.498 122.704C181.722 122.576 181.894 122.396 182.014 122.164C182.142 121.924 182.206 121.652 182.206 121.348C182.206 121.036 182.142 120.764 182.014 120.532C181.894 120.3 181.722 120.12 181.498 119.992C181.274 119.856 181.014 119.788 180.718 119.788C180.422 119.788 180.162 119.856 179.938 119.992C179.714 120.12 179.538 120.3 179.41 120.532C179.282 120.764 179.218 121.036 179.218 121.348C179.218 121.652 179.282 121.924 179.41 122.164C179.538 122.396 179.714 122.576 179.938 122.704C180.162 122.832 180.422 122.896 180.718 122.896ZM187.698 124.12C186.706 124.12 185.942 123.744 185.406 122.992C184.87 122.232 184.602 121.152 184.602 119.752C184.602 118.336 184.87 117.26 185.406 116.524C185.942 115.788 186.706 115.42 187.698 115.42C188.698 115.42 189.462 115.788 189.99 116.524C190.526 117.26 190.794 118.332 190.794 119.74C190.794 121.148 190.526 122.232 189.99 122.992C189.462 123.744 188.698 124.12 187.698 124.12ZM187.698 122.848C188.242 122.848 188.646 122.6 188.91 122.104C189.174 121.6 189.306 120.812 189.306 119.74C189.306 118.668 189.174 117.892 188.91 117.412C188.646 116.924 188.242 116.68 187.698 116.68C187.162 116.68 186.758 116.924 186.486 117.412C186.222 117.892 186.09 118.668 186.09 119.74C186.09 120.812 186.222 121.6 186.486 122.104C186.758 122.6 187.162 122.848 187.698 122.848ZM195.565 124V122.344H191.785V121.264L195.805 115.54H197.053V121.168H198.265V122.344H197.053V124H195.565ZM195.565 121.168V117.364H195.853L192.937 121.528V121.168H195.565ZM199.136 124V122.332H200.816V124H199.136ZM202.497 124L206.601 116.296V116.836H202.113V115.54H208.029V116.692L204.189 124H202.497ZM212.56 124.12C211.496 124.12 210.672 123.752 210.088 123.016C209.512 122.28 209.224 121.248 209.224 119.92C209.224 118.96 209.372 118.148 209.668 117.484C209.964 116.812 210.384 116.3 210.928 115.948C211.48 115.596 212.14 115.42 212.908 115.42C213.364 115.42 213.816 115.504 214.264 115.672C214.712 115.832 215.096 116.064 215.416 116.368L214.9 117.52C214.604 117.248 214.284 117.048 213.94 116.92C213.596 116.784 213.248 116.716 212.896 116.716C212.176 116.716 211.628 116.96 211.252 117.448C210.876 117.936 210.688 118.664 210.688 119.632V120.532H210.544C210.608 120.124 210.744 119.776 210.952 119.488C211.16 119.192 211.428 118.968 211.756 118.816C212.084 118.656 212.448 118.576 212.848 118.576C213.344 118.576 213.784 118.692 214.168 118.924C214.552 119.156 214.852 119.476 215.068 119.884C215.292 120.292 215.404 120.76 215.404 121.288C215.404 121.832 215.28 122.32 215.032 122.752C214.792 123.176 214.46 123.512 214.036 123.76C213.612 124 213.12 124.12 212.56 124.12ZM212.476 122.896C212.772 122.896 213.032 122.832 213.256 122.704C213.48 122.576 213.652 122.396 213.772 122.164C213.9 121.924 213.964 121.652 213.964 121.348C213.964 121.036 213.9 120.764 213.772 120.532C213.652 120.3 213.48 120.12 213.256 119.992C213.032 119.856 212.772 119.788 212.476 119.788C212.18 119.788 211.92 119.856 211.696 119.992C211.472 120.12 211.296 120.3 211.168 120.532C211.04 120.764 210.976 121.036 210.976 121.348C210.976 121.652 211.04 121.924 211.168 122.164C211.296 122.396 211.472 122.576 211.696 122.704C211.92 122.832 212.18 122.896 212.476 122.896Z" fill="#171725"/>
<path d="M146.528 134.807V134.182H150.891V134.807H149.062V140H148.357V134.807H146.528ZM153.128 140.091C152.734 140.091 152.388 139.997 152.091 139.81C151.795 139.622 151.564 139.36 151.398 139.023C151.233 138.686 151.15 138.292 151.15 137.841C151.15 137.386 151.233 136.99 151.398 136.651C151.564 136.312 151.795 136.048 152.091 135.861C152.388 135.673 152.734 135.58 153.128 135.58C153.522 135.58 153.866 135.673 154.162 135.861C154.459 136.048 154.69 136.312 154.855 136.651C155.022 136.99 155.105 137.386 155.105 137.841C155.105 138.292 155.022 138.686 154.855 139.023C154.69 139.36 154.459 139.622 154.162 139.81C153.866 139.997 153.522 140.091 153.128 140.091ZM153.128 139.489C153.427 139.489 153.673 139.412 153.866 139.259C154.06 139.105 154.203 138.903 154.295 138.653C154.388 138.403 154.435 138.133 154.435 137.841C154.435 137.549 154.388 137.277 154.295 137.026C154.203 136.774 154.06 136.57 153.866 136.415C153.673 136.259 153.427 136.182 153.128 136.182C152.829 136.182 152.582 136.259 152.389 136.415C152.196 136.57 152.053 136.774 151.96 137.026C151.867 137.277 151.821 137.549 151.821 137.841C151.821 138.133 151.867 138.403 151.96 138.653C152.053 138.903 152.196 139.105 152.389 139.259C152.582 139.412 152.829 139.489 153.128 139.489ZM158.126 135.636V136.205H155.865V135.636H158.126ZM156.524 134.591H157.194V138.75C157.194 138.939 157.222 139.081 157.277 139.176C157.334 139.269 157.406 139.331 157.493 139.364C157.582 139.394 157.675 139.409 157.774 139.409C157.848 139.409 157.908 139.405 157.956 139.398C158.003 139.388 158.041 139.381 158.069 139.375L158.206 139.977C158.16 139.994 158.097 140.011 158.015 140.028C157.934 140.047 157.831 140.057 157.706 140.057C157.516 140.057 157.331 140.016 157.149 139.935C156.969 139.853 156.819 139.729 156.7 139.562C156.583 139.396 156.524 139.186 156.524 138.932V134.591ZM160.519 140.102C160.242 140.102 159.991 140.05 159.766 139.946C159.541 139.84 159.362 139.688 159.229 139.489C159.096 139.288 159.03 139.045 159.03 138.761C159.03 138.511 159.079 138.309 159.178 138.153C159.276 137.996 159.408 137.873 159.573 137.784C159.738 137.695 159.919 137.629 160.118 137.585C160.319 137.54 160.521 137.504 160.723 137.477C160.989 137.443 161.203 137.418 161.368 137.401C161.535 137.382 161.656 137.35 161.732 137.307C161.81 137.263 161.848 137.187 161.848 137.08V137.057C161.848 136.777 161.772 136.559 161.618 136.403C161.467 136.248 161.237 136.17 160.928 136.17C160.608 136.17 160.357 136.241 160.175 136.381C159.993 136.521 159.865 136.67 159.792 136.83L159.155 136.602C159.269 136.337 159.42 136.131 159.61 135.983C159.801 135.833 160.009 135.729 160.235 135.67C160.462 135.61 160.685 135.58 160.905 135.58C161.045 135.58 161.206 135.597 161.388 135.631C161.572 135.663 161.749 135.73 161.919 135.832C162.092 135.935 162.235 136.089 162.348 136.295C162.462 136.502 162.519 136.778 162.519 137.125V140H161.848V139.409H161.814C161.769 139.504 161.693 139.605 161.587 139.713C161.481 139.821 161.34 139.913 161.164 139.989C160.988 140.064 160.773 140.102 160.519 140.102ZM160.621 139.5C160.886 139.5 161.11 139.448 161.292 139.344C161.475 139.24 161.614 139.105 161.706 138.94C161.801 138.776 161.848 138.602 161.848 138.42V137.807C161.82 137.841 161.757 137.872 161.661 137.901C161.566 137.927 161.456 137.951 161.331 137.972C161.208 137.991 161.088 138.008 160.971 138.023C160.855 138.036 160.761 138.047 160.689 138.057C160.515 138.08 160.352 138.116 160.201 138.168C160.051 138.217 159.93 138.292 159.837 138.392C159.746 138.491 159.701 138.625 159.701 138.795C159.701 139.028 159.787 139.205 159.959 139.324C160.133 139.441 160.354 139.5 160.621 139.5ZM164.513 134.182V140H163.843V134.182H164.513ZM168.282 140V134.182H170.248C170.702 134.182 171.075 134.259 171.367 134.415C171.659 134.568 171.875 134.779 172.015 135.048C172.155 135.317 172.225 135.623 172.225 135.966C172.225 136.309 172.155 136.613 172.015 136.878C171.875 137.143 171.66 137.351 171.37 137.503C171.08 137.652 170.71 137.727 170.259 137.727H168.668V137.091H170.236C170.547 137.091 170.797 137.045 170.986 136.955C171.178 136.864 171.316 136.735 171.401 136.568C171.488 136.4 171.532 136.199 171.532 135.966C171.532 135.733 171.488 135.529 171.401 135.355C171.314 135.181 171.175 135.046 170.984 134.952C170.792 134.855 170.539 134.807 170.225 134.807H168.986V140H168.282ZM171.021 137.386L172.452 140H171.634L170.225 137.386H171.021ZM175.191 140.091C174.77 140.091 174.408 139.998 174.103 139.812C173.8 139.625 173.566 139.364 173.401 139.028C173.238 138.691 173.157 138.299 173.157 137.852C173.157 137.405 173.238 137.011 173.401 136.67C173.566 136.328 173.795 136.061 174.089 135.869C174.384 135.676 174.729 135.58 175.123 135.58C175.35 135.58 175.574 135.617 175.796 135.693C176.018 135.769 176.219 135.892 176.401 136.062C176.583 136.231 176.728 136.455 176.836 136.733C176.944 137.011 176.998 137.354 176.998 137.761V138.045H173.634V137.466H176.316C176.316 137.22 176.267 137 176.168 136.807C176.072 136.614 175.933 136.461 175.753 136.349C175.575 136.238 175.365 136.182 175.123 136.182C174.856 136.182 174.625 136.248 174.429 136.381C174.236 136.511 174.088 136.682 173.983 136.892C173.879 137.102 173.827 137.328 173.827 137.568V137.955C173.827 138.284 173.884 138.563 173.998 138.793C174.113 139.02 174.273 139.193 174.478 139.312C174.682 139.43 174.92 139.489 175.191 139.489C175.367 139.489 175.526 139.464 175.668 139.415C175.812 139.364 175.936 139.288 176.04 139.188C176.144 139.085 176.225 138.958 176.282 138.807L176.929 138.989C176.861 139.208 176.747 139.402 176.586 139.568C176.425 139.733 176.226 139.862 175.989 139.955C175.752 140.045 175.486 140.091 175.191 140.091ZM179.89 140.091C179.481 140.091 179.129 139.994 178.833 139.801C178.538 139.608 178.311 139.342 178.152 139.003C177.993 138.664 177.913 138.277 177.913 137.841C177.913 137.398 177.994 137.007 178.157 136.668C178.322 136.327 178.551 136.061 178.845 135.869C179.14 135.676 179.485 135.58 179.879 135.58C180.186 135.58 180.462 135.636 180.708 135.75C180.955 135.864 181.156 136.023 181.314 136.227C181.471 136.432 181.568 136.67 181.606 136.943H180.936C180.885 136.744 180.771 136.568 180.595 136.415C180.421 136.259 180.186 136.182 179.89 136.182C179.629 136.182 179.4 136.25 179.203 136.386C179.008 136.521 178.855 136.711 178.745 136.957C178.637 137.202 178.583 137.489 178.583 137.818C178.583 138.155 178.636 138.449 178.743 138.699C178.85 138.949 179.002 139.143 179.197 139.281C179.394 139.42 179.625 139.489 179.89 139.489C180.065 139.489 180.223 139.458 180.365 139.398C180.507 139.337 180.627 139.25 180.725 139.136C180.824 139.023 180.894 138.886 180.936 138.727H181.606C181.568 138.985 181.475 139.217 181.325 139.423C181.177 139.628 180.981 139.791 180.737 139.912C180.494 140.031 180.212 140.091 179.89 140.091ZM184.516 140.091C184.095 140.091 183.733 139.998 183.428 139.812C183.125 139.625 182.891 139.364 182.726 139.028C182.563 138.691 182.482 138.299 182.482 137.852C182.482 137.405 182.563 137.011 182.726 136.67C182.891 136.328 183.12 136.061 183.414 135.869C183.709 135.676 184.054 135.58 184.448 135.58C184.675 135.58 184.899 135.617 185.121 135.693C185.343 135.769 185.544 135.892 185.726 136.062C185.908 136.231 186.053 136.455 186.161 136.733C186.269 137.011 186.323 137.354 186.323 137.761V138.045H182.959V137.466H185.641C185.641 137.22 185.592 137 185.493 136.807C185.397 136.614 185.258 136.461 185.078 136.349C184.9 136.238 184.69 136.182 184.448 136.182C184.181 136.182 183.95 136.248 183.754 136.381C183.561 136.511 183.413 136.682 183.308 136.892C183.204 137.102 183.152 137.328 183.152 137.568V137.955C183.152 138.284 183.209 138.563 183.323 138.793C183.438 139.02 183.598 139.193 183.803 139.312C184.007 139.43 184.245 139.489 184.516 139.489C184.692 139.489 184.851 139.464 184.993 139.415C185.137 139.364 185.261 139.288 185.365 139.188C185.469 139.085 185.55 138.958 185.607 138.807L186.254 138.989C186.186 139.208 186.072 139.402 185.911 139.568C185.75 139.733 185.551 139.862 185.314 139.955C185.077 140.045 184.811 140.091 184.516 140.091ZM187.443 140V135.636H188.113V140H187.443ZM187.783 134.909C187.653 134.909 187.54 134.865 187.445 134.776C187.353 134.687 187.306 134.58 187.306 134.455C187.306 134.33 187.353 134.223 187.445 134.134C187.54 134.045 187.653 134 187.783 134C187.914 134 188.026 134.045 188.119 134.134C188.213 134.223 188.261 134.33 188.261 134.455C188.261 134.58 188.213 134.687 188.119 134.776C188.026 134.865 187.914 134.909 187.783 134.909ZM193.009 135.636L191.396 140H190.714L189.1 135.636H189.827L191.032 139.114H191.077L192.282 135.636H193.009ZM195.145 140.102C194.869 140.102 194.618 140.05 194.393 139.946C194.167 139.84 193.988 139.688 193.856 139.489C193.723 139.288 193.657 139.045 193.657 138.761C193.657 138.511 193.706 138.309 193.804 138.153C193.903 137.996 194.035 137.873 194.199 137.784C194.364 137.695 194.546 137.629 194.745 137.585C194.946 137.54 195.147 137.504 195.35 137.477C195.615 137.443 195.83 137.418 195.995 137.401C196.161 137.382 196.283 137.35 196.358 137.307C196.436 137.263 196.475 137.187 196.475 137.08V137.057C196.475 136.777 196.398 136.559 196.245 136.403C196.093 136.248 195.863 136.17 195.554 136.17C195.234 136.17 194.983 136.241 194.802 136.381C194.62 136.521 194.492 136.67 194.418 136.83L193.782 136.602C193.895 136.337 194.047 136.131 194.236 135.983C194.428 135.833 194.636 135.729 194.861 135.67C195.089 135.61 195.312 135.58 195.532 135.58C195.672 135.58 195.833 135.597 196.015 135.631C196.198 135.663 196.375 135.73 196.546 135.832C196.718 135.935 196.861 136.089 196.975 136.295C197.089 136.502 197.145 136.778 197.145 137.125V140H196.475V139.409H196.441C196.395 139.504 196.32 139.605 196.214 139.713C196.108 139.821 195.966 139.913 195.79 139.989C195.614 140.064 195.399 140.102 195.145 140.102ZM195.248 139.5C195.513 139.5 195.736 139.448 195.918 139.344C196.102 139.24 196.24 139.105 196.333 138.94C196.428 138.776 196.475 138.602 196.475 138.42V137.807C196.447 137.841 196.384 137.872 196.287 137.901C196.193 137.927 196.083 137.951 195.958 137.972C195.835 137.991 195.715 138.008 195.597 138.023C195.482 138.036 195.388 138.047 195.316 138.057C195.142 138.08 194.979 138.116 194.827 138.168C194.678 138.217 194.556 138.292 194.464 138.392C194.373 138.491 194.327 138.625 194.327 138.795C194.327 139.028 194.413 139.205 194.586 139.324C194.76 139.441 194.981 139.5 195.248 139.5ZM198.56 140V134.182H199.23V136.33H199.287C199.337 136.254 199.405 136.157 199.492 136.04C199.581 135.92 199.708 135.814 199.873 135.722C200.039 135.627 200.265 135.58 200.549 135.58C200.916 135.58 201.24 135.671 201.52 135.855C201.801 136.039 202.019 136.299 202.176 136.636C202.334 136.973 202.412 137.371 202.412 137.83C202.412 138.292 202.334 138.692 202.176 139.031C202.019 139.368 201.801 139.63 201.523 139.815C201.245 139.999 200.924 140.091 200.56 140.091C200.28 140.091 200.055 140.045 199.887 139.952C199.718 139.857 199.588 139.75 199.498 139.631C199.407 139.509 199.337 139.409 199.287 139.33H199.208V140H198.56ZM199.219 137.818C199.219 138.148 199.267 138.438 199.364 138.69C199.461 138.94 199.602 139.136 199.787 139.278C199.973 139.419 200.2 139.489 200.469 139.489C200.749 139.489 200.983 139.415 201.171 139.267C201.36 139.117 201.502 138.917 201.597 138.665C201.694 138.411 201.742 138.129 201.742 137.818C201.742 137.511 201.694 137.235 201.6 136.989C201.507 136.741 201.366 136.545 201.176 136.401C200.989 136.255 200.753 136.182 200.469 136.182C200.196 136.182 199.967 136.251 199.782 136.389C199.596 136.526 199.456 136.717 199.361 136.963C199.266 137.207 199.219 137.492 199.219 137.818ZM204.208 134.182V140H203.538V134.182H204.208ZM207.366 140.091C206.945 140.091 206.583 139.998 206.278 139.812C205.975 139.625 205.741 139.364 205.576 139.028C205.413 138.691 205.332 138.299 205.332 137.852C205.332 137.405 205.413 137.011 205.576 136.67C205.741 136.328 205.97 136.061 206.264 135.869C206.559 135.676 206.904 135.58 207.298 135.58C207.525 135.58 207.749 135.617 207.971 135.693C208.193 135.769 208.394 135.892 208.576 136.062C208.758 136.231 208.903 136.455 209.011 136.733C209.119 137.011 209.173 137.354 209.173 137.761V138.045H205.809V137.466H208.491C208.491 137.22 208.442 137 208.343 136.807C208.247 136.614 208.108 136.461 207.928 136.349C207.75 136.238 207.54 136.182 207.298 136.182C207.031 136.182 206.8 136.248 206.604 136.381C206.411 136.511 206.263 136.682 206.158 136.892C206.054 137.102 206.002 137.328 206.002 137.568V137.955C206.002 138.284 206.059 138.563 206.173 138.793C206.288 139.02 206.448 139.193 206.653 139.312C206.857 139.43 207.095 139.489 207.366 139.489C207.542 139.489 207.701 139.464 207.843 139.415C207.987 139.364 208.111 139.288 208.215 139.188C208.319 139.085 208.4 138.958 208.457 138.807L209.104 138.989C209.036 139.208 208.922 139.402 208.761 139.568C208.6 139.733 208.401 139.862 208.164 139.955C207.927 140.045 207.661 140.091 207.366 140.091ZM213.383 136.614L212.781 136.784C212.743 136.684 212.687 136.586 212.614 136.491C212.542 136.395 212.443 136.315 212.318 136.253C212.193 136.19 212.033 136.159 211.838 136.159C211.571 136.159 211.348 136.221 211.17 136.344C210.994 136.465 210.906 136.619 210.906 136.807C210.906 136.973 210.967 137.105 211.088 137.202C211.209 137.298 211.399 137.379 211.656 137.443L212.304 137.602C212.694 137.697 212.985 137.842 213.176 138.037C213.367 138.23 213.463 138.479 213.463 138.784C213.463 139.034 213.391 139.258 213.247 139.455C213.105 139.652 212.906 139.807 212.65 139.92C212.395 140.034 212.097 140.091 211.758 140.091C211.313 140.091 210.945 139.994 210.653 139.801C210.362 139.608 210.177 139.326 210.099 138.955L210.736 138.795C210.796 139.03 210.911 139.206 211.079 139.324C211.25 139.441 211.472 139.5 211.747 139.5C212.06 139.5 212.308 139.434 212.491 139.301C212.677 139.167 212.77 139.006 212.77 138.818C212.77 138.667 212.717 138.54 212.611 138.438C212.505 138.333 212.342 138.256 212.122 138.205L211.395 138.034C210.995 137.939 210.702 137.793 210.514 137.594C210.329 137.393 210.236 137.142 210.236 136.841C210.236 136.595 210.305 136.377 210.443 136.188C210.583 135.998 210.774 135.849 211.014 135.741C211.257 135.634 211.531 135.58 211.838 135.58C212.27 135.58 212.609 135.674 212.855 135.864C213.103 136.053 213.279 136.303 213.383 136.614Z" fill="#696974"/>
<path d="M169.277 76.5569V75.5249L173.309 69.7409H174.965V75.3689H176.081V76.5569H174.965V78.3809H173.621V76.5569H169.277ZM173.681 71.1329L170.849 75.3689H173.681V71.1329ZM182.759 70.6889L179.423 78.3809H178.043L181.415 70.8329H176.975V69.6689H182.759V70.6889ZM183.714 71.7449C183.714 71.1609 183.882 70.7049 184.218 70.3769C184.562 70.0409 185.002 69.8729 185.538 69.8729C186.074 69.8729 186.51 70.0409 186.846 70.3769C187.19 70.7049 187.362 71.1609 187.362 71.7449C187.362 72.3289 187.19 72.7889 186.846 73.1249C186.51 73.4609 186.074 73.6289 185.538 73.6289C185.002 73.6289 184.562 73.4609 184.218 73.1249C183.882 72.7889 183.714 72.3289 183.714 71.7449ZM191.034 70.0289L186.246 78.3809H184.902L189.69 70.0289H191.034ZM185.538 70.7009C185.034 70.7009 184.782 71.0489 184.782 71.7449C184.782 72.4489 185.034 72.8009 185.538 72.8009C185.778 72.8009 185.962 72.7169 186.09 72.5489C186.226 72.3729 186.294 72.1049 186.294 71.7449C186.294 71.0489 186.042 70.7009 185.538 70.7009ZM188.598 76.6529C188.598 76.0689 188.766 75.6129 189.102 75.2849C189.446 74.9489 189.886 74.7809 190.422 74.7809C190.95 74.7809 191.382 74.9489 191.718 75.2849C192.062 75.6129 192.234 76.0689 192.234 76.6529C192.234 77.2369 192.062 77.6969 191.718 78.0329C191.382 78.3689 190.95 78.5369 190.422 78.5369C189.886 78.5369 189.446 78.3689 189.102 78.0329C188.766 77.6969 188.598 77.2369 188.598 76.6529ZM190.41 75.6089C189.906 75.6089 189.654 75.9569 189.654 76.6529C189.654 77.3489 189.906 77.6969 190.41 77.6969C190.914 77.6969 191.166 77.3489 191.166 76.6529C191.166 75.9569 190.914 75.6089 190.41 75.6089Z" fill="#3DD598"/>
<circle cx="180.477" cy="74.4766" r="25.4766" stroke="#ECFBF5" stroke-width="3"/>
<path d="M180.477 49C186.818 49 192.932 51.3652 197.623 55.6333C202.313 59.9014 205.243 65.7654 205.84 72.079C206.437 78.3926 204.657 84.7018 200.85 89.7732C197.042 94.8446 191.48 98.3135 185.25 99.5019" stroke="#3DD598" stroke-width="3"/>
<path d="M279.758 124V122.968C280.086 122.848 280.338 122.7 280.514 122.524C280.698 122.34 280.79 122.1 280.79 121.804V120.22H279.746V119.296H280.79V118.036C280.79 117.5 280.894 117.036 281.102 116.644C281.318 116.252 281.638 115.952 282.062 115.744C282.486 115.528 283.022 115.42 283.67 115.42C284.166 115.42 284.626 115.496 285.05 115.648C285.482 115.8 285.858 116.016 286.178 116.296L285.638 117.412C285.35 117.148 285.05 116.956 284.738 116.836C284.426 116.716 284.094 116.656 283.742 116.656C283.262 116.656 282.906 116.768 282.674 116.992C282.45 117.216 282.338 117.548 282.338 117.988V119.296H284.366V120.22H282.35V121.444C282.35 121.804 282.274 122.096 282.122 122.32C281.978 122.536 281.77 122.696 281.498 122.8V122.74H286.058V124H279.758ZM287.374 124V122.86L290.182 119.932C290.534 119.564 290.794 119.224 290.962 118.912C291.13 118.6 291.214 118.28 291.214 117.952C291.214 117.544 291.086 117.236 290.83 117.028C290.574 116.82 290.202 116.716 289.714 116.716C289.322 116.716 288.946 116.788 288.586 116.932C288.226 117.068 287.874 117.284 287.53 117.58L287.026 116.428C287.37 116.124 287.794 115.88 288.298 115.696C288.81 115.512 289.346 115.42 289.906 115.42C290.818 115.42 291.518 115.624 292.006 116.032C292.494 116.44 292.738 117.024 292.738 117.784C292.738 118.312 292.614 118.816 292.366 119.296C292.118 119.768 291.734 120.264 291.214 120.784L288.874 123.124V122.716H293.074V124H287.374ZM297.533 124.12C296.469 124.12 295.645 123.752 295.061 123.016C294.485 122.28 294.197 121.248 294.197 119.92C294.197 118.96 294.345 118.148 294.641 117.484C294.937 116.812 295.357 116.3 295.901 115.948C296.453 115.596 297.113 115.42 297.881 115.42C298.337 115.42 298.789 115.504 299.237 115.672C299.685 115.832 300.069 116.064 300.389 116.368L299.873 117.52C299.577 117.248 299.257 117.048 298.913 116.92C298.569 116.784 298.221 116.716 297.869 116.716C297.149 116.716 296.601 116.96 296.225 117.448C295.849 117.936 295.661 118.664 295.661 119.632V120.532H295.517C295.581 120.124 295.717 119.776 295.925 119.488C296.133 119.192 296.401 118.968 296.729 118.816C297.057 118.656 297.421 118.576 297.821 118.576C298.317 118.576 298.757 118.692 299.141 118.924C299.525 119.156 299.825 119.476 300.041 119.884C300.265 120.292 300.377 120.76 300.377 121.288C300.377 121.832 300.253 122.32 300.005 122.752C299.765 123.176 299.433 123.512 299.009 123.76C298.585 124 298.093 124.12 297.533 124.12ZM297.449 122.896C297.745 122.896 298.005 122.832 298.229 122.704C298.453 122.576 298.625 122.396 298.745 122.164C298.873 121.924 298.937 121.652 298.937 121.348C298.937 121.036 298.873 120.764 298.745 120.532C298.625 120.3 298.453 120.12 298.229 119.992C298.005 119.856 297.745 119.788 297.449 119.788C297.153 119.788 296.893 119.856 296.669 119.992C296.445 120.12 296.269 120.3 296.141 120.532C296.013 120.764 295.949 121.036 295.949 121.348C295.949 121.652 296.013 121.924 296.141 122.164C296.269 122.396 296.445 122.576 296.669 122.704C296.893 122.832 297.153 122.896 297.449 122.896ZM302.208 125.596L301.596 125.116C301.852 124.852 302.028 124.604 302.124 124.372C302.228 124.148 302.28 123.908 302.28 123.652L302.604 124H301.476V122.332H303.156V123.436C303.156 123.844 303.084 124.216 302.94 124.552C302.804 124.896 302.56 125.244 302.208 125.596ZM307.405 124.12C306.413 124.12 305.637 123.908 305.077 123.484C304.525 123.06 304.249 122.472 304.249 121.72C304.249 121.128 304.429 120.636 304.789 120.244C305.149 119.852 305.617 119.62 306.193 119.548V119.8C305.673 119.688 305.253 119.444 304.933 119.068C304.621 118.692 304.465 118.236 304.465 117.7C304.465 116.988 304.725 116.432 305.245 116.032C305.773 115.624 306.493 115.42 307.405 115.42C308.325 115.42 309.045 115.624 309.565 116.032C310.093 116.432 310.357 116.988 310.357 117.7C310.357 118.236 310.205 118.696 309.901 119.08C309.605 119.464 309.201 119.7 308.689 119.788V119.548C309.257 119.628 309.713 119.864 310.057 120.256C310.401 120.64 310.573 121.128 310.573 121.72C310.573 122.472 310.293 123.06 309.733 123.484C309.181 123.908 308.405 124.12 307.405 124.12ZM307.405 122.92C307.989 122.92 308.425 122.812 308.713 122.596C309.001 122.372 309.145 122.044 309.145 121.612C309.145 121.18 309.001 120.856 308.713 120.64C308.425 120.424 307.989 120.316 307.405 120.316C306.829 120.316 306.393 120.424 306.097 120.64C305.809 120.856 305.665 121.18 305.665 121.612C305.665 122.044 305.809 122.372 306.097 122.596C306.393 122.812 306.829 122.92 307.405 122.92ZM307.405 119.116C307.901 119.116 308.277 119.004 308.533 118.78C308.797 118.556 308.929 118.248 308.929 117.856C308.929 117.472 308.797 117.172 308.533 116.956C308.277 116.732 307.901 116.62 307.405 116.62C306.917 116.62 306.541 116.732 306.277 116.956C306.021 117.172 305.893 117.472 305.893 117.856C305.893 118.248 306.021 118.556 306.277 118.78C306.541 119.004 306.917 119.116 307.405 119.116ZM312.332 124V122.716H314.276V116.836H315.02L312.524 118.324V116.86L314.72 115.54H315.824V122.716H317.648V124H312.332ZM321.795 124.12C320.803 124.12 320.027 123.908 319.467 123.484C318.915 123.06 318.639 122.472 318.639 121.72C318.639 121.128 318.819 120.636 319.179 120.244C319.539 119.852 320.007 119.62 320.583 119.548V119.8C320.063 119.688 319.643 119.444 319.323 119.068C319.011 118.692 318.855 118.236 318.855 117.7C318.855 116.988 319.115 116.432 319.635 116.032C320.163 115.624 320.883 115.42 321.795 115.42C322.715 115.42 323.435 115.624 323.955 116.032C324.483 116.432 324.747 116.988 324.747 117.7C324.747 118.236 324.595 118.696 324.291 119.08C323.995 119.464 323.591 119.7 323.079 119.788V119.548C323.647 119.628 324.103 119.864 324.447 120.256C324.791 120.64 324.963 121.128 324.963 121.72C324.963 122.472 324.683 123.06 324.123 123.484C323.571 123.908 322.795 124.12 321.795 124.12ZM321.795 122.92C322.379 122.92 322.815 122.812 323.103 122.596C323.391 122.372 323.535 122.044 323.535 121.612C323.535 121.18 323.391 120.856 323.103 120.64C322.815 120.424 322.379 120.316 321.795 120.316C321.219 120.316 320.783 120.424 320.487 120.64C320.199 120.856 320.055 121.18 320.055 121.612C320.055 122.044 320.199 122.372 320.487 122.596C320.783 122.812 321.219 122.92 321.795 122.92ZM321.795 119.116C322.291 119.116 322.667 119.004 322.923 118.78C323.187 118.556 323.319 118.248 323.319 117.856C323.319 117.472 323.187 117.172 322.923 116.956C322.667 116.732 322.291 116.62 321.795 116.62C321.307 116.62 320.931 116.732 320.667 116.956C320.411 117.172 320.283 117.472 320.283 117.856C320.283 118.248 320.411 118.556 320.667 118.78C320.931 119.004 321.307 119.116 321.795 119.116ZM326.039 124V122.332H327.719V124H326.039ZM332.267 124.12C331.203 124.12 330.379 123.752 329.795 123.016C329.219 122.28 328.931 121.248 328.931 119.92C328.931 118.96 329.079 118.148 329.375 117.484C329.671 116.812 330.091 116.3 330.635 115.948C331.187 115.596 331.847 115.42 332.615 115.42C333.071 115.42 333.523 115.504 333.971 115.672C334.419 115.832 334.803 116.064 335.123 116.368L334.607 117.52C334.311 117.248 333.991 117.048 333.647 116.92C333.303 116.784 332.955 116.716 332.603 116.716C331.883 116.716 331.335 116.96 330.959 117.448C330.583 117.936 330.395 118.664 330.395 119.632V120.532H330.251C330.315 120.124 330.451 119.776 330.659 119.488C330.867 119.192 331.135 118.968 331.463 118.816C331.791 118.656 332.155 118.576 332.555 118.576C333.051 118.576 333.491 118.692 333.875 118.924C334.259 119.156 334.559 119.476 334.775 119.884C334.999 120.292 335.111 120.76 335.111 121.288C335.111 121.832 334.987 122.32 334.739 122.752C334.499 123.176 334.167 123.512 333.743 123.76C333.319 124 332.827 124.12 332.267 124.12ZM332.183 122.896C332.479 122.896 332.739 122.832 332.963 122.704C333.187 122.576 333.359 122.396 333.479 122.164C333.607 121.924 333.671 121.652 333.671 121.348C333.671 121.036 333.607 120.764 333.479 120.532C333.359 120.3 333.187 120.12 332.963 119.992C332.739 119.856 332.479 119.788 332.183 119.788C331.887 119.788 331.627 119.856 331.403 119.992C331.179 120.12 331.003 120.3 330.875 120.532C330.747 120.764 330.683 121.036 330.683 121.348C330.683 121.652 330.747 121.924 330.875 122.164C331.003 122.396 331.179 122.576 331.403 122.704C331.627 122.832 331.887 122.896 332.183 122.896ZM339.031 124.12C338.447 124.12 337.887 124.036 337.351 123.868C336.815 123.692 336.375 123.452 336.031 123.148L336.535 121.984C336.911 122.272 337.299 122.484 337.699 122.62C338.107 122.756 338.535 122.824 338.983 122.824C339.527 122.824 339.939 122.716 340.219 122.5C340.499 122.284 340.639 121.968 340.639 121.552C340.639 121.152 340.499 120.852 340.219 120.652C339.947 120.444 339.547 120.34 339.019 120.34H337.651V119.104H338.887C339.343 119.104 339.707 118.992 339.979 118.768C340.251 118.544 340.387 118.236 340.387 117.844C340.387 117.476 340.259 117.196 340.003 117.004C339.755 116.812 339.395 116.716 338.923 116.716C338.075 116.716 337.327 117.004 336.679 117.58L336.175 116.428C336.519 116.108 336.943 115.86 337.447 115.684C337.959 115.508 338.495 115.42 339.055 115.42C339.935 115.42 340.623 115.62 341.119 116.02C341.623 116.412 341.875 116.96 341.875 117.664C341.875 118.168 341.731 118.604 341.443 118.972C341.163 119.332 340.775 119.572 340.279 119.692V119.548C340.863 119.644 341.315 119.884 341.635 120.268C341.963 120.644 342.127 121.116 342.127 121.684C342.127 122.436 341.851 123.032 341.299 123.472C340.747 123.904 339.991 124.12 339.031 124.12Z" fill="#171725"/>
<path d="M281.676 137.091C281.676 137.705 281.565 138.235 281.344 138.682C281.122 139.129 280.818 139.473 280.432 139.716C280.045 139.958 279.604 140.08 279.108 140.08C278.612 140.08 278.17 139.958 277.784 139.716C277.398 139.473 277.094 139.129 276.872 138.682C276.651 138.235 276.54 137.705 276.54 137.091C276.54 136.477 276.651 135.947 276.872 135.5C277.094 135.053 277.398 134.708 277.784 134.466C278.17 134.223 278.612 134.102 279.108 134.102C279.604 134.102 280.045 134.223 280.432 134.466C280.818 134.708 281.122 135.053 281.344 135.5C281.565 135.947 281.676 136.477 281.676 137.091ZM280.994 137.091C280.994 136.587 280.91 136.162 280.741 135.815C280.575 135.469 280.348 135.206 280.062 135.028C279.778 134.85 279.46 134.761 279.108 134.761C278.756 134.761 278.437 134.85 278.151 135.028C277.866 135.206 277.64 135.469 277.472 135.815C277.305 136.162 277.222 136.587 277.222 137.091C277.222 137.595 277.305 138.02 277.472 138.366C277.64 138.713 277.866 138.975 278.151 139.153C278.437 139.331 278.756 139.42 279.108 139.42C279.46 139.42 279.778 139.331 280.062 139.153C280.348 138.975 280.575 138.713 280.741 138.366C280.91 138.02 280.994 137.595 280.994 137.091ZM286.438 135.636L284.824 140H284.143L282.529 135.636H283.256L284.461 139.114H284.506L285.711 135.636H286.438ZM289.096 140.091C288.676 140.091 288.313 139.998 288.008 139.812C287.705 139.625 287.471 139.364 287.307 139.028C287.144 138.691 287.062 138.299 287.062 137.852C287.062 137.405 287.144 137.011 287.307 136.67C287.471 136.328 287.7 136.061 287.994 135.869C288.289 135.676 288.634 135.58 289.028 135.58C289.255 135.58 289.48 135.617 289.701 135.693C289.923 135.769 290.125 135.892 290.307 136.062C290.488 136.231 290.633 136.455 290.741 136.733C290.849 137.011 290.903 137.354 290.903 137.761V138.045H287.539V137.466H290.221C290.221 137.22 290.172 137 290.074 136.807C289.977 136.614 289.839 136.461 289.659 136.349C289.481 136.238 289.271 136.182 289.028 136.182C288.761 136.182 288.53 136.248 288.335 136.381C288.142 136.511 287.993 136.682 287.889 136.892C287.785 137.102 287.733 137.328 287.733 137.568V137.955C287.733 138.284 287.789 138.563 287.903 138.793C288.019 139.02 288.179 139.193 288.383 139.312C288.588 139.43 288.825 139.489 289.096 139.489C289.272 139.489 289.432 139.464 289.574 139.415C289.718 139.364 289.842 139.288 289.946 139.188C290.05 139.085 290.13 138.958 290.187 138.807L290.835 138.989C290.767 139.208 290.652 139.402 290.491 139.568C290.33 139.733 290.131 139.862 289.895 139.955C289.658 140.045 289.392 140.091 289.096 140.091ZM292.023 140V135.636H292.671V136.295H292.716C292.796 136.08 292.94 135.904 293.148 135.77C293.356 135.635 293.591 135.568 293.853 135.568C293.902 135.568 293.963 135.569 294.037 135.571C294.111 135.573 294.167 135.576 294.205 135.58V136.261C294.182 136.256 294.13 136.247 294.049 136.236C293.969 136.223 293.885 136.216 293.796 136.216C293.584 136.216 293.394 136.26 293.228 136.349C293.063 136.437 292.932 136.558 292.836 136.713C292.741 136.866 292.693 137.042 292.693 137.239V140H292.023ZM296.614 140.091C296.251 140.091 295.93 139.999 295.651 139.815C295.373 139.63 295.155 139.368 294.998 139.031C294.841 138.692 294.762 138.292 294.762 137.83C294.762 137.371 294.841 136.973 294.998 136.636C295.155 136.299 295.374 136.039 295.654 135.855C295.935 135.671 296.258 135.58 296.626 135.58C296.91 135.58 297.134 135.627 297.299 135.722C297.466 135.814 297.593 135.92 297.68 136.04C297.769 136.157 297.838 136.254 297.887 136.33H297.944V134.182H298.614V140H297.967V139.33H297.887C297.838 139.409 297.768 139.509 297.677 139.631C297.586 139.75 297.456 139.857 297.288 139.952C297.119 140.045 296.895 140.091 296.614 140.091ZM296.705 139.489C296.974 139.489 297.202 139.419 297.387 139.278C297.573 139.136 297.714 138.94 297.811 138.69C297.907 138.438 297.955 138.148 297.955 137.818C297.955 137.492 297.908 137.207 297.813 136.963C297.719 136.717 297.579 136.526 297.393 136.389C297.207 136.251 296.978 136.182 296.705 136.182C296.421 136.182 296.185 136.255 295.995 136.401C295.808 136.545 295.667 136.741 295.572 136.989C295.479 137.235 295.433 137.511 295.433 137.818C295.433 138.129 295.48 138.411 295.575 138.665C295.671 138.917 295.813 139.117 296.001 139.267C296.19 139.415 296.425 139.489 296.705 139.489ZM302.786 138.216V135.636H303.456V140H302.786V139.261H302.74C302.638 139.483 302.479 139.671 302.263 139.827C302.047 139.98 301.774 140.057 301.445 140.057C301.172 140.057 300.929 139.997 300.717 139.878C300.505 139.757 300.339 139.575 300.217 139.332C300.096 139.088 300.036 138.78 300.036 138.409V135.636H300.706V138.364C300.706 138.682 300.795 138.936 300.973 139.125C301.153 139.314 301.382 139.409 301.661 139.409C301.827 139.409 301.997 139.366 302.169 139.281C302.343 139.196 302.489 139.065 302.607 138.889C302.726 138.713 302.786 138.489 302.786 138.216ZM306.613 140.091C306.193 140.091 305.83 139.998 305.525 139.812C305.222 139.625 304.988 139.364 304.824 139.028C304.661 138.691 304.579 138.299 304.579 137.852C304.579 137.405 304.661 137.011 304.824 136.67C304.988 136.328 305.218 136.061 305.511 135.869C305.807 135.676 306.151 135.58 306.545 135.58C306.773 135.58 306.997 135.617 307.219 135.693C307.44 135.769 307.642 135.892 307.824 136.062C308.006 136.231 308.15 136.455 308.258 136.733C308.366 137.011 308.42 137.354 308.42 137.761V138.045H305.057V137.466H307.738C307.738 137.22 307.689 137 307.591 136.807C307.494 136.614 307.356 136.461 307.176 136.349C306.998 136.238 306.788 136.182 306.545 136.182C306.278 136.182 306.047 136.248 305.852 136.381C305.659 136.511 305.51 136.682 305.406 136.892C305.302 137.102 305.25 137.328 305.25 137.568V137.955C305.25 138.284 305.307 138.563 305.42 138.793C305.536 139.02 305.696 139.193 305.9 139.312C306.105 139.43 306.343 139.489 306.613 139.489C306.79 139.489 306.949 139.464 307.091 139.415C307.235 139.364 307.359 139.288 307.463 139.188C307.567 139.085 307.648 138.958 307.704 138.807L308.352 138.989C308.284 139.208 308.169 139.402 308.008 139.568C307.847 139.733 307.649 139.862 307.412 139.955C307.175 140.045 306.909 140.091 306.613 140.091ZM311.981 140V134.182H313.947C314.403 134.182 314.777 134.264 315.066 134.429C315.358 134.592 315.574 134.812 315.714 135.091C315.854 135.369 315.924 135.68 315.924 136.023C315.924 136.366 315.854 136.677 315.714 136.957C315.576 137.238 315.362 137.461 315.072 137.628C314.782 137.793 314.411 137.875 313.958 137.875H312.549V137.25H313.936C314.248 137.25 314.499 137.196 314.688 137.088C314.878 136.98 315.015 136.834 315.1 136.651C315.188 136.465 315.231 136.256 315.231 136.023C315.231 135.79 315.188 135.581 315.1 135.398C315.015 135.214 314.877 135.07 314.686 134.966C314.494 134.86 314.241 134.807 313.924 134.807H312.686V140H311.981ZM318.352 140.102C318.076 140.102 317.825 140.05 317.6 139.946C317.374 139.84 317.195 139.688 317.063 139.489C316.93 139.288 316.864 139.045 316.864 138.761C316.864 138.511 316.913 138.309 317.012 138.153C317.11 137.996 317.242 137.873 317.406 137.784C317.571 137.695 317.753 137.629 317.952 137.585C318.153 137.54 318.354 137.504 318.557 137.477C318.822 137.443 319.037 137.418 319.202 137.401C319.369 137.382 319.49 137.35 319.565 137.307C319.643 137.263 319.682 137.187 319.682 137.08V137.057C319.682 136.777 319.605 136.559 319.452 136.403C319.3 136.248 319.07 136.17 318.762 136.17C318.441 136.17 318.19 136.241 318.009 136.381C317.827 136.521 317.699 136.67 317.625 136.83L316.989 136.602C317.102 136.337 317.254 136.131 317.443 135.983C317.635 135.833 317.843 135.729 318.068 135.67C318.296 135.61 318.519 135.58 318.739 135.58C318.879 135.58 319.04 135.597 319.222 135.631C319.405 135.663 319.583 135.73 319.753 135.832C319.925 135.935 320.068 136.089 320.182 136.295C320.296 136.502 320.352 136.778 320.352 137.125V140H319.682V139.409H319.648C319.602 139.504 319.527 139.605 319.421 139.713C319.315 139.821 319.173 139.913 318.997 139.989C318.821 140.064 318.606 140.102 318.352 140.102ZM318.455 139.5C318.72 139.5 318.943 139.448 319.125 139.344C319.309 139.24 319.447 139.105 319.54 138.94C319.635 138.776 319.682 138.602 319.682 138.42V137.807C319.654 137.841 319.591 137.872 319.494 137.901C319.4 137.927 319.29 137.951 319.165 137.972C319.042 137.991 318.922 138.008 318.804 138.023C318.689 138.036 318.595 138.047 318.523 138.057C318.349 138.08 318.186 138.116 318.034 138.168C317.885 138.217 317.763 138.292 317.671 138.392C317.58 138.491 317.534 138.625 317.534 138.795C317.534 139.028 317.62 139.205 317.793 139.324C317.967 139.441 318.188 139.5 318.455 139.5ZM321.952 141.636C321.838 141.636 321.737 141.627 321.648 141.608C321.559 141.591 321.497 141.574 321.463 141.557L321.634 140.966C321.796 141.008 321.94 141.023 322.065 141.011C322.19 141 322.301 140.944 322.398 140.844C322.496 140.745 322.586 140.585 322.668 140.364L322.793 140.023L321.179 135.636H321.906L323.111 139.114H323.156L324.361 135.636H325.088L323.236 140.636C323.152 140.862 323.049 141.048 322.926 141.196C322.803 141.346 322.66 141.456 322.497 141.528C322.336 141.6 322.154 141.636 321.952 141.636ZM327.224 140.102C326.948 140.102 326.697 140.05 326.471 139.946C326.246 139.84 326.067 139.688 325.935 139.489C325.802 139.288 325.736 139.045 325.736 138.761C325.736 138.511 325.785 138.309 325.883 138.153C325.982 137.996 326.113 137.873 326.278 137.784C326.443 137.695 326.625 137.629 326.824 137.585C327.024 137.54 327.226 137.504 327.429 137.477C327.694 137.443 327.909 137.418 328.074 137.401C328.24 137.382 328.362 137.35 328.437 137.307C328.515 137.263 328.554 137.187 328.554 137.08V137.057C328.554 136.777 328.477 136.559 328.324 136.403C328.172 136.248 327.942 136.17 327.633 136.17C327.313 136.17 327.062 136.241 326.881 136.381C326.699 136.521 326.571 136.67 326.497 136.83L325.861 136.602C325.974 136.337 326.126 136.131 326.315 135.983C326.506 135.833 326.715 135.729 326.94 135.67C327.167 135.61 327.391 135.58 327.611 135.58C327.751 135.58 327.912 135.597 328.094 135.631C328.277 135.663 328.454 135.73 328.625 135.832C328.797 135.935 328.94 136.089 329.054 136.295C329.167 136.502 329.224 136.778 329.224 137.125V140H328.554V139.409H328.52C328.474 139.504 328.399 139.605 328.292 139.713C328.186 139.821 328.045 139.913 327.869 139.989C327.693 140.064 327.478 140.102 327.224 140.102ZM327.327 139.5C327.592 139.5 327.815 139.448 327.997 139.344C328.181 139.24 328.319 139.105 328.412 138.94C328.506 138.776 328.554 138.602 328.554 138.42V137.807C328.525 137.841 328.463 137.872 328.366 137.901C328.272 137.927 328.162 137.951 328.037 137.972C327.914 137.991 327.793 138.008 327.676 138.023C327.56 138.036 327.467 138.047 327.395 138.057C327.221 138.08 327.058 138.116 326.906 138.168C326.756 138.217 326.635 138.292 326.542 138.392C326.452 138.491 326.406 138.625 326.406 138.795C326.406 139.028 326.492 139.205 326.665 139.324C326.839 139.441 327.06 139.5 327.327 139.5ZM330.639 140V134.182H331.309V136.33H331.366C331.415 136.254 331.484 136.157 331.571 136.04C331.66 135.92 331.787 135.814 331.951 135.722C332.118 135.627 332.343 135.58 332.628 135.58C332.995 135.58 333.319 135.671 333.599 135.855C333.879 136.039 334.098 136.299 334.255 136.636C334.413 136.973 334.491 137.371 334.491 137.83C334.491 138.292 334.413 138.692 334.255 139.031C334.098 139.368 333.88 139.63 333.602 139.815C333.324 139.999 333.003 140.091 332.639 140.091C332.359 140.091 332.134 140.045 331.966 139.952C331.797 139.857 331.667 139.75 331.576 139.631C331.486 139.509 331.415 139.409 331.366 139.33H331.287V140H330.639ZM331.298 137.818C331.298 138.148 331.346 138.438 331.443 138.69C331.539 138.94 331.681 139.136 331.866 139.278C332.052 139.419 332.279 139.489 332.548 139.489C332.828 139.489 333.062 139.415 333.25 139.267C333.439 139.117 333.581 138.917 333.676 138.665C333.772 138.411 333.821 138.129 333.821 137.818C333.821 137.511 333.773 137.235 333.679 136.989C333.586 136.741 333.445 136.545 333.255 136.401C333.068 136.255 332.832 136.182 332.548 136.182C332.275 136.182 332.046 136.251 331.861 136.389C331.675 136.526 331.535 136.717 331.44 136.963C331.345 137.207 331.298 137.492 331.298 137.818ZM336.287 134.182V140H335.617V134.182H336.287ZM339.445 140.091C339.024 140.091 338.662 139.998 338.357 139.812C338.054 139.625 337.82 139.364 337.655 139.028C337.492 138.691 337.411 138.299 337.411 137.852C337.411 137.405 337.492 137.011 337.655 136.67C337.82 136.328 338.049 136.061 338.342 135.869C338.638 135.676 338.983 135.58 339.377 135.58C339.604 135.58 339.828 135.617 340.05 135.693C340.271 135.769 340.473 135.892 340.655 136.062C340.837 136.231 340.982 136.455 341.09 136.733C341.198 137.011 341.252 137.354 341.252 137.761V138.045H337.888V137.466H340.57C340.57 137.22 340.521 137 340.422 136.807C340.325 136.614 340.187 136.461 340.007 136.349C339.829 136.238 339.619 136.182 339.377 136.182C339.11 136.182 338.878 136.248 338.683 136.381C338.49 136.511 338.342 136.682 338.237 136.892C338.133 137.102 338.081 137.328 338.081 137.568V137.955C338.081 138.284 338.138 138.563 338.252 138.793C338.367 139.02 338.527 139.193 338.732 139.312C338.936 139.43 339.174 139.489 339.445 139.489C339.621 139.489 339.78 139.464 339.922 139.415C340.066 139.364 340.19 139.288 340.294 139.188C340.398 139.085 340.479 138.958 340.536 138.807L341.183 138.989C341.115 139.208 341.001 139.402 340.84 139.568C340.679 139.733 340.48 139.862 340.243 139.955C340.006 140.045 339.74 140.091 339.445 140.091ZM345.462 136.614L344.86 136.784C344.822 136.684 344.766 136.586 344.692 136.491C344.621 136.395 344.522 136.315 344.397 136.253C344.272 136.19 344.112 136.159 343.917 136.159C343.65 136.159 343.427 136.221 343.249 136.344C343.073 136.465 342.985 136.619 342.985 136.807C342.985 136.973 343.046 137.105 343.167 137.202C343.288 137.298 343.478 137.379 343.735 137.443L344.383 137.602C344.773 137.697 345.064 137.842 345.255 138.037C345.446 138.23 345.542 138.479 345.542 138.784C345.542 139.034 345.47 139.258 345.326 139.455C345.184 139.652 344.985 139.807 344.729 139.92C344.474 140.034 344.176 140.091 343.837 140.091C343.392 140.091 343.024 139.994 342.732 139.801C342.441 139.608 342.256 139.326 342.178 138.955L342.815 138.795C342.875 139.03 342.99 139.206 343.158 139.324C343.329 139.441 343.551 139.5 343.826 139.5C344.138 139.5 344.387 139.434 344.57 139.301C344.756 139.167 344.849 139.006 344.849 138.818C344.849 138.667 344.796 138.54 344.69 138.438C344.584 138.333 344.421 138.256 344.201 138.205L343.474 138.034C343.074 137.939 342.781 137.793 342.593 137.594C342.407 137.393 342.315 137.142 342.315 136.841C342.315 136.595 342.384 136.377 342.522 136.188C342.662 135.998 342.853 135.849 343.093 135.741C343.335 135.634 343.61 135.58 343.917 135.58C344.349 135.58 344.688 135.674 344.934 135.864C345.182 136.053 345.358 136.303 345.462 136.614Z" fill="#696974"/>
<path d="M300.277 76.5569V75.5249L304.309 69.7409H305.965V75.3689H307.081V76.5569H305.965V78.3809H304.621V76.5569H300.277ZM304.681 71.1329L301.849 75.3689H304.681V71.1329ZM313.759 70.6889L310.423 78.3809H309.043L312.415 70.8329H307.975V69.6689H313.759V70.6889ZM314.714 71.7449C314.714 71.1609 314.882 70.7049 315.218 70.3769C315.562 70.0409 316.002 69.8729 316.538 69.8729C317.074 69.8729 317.51 70.0409 317.846 70.3769C318.19 70.7049 318.362 71.1609 318.362 71.7449C318.362 72.3289 318.19 72.7889 317.846 73.1249C317.51 73.4609 317.074 73.6289 316.538 73.6289C316.002 73.6289 315.562 73.4609 315.218 73.1249C314.882 72.7889 314.714 72.3289 314.714 71.7449ZM322.034 70.0289L317.246 78.3809H315.902L320.69 70.0289H322.034ZM316.538 70.7009C316.034 70.7009 315.782 71.0489 315.782 71.7449C315.782 72.4489 316.034 72.8009 316.538 72.8009C316.778 72.8009 316.962 72.7169 317.09 72.5489C317.226 72.3729 317.294 72.1049 317.294 71.7449C317.294 71.0489 317.042 70.7009 316.538 70.7009ZM319.598 76.6529C319.598 76.0689 319.766 75.6129 320.102 75.2849C320.446 74.9489 320.886 74.7809 321.422 74.7809C321.95 74.7809 322.382 74.9489 322.718 75.2849C323.062 75.6129 323.234 76.0689 323.234 76.6529C323.234 77.2369 323.062 77.6969 322.718 78.0329C322.382 78.3689 321.95 78.5369 321.422 78.5369C320.886 78.5369 320.446 78.3689 320.102 78.0329C319.766 77.6969 319.598 77.2369 319.598 76.6529ZM321.41 75.6089C320.906 75.6089 320.654 75.9569 320.654 76.6529C320.654 77.3489 320.906 77.6969 321.41 77.6969C321.914 77.6969 322.166 77.3489 322.166 76.6529C322.166 75.9569 321.914 75.6089 321.41 75.6089Z" fill="#FF9CA9"/>
<circle cx="311.477" cy="74.4766" r="25.4766" stroke="#FFC9C8" stroke-opacity="0.27" stroke-width="3"/>
<path d="M311.477 49C317.818 49 323.932 51.3652 328.623 55.6333C333.313 59.9014 336.243 65.7654 336.84 72.079C337.437 78.3926 335.657 84.7018 331.85 89.7732C328.042 94.8446 322.48 98.3135 316.25 99.5019" stroke="#FF9CA9" stroke-width="3"/>
<path d="M340.003 22.5017C340.004 22.7983 340.092 23.0881 340.257 23.3346C340.422 23.581 340.656 23.773 340.93 23.8863C341.205 23.9995 341.506 24.0291 341.797 23.971C342.088 23.9129 342.355 23.7699 342.565 23.5601C342.774 23.3502 342.917 23.083 342.975 22.792C343.032 22.5011 343.003 22.1996 342.889 21.9256C342.775 21.6516 342.583 21.4175 342.337 21.2527C342.09 21.088 341.8 21 341.503 21C341.106 21.0012 340.725 21.1598 340.443 21.4412C340.162 21.7227 340.004 22.1039 340.003 22.5017V22.5017Z" fill="#010101"/>
<path d="M340.003 14.5017C340.004 14.7983 340.092 15.0881 340.257 15.3346C340.422 15.581 340.656 15.773 340.93 15.8863C341.205 15.9995 341.506 16.0291 341.797 15.971C342.088 15.9129 342.355 15.7699 342.565 15.5601C342.774 15.3502 342.917 15.083 342.975 14.792C343.032 14.5011 343.003 14.1996 342.889 13.9256C342.775 13.6516 342.583 13.4175 342.337 13.2527C342.09 13.088 341.8 13 341.503 13C341.106 13.0012 340.725 13.1598 340.443 13.4412C340.162 13.7227 340.004 14.1039 340.003 14.5017V14.5017Z" fill="#010101"/>
<path d="M341.502 20C341.205 20.0003 340.915 19.9126 340.668 19.748C340.421 19.5834 340.228 19.3492 340.115 19.0752C340.001 18.8011 339.971 18.4995 340.029 18.2084C340.086 17.9173 340.229 17.6499 340.439 17.4399C340.648 17.23 340.916 17.087 341.207 17.0289C341.498 16.9709 341.799 17.0006 342.074 17.114C342.348 17.2275 342.582 17.4198 342.747 17.6665C342.912 17.9132 343 18.2033 343 18.5C342.999 18.8973 342.841 19.2782 342.56 19.5592C342.28 19.8403 341.899 19.9988 341.502 20V20Z" fill="#010101"/>
</svg>
