<svg width="530" height="251" viewBox="0 0 530 251" fill="none" xmlns="http://www.w3.org/2000/svg">
<g clip-path="url(#clip0_3769_1100)">
<mask id="mask0_3769_1100" style="mask-type:luminance" maskUnits="userSpaceOnUse" x="0" y="0" width="530" height="251">
<path d="M530 0H0V251H530V0Z" fill="white"/>
</mask>
<g mask="url(#mask0_3769_1100)">
<path d="M530 0H0V251H530V0Z" fill="#F1F3F5"/>
<path d="M520.209 0H9.79064C4.38342 0 0 4.36026 0 9.73892V240.876C0 246.254 4.38342 250.615 9.79064 250.615H520.209C525.617 250.615 530 246.254 530 240.876V9.73892C530 4.36026 525.617 0 520.209 0Z" fill="#FEFEFE"/>
<path d="M496.739 26.8555C496.395 26.8558 496.058 26.9577 495.772 27.1483C495.486 27.3388 495.264 27.6093 495.132 27.9258C495.001 28.2422 494.966 28.5903 495.034 28.926C495.101 29.2618 495.267 29.5702 495.511 29.8121C495.754 30.0541 496.064 30.2189 496.402 30.2855C496.74 30.3522 497.089 30.3178 497.407 30.1866C497.725 30.0555 497.997 29.8336 498.188 29.5489C498.38 29.2641 498.482 28.9294 498.482 28.587C498.48 28.1279 498.296 27.688 497.97 27.3634C497.643 27.039 497.2 26.8564 496.739 26.8555Z" fill="#010101"/>
<path d="M506.96 26.8555C506.616 26.8558 506.28 26.9577 505.994 27.1483C505.708 27.3388 505.485 27.6093 505.353 27.9258C505.222 28.2422 505.188 28.5903 505.255 28.926C505.322 29.2618 505.488 29.5702 505.732 29.8121C505.975 30.0541 506.286 30.2189 506.623 30.2855C506.961 30.3522 507.311 30.3178 507.629 30.1866C507.947 30.0555 508.218 29.8336 508.41 29.5489C508.601 29.2641 508.703 28.9294 508.703 28.587C508.701 28.1279 508.517 27.688 508.191 27.3634C507.864 27.039 507.422 26.8564 506.96 26.8555Z" fill="#010101"/>
<path d="M500.107 28.5871C500.106 28.2441 500.208 27.9088 500.4 27.6234C500.591 27.3381 500.863 27.1157 501.181 26.9841C501.5 26.8526 501.85 26.818 502.188 26.8846C502.526 26.9513 502.837 27.1162 503.081 27.3586C503.325 27.601 503.491 27.9099 503.559 28.2462C503.626 28.5825 503.592 28.9311 503.46 29.2481C503.328 29.5649 503.105 29.8358 502.818 30.0263C502.531 30.217 502.194 30.3186 501.85 30.3186C501.388 30.3178 500.945 30.1351 500.619 29.8107C500.292 29.4861 500.108 29.0463 500.107 28.5871Z" fill="#010101"/>
<path d="M27.3672 23.3582C26.8203 23.3582 26.3307 23.4738 25.8984 23.7048C25.4714 23.9358 25.1094 24.2703 24.8125 24.7081C24.5156 25.1398 24.2891 25.6658 24.1328 26.2859C23.9766 26.9001 23.8984 27.5932 23.8984 28.3655C23.8984 29.3991 24.0234 30.2899 24.2734 31.0377C24.5234 31.7796 24.9036 32.3511 25.4141 32.7525C25.9245 33.1477 26.5703 33.3453 27.3516 33.3453C27.8359 33.3453 28.3073 33.2906 28.7656 33.1812C29.224 33.0717 29.6979 32.9227 30.1875 32.7343V34.5948C29.724 34.8076 29.2552 34.9627 28.7812 35.0599C28.3073 35.1573 27.7604 35.2059 27.1406 35.2059C25.974 35.2059 25.0052 34.9232 24.2344 34.3577C23.4688 33.7922 22.8958 32.9957 22.5156 31.9681C22.1406 30.9405 21.9531 29.7366 21.9531 28.3564C21.9531 27.347 22.0729 26.4227 22.3125 25.5837C22.5521 24.7445 22.901 24.0209 23.3594 23.4129C23.8177 22.7988 24.3828 22.3276 25.0547 21.9993C25.7318 21.6648 26.5052 21.4976 27.375 21.4976C27.9479 21.4976 28.5104 21.5736 29.0625 21.7256C29.6198 21.8716 30.1354 22.0814 30.6094 22.3549L29.9531 24.1608C29.5573 23.9419 29.1432 23.7535 28.7109 23.5953C28.2786 23.4372 27.8307 23.3582 27.3672 23.3582ZM35.8438 24.7354C36.9375 24.7354 37.763 25.0182 38.3203 25.5837C38.8828 26.1491 39.1641 27.0307 39.1641 28.2286V35.0235H37.8594L37.5078 33.5915H37.4453C37.2005 33.9563 36.9479 34.2574 36.6875 34.4945C36.4271 34.7316 36.125 34.9079 35.7812 35.0235C35.4427 35.1452 35.0286 35.2059 34.5391 35.2059C34.0234 35.2059 33.5625 35.0965 33.1562 34.8776C32.75 34.6526 32.4297 34.3121 32.1953 33.8561C31.9609 33.4001 31.8438 32.8224 31.8438 32.1231C31.8438 31.0834 32.1745 30.302 32.8359 29.7791C33.5026 29.2562 34.5078 28.9674 35.8516 28.9126L37.3516 28.8488V28.3198C37.3516 27.6206 37.2109 27.122 36.9297 26.8241C36.6536 26.5262 36.263 26.3772 35.7578 26.3772C35.3255 26.3772 34.9062 26.45 34.5 26.596C34.0938 26.7419 33.6979 26.9213 33.3125 27.1342L32.7188 25.6201C33.1406 25.3587 33.6198 25.1459 34.1562 24.9816C34.6979 24.8175 35.2604 24.7354 35.8438 24.7354ZM37.3438 30.1987L36.2266 30.2442C35.3099 30.2808 34.6667 30.4632 34.2969 30.7915C33.9271 31.1198 33.7422 31.5699 33.7422 32.1413C33.7422 32.6399 33.8698 33.0048 34.125 33.2359C34.3802 33.4609 34.7161 33.5733 35.1328 33.5733C35.7682 33.5733 36.2943 33.3635 36.7109 32.9441C37.1328 32.5184 37.3438 31.8951 37.3438 31.0743V30.1987ZM47.5469 32.1413C47.5469 32.8042 47.4089 33.3635 47.1328 33.8196C46.8568 34.2756 46.4531 34.6221 45.9219 34.8594C45.3958 35.0904 44.75 35.2059 43.9844 35.2059C43.3802 35.2059 42.8594 35.1543 42.4219 35.0508C41.9896 34.9536 41.5807 34.8016 41.1953 34.5948V32.7434C41.6068 32.9683 42.0677 33.1628 42.5781 33.3271C43.0938 33.4912 43.5807 33.5733 44.0391 33.5733C44.6432 33.5733 45.0781 33.4639 45.3438 33.245C45.6094 33.0201 45.7422 32.722 45.7422 32.3511C45.7422 32.1322 45.6875 31.9377 45.5781 31.7674C45.474 31.5911 45.276 31.4117 44.9844 31.2293C44.6979 31.0408 44.276 30.8158 43.7188 30.5544C43.1719 30.299 42.7109 30.0437 42.3359 29.7882C41.9609 29.5329 41.6771 29.2259 41.4844 28.8671C41.2917 28.5023 41.1953 28.0371 41.1953 27.4716C41.1953 26.5778 41.4974 25.8998 42.1016 25.4378C42.7109 24.9695 43.5156 24.7354 44.5156 24.7354C45.0469 24.7354 45.5469 24.7993 46.0156 24.927C46.4896 25.0485 46.9531 25.228 47.4062 25.4651L46.8281 27.0794C46.4375 26.8787 46.0443 26.7146 45.6484 26.5869C45.2578 26.4532 44.8594 26.3863 44.4531 26.3863C43.9792 26.3863 43.6172 26.4714 43.3672 26.6416C43.1224 26.8118 43 27.0551 43 27.3713C43 27.6084 43.0599 27.8091 43.1797 27.9732C43.2995 28.1375 43.5052 28.3016 43.7969 28.4657C44.0938 28.6299 44.5052 28.8336 45.0312 29.0768C45.5469 29.3079 45.9922 29.5511 46.3672 29.8064C46.7474 30.0558 47.0391 30.3628 47.2422 30.7277C47.4453 31.0925 47.5469 31.5638 47.5469 32.1413ZM51.3672 20.8318V24.3979C51.3672 24.7688 51.3568 25.1306 51.3359 25.4833C51.3203 25.836 51.3021 26.1096 51.2812 26.3041H51.3828C51.5651 25.9515 51.7891 25.6627 52.0547 25.4378C52.3203 25.2066 52.6172 25.0334 52.9453 24.9179C53.2786 24.8023 53.6328 24.7445 54.0078 24.7445C54.6693 24.7445 55.2318 24.8753 55.6953 25.1367C56.1589 25.3921 56.513 25.7903 56.7578 26.3315C57.0078 26.8727 57.1328 27.575 57.1328 28.4384V35.0235H55.2969V28.8397C55.2969 28.0553 55.1589 27.4685 54.8828 27.0794C54.6068 26.6842 54.1797 26.4866 53.6016 26.4866C53.0443 26.4866 52.6016 26.6234 52.2734 26.8971C51.9505 27.1645 51.7188 27.5628 51.5781 28.0918C51.4375 28.6147 51.3672 29.2532 51.3672 30.0071V35.0235H49.5312V20.8318H51.3672ZM68.1797 26.5595H66.0781V35.0235H64.2422V26.5595H62.8281V25.5289L64.2422 24.8996V24.1973C64.2422 23.34 64.3568 22.659 64.5859 22.1543C64.8203 21.6496 65.1536 21.2878 65.5859 21.069C66.0234 20.844 66.5443 20.7314 67.1484 20.7314C67.5443 20.7314 67.9062 20.771 68.2344 20.8501C68.5625 20.923 68.8385 21.0081 69.0625 21.1054L68.5859 22.7289C68.4089 22.662 68.2109 22.6012 67.9922 22.5465C67.7734 22.4856 67.5391 22.4553 67.2891 22.4553C66.8724 22.4553 66.5651 22.6073 66.3672 22.9113C66.1745 23.2153 66.0781 23.6592 66.0781 24.2429V24.927H68.1797V26.5595ZM71.4922 35.0235H69.6484V20.8318H71.4922V35.0235ZM81.7656 29.9524C81.7656 30.7915 81.6719 31.5364 81.4844 32.187C81.2969 32.8376 81.0234 33.3879 80.6641 33.8378C80.3047 34.2817 79.8724 34.6221 79.3672 34.8594C78.862 35.0904 78.2917 35.2059 77.6562 35.2059C77.0625 35.2059 76.5182 35.0904 76.0234 34.8594C75.5286 34.6221 75.099 34.2817 74.7344 33.8378C74.375 33.3879 74.0964 32.8376 73.8984 32.187C73.7005 31.5364 73.6016 30.7915 73.6016 29.9524C73.6016 28.8397 73.7656 27.8972 74.0938 27.1251C74.4271 26.3467 74.901 25.7539 75.5156 25.3465C76.1302 24.9391 76.862 24.7354 77.7109 24.7354C78.5078 24.7354 79.2109 24.9391 79.8203 25.3465C80.4297 25.7539 80.9062 26.3467 81.25 27.1251C81.5938 27.9033 81.7656 28.8458 81.7656 29.9524ZM75.4922 29.9524C75.4922 30.6882 75.5677 31.3175 75.7188 31.8404C75.875 32.3634 76.1146 32.7646 76.4375 33.0443C76.7604 33.318 77.1771 33.4547 77.6875 33.4547C78.1979 33.4547 78.6146 33.318 78.9375 33.0443C79.2604 32.7646 79.4974 32.3634 79.6484 31.8404C79.7995 31.3175 79.875 30.6882 79.875 29.9524C79.875 29.2166 79.7995 28.5935 79.6484 28.0827C79.4974 27.5659 79.2604 27.1736 78.9375 26.9062C78.6146 26.6325 78.1953 26.4957 77.6797 26.4957C76.9193 26.4957 76.3646 26.7936 76.0156 27.3895C75.6667 27.9855 75.4922 28.8397 75.4922 29.9524ZM90.9453 35.0144L89.8516 30.3173C89.7995 30.0862 89.737 29.8064 89.6641 29.4782C89.5911 29.1499 89.5182 28.8124 89.4453 28.4657C89.3724 28.1131 89.3047 27.7878 89.2422 27.4899C89.1849 27.192 89.1406 26.9609 89.1094 26.7967H89.0469C89.0208 26.9609 88.9792 27.192 88.9219 27.4899C88.8646 27.7878 88.7995 28.1131 88.7266 28.4657C88.6536 28.8184 88.5807 29.162 88.5078 29.4964C88.4401 29.8308 88.3776 30.1166 88.3203 30.3537L87.1719 35.0144H85.1562L82.7344 24.9179H84.5938L85.7188 29.9342C85.7917 30.2747 85.862 30.6426 85.9297 31.0377C86.0026 31.433 86.0651 31.81 86.1172 32.1688C86.1693 32.5275 86.2083 32.8224 86.2344 33.0534H86.2969C86.3177 32.8893 86.3464 32.6825 86.3828 32.4332C86.4193 32.1779 86.4609 31.9133 86.5078 31.6398C86.5547 31.3601 86.6016 31.0986 86.6484 30.8554C86.6953 30.606 86.7396 30.4055 86.7812 30.2535L88.1094 24.9179H90.1172L91.3906 30.2535C91.4479 30.4845 91.5104 30.7764 91.5781 31.129C91.6458 31.4755 91.7057 31.8252 91.7578 32.1779C91.8151 32.5245 91.8516 32.8133 91.8672 33.0443H91.9297C91.9505 32.8376 91.987 32.5579 92.0391 32.2052C92.0964 31.8464 92.1615 31.4664 92.2344 31.0652C92.3073 30.6577 92.3828 30.2808 92.4609 29.9342L93.6094 24.9179H95.4375L93 35.0144H90.9453Z" fill="#1E1E1E"/>
<path d="M59.0322 75.0625H500.628" stroke="#F1F5F8" stroke-dasharray="6 6"/>
<path d="M59.0322 108.841H500.628" stroke="#F1F5F8" stroke-dasharray="6 6"/>
<path d="M59.0322 142.697H500.628" stroke="#F1F5F8" stroke-dasharray="6 6"/>
<path d="M59.0322 176.555H500.628" stroke="#F1F5F8" stroke-dasharray="6 6"/>
<path d="M59.0322 210.354H500.628" stroke="#F1F5F8" stroke-dasharray="6 6"/>
<path d="M58.6519 230.479C58.4015 230.491 58.1515 230.447 57.9209 230.349V229.635C58.1589 229.7 58.4049 229.734 58.6519 229.733C58.7897 229.742 58.9278 229.721 59.0561 229.67C59.1844 229.618 59.2994 229.54 59.3927 229.438C59.5792 229.196 59.6706 228.893 59.6499 228.589V221.405H60.4893V228.518C60.523 229.043 60.3534 229.56 60.0154 229.963C59.8385 230.141 59.6253 230.279 59.39 230.368C59.1548 230.458 58.903 230.495 58.6519 230.479ZM65.6157 228.587L65.4525 227.82H65.4133C65.2013 228.11 64.9235 228.346 64.6027 228.509C64.2846 228.636 63.9434 228.696 63.6008 228.685C63.142 228.712 62.6902 228.565 62.3364 228.273C62.1798 228.122 62.0579 227.938 61.979 227.736C61.9001 227.533 61.8662 227.316 61.8796 227.099C61.8796 226.012 62.7535 225.442 64.5015 225.39L65.4198 225.359V225.027C65.4481 224.692 65.3497 224.359 65.1438 224.093C65.0286 223.983 64.8909 223.899 64.7401 223.846C64.5894 223.794 64.4289 223.774 64.2698 223.788C63.7348 223.81 63.2115 223.95 62.7385 224.2L62.4872 223.577C63.0509 223.276 63.6799 223.118 64.3194 223.114C64.8341 223.072 65.3457 223.225 65.7521 223.543C65.9226 223.725 66.0525 223.942 66.1333 224.178C66.2142 224.414 66.2442 224.664 66.2214 224.912V228.587H65.6157ZM63.7633 228.013C63.9811 228.025 64.1993 227.994 64.4053 227.923C64.6113 227.852 64.8011 227.74 64.9636 227.595C65.1146 227.442 65.2317 227.259 65.3074 227.057C65.383 226.856 65.4155 226.641 65.4029 226.426V225.941L64.5831 225.975C64.0942 225.959 63.6091 226.063 63.1706 226.279C63.0302 226.366 62.916 226.488 62.8403 226.635C62.7645 226.781 62.73 226.945 62.7405 227.109C62.732 227.234 62.7516 227.359 62.7977 227.476C62.8439 227.592 62.9155 227.697 63.0074 227.782C63.2232 227.948 63.4916 228.029 63.7633 228.013ZM71.6206 228.587V225.105C71.6483 224.751 71.5409 224.4 71.3197 224.122C71.1939 224.005 71.0449 223.915 70.8824 223.86C70.7198 223.804 70.5473 223.782 70.3759 223.797C70.1477 223.778 69.9178 223.807 69.7027 223.886C69.4876 223.964 69.2927 224.089 69.1318 224.252C68.8283 224.694 68.6887 225.226 68.7369 225.76V228.584H67.9171V223.201H68.5835L68.7141 223.936H68.7539C68.925 223.669 69.1703 223.455 69.4601 223.323C69.7761 223.173 70.1228 223.097 70.4731 223.102C71.0068 223.062 71.5351 223.231 71.945 223.573C72.1257 223.776 72.2626 224.013 72.3475 224.271C72.4324 224.529 72.4633 224.801 72.4384 225.071V228.584L71.6206 228.587Z" fill="#656565"/>
<path d="M115.001 228.588H114.161V221.405H118.186V222.149H115.001V224.777H117.994V225.518H115.001V228.588ZM121.549 228.686C121.2 228.704 120.85 228.648 120.524 228.523C120.197 228.398 119.9 228.206 119.653 227.958C119.166 227.401 118.917 226.676 118.961 225.94C118.921 225.196 119.149 224.463 119.603 223.872C119.814 223.62 120.08 223.42 120.381 223.289C120.681 223.155 121.009 223.092 121.337 223.105C121.639 223.091 121.939 223.143 122.218 223.258C122.496 223.374 122.746 223.55 122.948 223.772C123.359 224.262 123.57 224.888 123.54 225.525V226.041H119.815C119.792 226.563 119.962 227.075 120.293 227.481C120.46 227.649 120.662 227.78 120.884 227.864C121.107 227.949 121.344 227.985 121.582 227.971C122.177 227.969 122.766 227.845 123.311 227.608V228.335C123.046 228.452 122.77 228.541 122.486 228.6C122.178 228.662 121.863 228.69 121.549 228.686ZM121.327 223.788C121.132 223.779 120.938 223.813 120.758 223.885C120.578 223.959 120.416 224.07 120.283 224.211C120.005 224.54 119.845 224.95 119.826 225.379H122.655C122.684 224.958 122.561 224.54 122.31 224.2C122.188 224.061 122.037 223.953 121.867 223.882C121.696 223.809 121.511 223.778 121.327 223.788ZM127.462 223.116C127.776 223.099 128.089 223.157 128.377 223.283C128.664 223.409 128.917 223.6 129.116 223.842C129.546 224.436 129.756 225.16 129.709 225.891C129.754 226.626 129.543 227.355 129.112 227.955C128.914 228.196 128.661 228.389 128.374 228.516C128.088 228.642 127.775 228.701 127.462 228.686C127.129 228.69 126.799 228.625 126.494 228.495C126.202 228.362 125.949 228.156 125.763 227.895H125.703L125.53 228.588H124.943V220.944H125.763V222.801C125.763 223.216 125.749 223.59 125.723 223.921H125.763C125.954 223.655 126.21 223.441 126.507 223.3C126.804 223.159 127.134 223.096 127.462 223.116ZM127.344 223.799C127.119 223.778 126.891 223.81 126.681 223.893C126.47 223.977 126.283 224.109 126.134 224.28C125.889 224.784 125.762 225.339 125.764 225.899C125.766 226.46 125.896 227.014 126.144 227.517C126.294 227.689 126.483 227.822 126.695 227.906C126.907 227.99 127.136 228.024 127.364 228.004C127.583 228.018 127.802 227.975 127.999 227.879C128.197 227.783 128.366 227.638 128.49 227.459C128.765 226.98 128.894 226.431 128.86 225.881C128.9 225.334 128.77 224.786 128.49 224.314C128.357 224.14 128.183 224.001 127.982 223.911C127.782 223.821 127.563 223.782 127.344 223.799Z" fill="#656565"/>
<path d="M170.875 228.587L168.426 222.22H168.386C168.432 222.724 168.455 223.325 168.456 224.018V228.587H167.68V221.405H168.945L171.229 227.33H171.269L173.575 221.405H174.83V228.587H173.99V223.96C173.99 223.43 174.013 222.853 174.059 222.231H174.02L171.55 228.587H170.875ZM180.021 228.587L179.859 227.82H179.819C179.607 228.11 179.329 228.346 179.009 228.509C178.691 228.636 178.349 228.696 178.006 228.685C177.548 228.712 177.096 228.565 176.742 228.273C176.585 228.122 176.464 227.938 176.385 227.736C176.306 227.533 176.272 227.316 176.285 227.099C176.285 226.012 177.159 225.442 178.908 225.39L179.826 225.359V225.027C179.854 224.692 179.755 224.359 179.549 224.093C179.434 223.983 179.297 223.899 179.146 223.845C178.995 223.793 178.834 223.773 178.675 223.788C178.141 223.81 177.617 223.95 177.145 224.2L176.893 223.577C177.457 223.276 178.086 223.118 178.726 223.114C179.24 223.072 179.752 223.225 180.158 223.543C180.328 223.725 180.458 223.942 180.539 224.178C180.62 224.414 180.65 224.664 180.627 224.912V228.587H180.021ZM178.169 228.013C178.387 228.026 178.605 227.994 178.811 227.923C179.017 227.852 179.207 227.74 179.369 227.595C179.52 227.442 179.637 227.259 179.713 227.057C179.789 226.856 179.821 226.641 179.808 226.426V225.941L178.989 225.975C178.5 225.959 178.015 226.063 177.576 226.279C177.436 226.366 177.322 226.489 177.246 226.635C177.171 226.781 177.136 226.945 177.147 227.109C177.138 227.234 177.158 227.359 177.204 227.475C177.25 227.592 177.321 227.697 177.413 227.782C177.63 227.948 177.899 228.029 178.172 228.013H178.169ZM184.792 223.105C185.009 223.103 185.226 223.123 185.439 223.163L185.326 223.92C185.132 223.876 184.933 223.85 184.734 223.848C184.518 223.846 184.305 223.894 184.11 223.985C183.915 224.078 183.743 224.212 183.607 224.378C183.293 224.745 183.127 225.216 183.143 225.699V228.587H182.323V223.203H183.002L183.096 224.2H183.135C183.311 223.878 183.56 223.6 183.862 223.39C184.136 223.204 184.46 223.105 184.792 223.107V223.105Z" fill="#656565"/>
<path d="M227.369 228.587L226.471 226.303H223.576L222.687 228.587H221.838L224.693 221.376H225.399L228.239 228.587H227.369ZM226.209 225.551L225.369 223.326C225.261 223.044 225.149 222.698 225.033 222.287C224.95 222.639 224.846 222.986 224.722 223.326L223.873 225.551H226.209ZM231.626 228.685C231.294 228.689 230.964 228.623 230.658 228.494C230.366 228.361 230.114 228.154 229.927 227.894H229.868C229.906 228.19 229.926 228.489 229.927 228.788V231.004H229.106V223.203H229.772L229.886 223.94H229.925C230.11 223.666 230.364 223.447 230.661 223.301C230.963 223.166 231.292 223.099 231.624 223.106C231.939 223.089 232.253 223.146 232.542 223.273C232.83 223.4 233.084 223.594 233.283 223.838C233.669 224.457 233.873 225.17 233.871 225.897C233.869 226.626 233.662 227.338 233.272 227.955C233.075 228.196 232.823 228.389 232.537 228.515C232.251 228.642 231.939 228.701 231.626 228.685ZM231.508 223.797C231.286 223.776 231.063 223.807 230.855 223.886C230.647 223.964 230.46 224.089 230.308 224.251C230.025 224.682 229.891 225.192 229.927 225.706V225.888C229.879 226.456 230.013 227.023 230.308 227.511C230.458 227.681 230.647 227.814 230.859 227.9C231.071 227.984 231.3 228.018 231.528 227.998C231.744 228.005 231.958 227.956 232.15 227.858C232.342 227.758 232.505 227.612 232.624 227.433C232.915 226.967 233.055 226.422 233.024 225.874C233.059 225.33 232.919 224.79 232.624 224.332C232.497 224.157 232.329 224.017 232.134 223.923C231.939 223.831 231.724 223.787 231.508 223.797ZM237.779 223.104C237.997 223.103 238.214 223.121 238.427 223.163L238.313 223.92C238.119 223.874 237.921 223.85 237.721 223.846C237.506 223.846 237.293 223.893 237.098 223.985C236.903 224.077 236.731 224.211 236.595 224.377C236.28 224.744 236.115 225.216 236.131 225.698V228.587H235.311V223.203H235.987L236.081 224.2H236.12C236.296 223.878 236.545 223.6 236.847 223.39C237.121 223.202 237.447 223.103 237.779 223.104Z" fill="#656565"/>
<path d="M279.123 228.589L276.673 222.222H276.633C276.679 222.726 276.703 223.325 276.703 224.02V228.589H275.928V221.407H277.192L279.476 227.331H279.516L281.822 221.407H283.077V228.589H282.24V223.959C282.24 223.429 282.263 222.852 282.31 222.23H282.27L279.801 228.587L279.123 228.589ZM287.227 228.687C286.877 228.705 286.527 228.649 286.201 228.524C285.874 228.399 285.578 228.206 285.331 227.96C284.843 227.402 284.595 226.678 284.639 225.94C284.599 225.196 284.826 224.463 285.281 223.873C285.492 223.62 285.757 223.421 286.058 223.288C286.359 223.156 286.686 223.093 287.015 223.106C287.316 223.092 287.617 223.144 287.895 223.26C288.174 223.375 288.423 223.55 288.625 223.773C289.037 224.264 289.248 224.889 289.217 225.527V226.042H285.489C285.466 226.564 285.637 227.076 285.968 227.481C286.135 227.65 286.337 227.781 286.559 227.865C286.781 227.95 287.019 227.987 287.257 227.973C287.852 227.97 288.44 227.847 288.985 227.608V228.337C288.72 228.453 288.444 228.541 288.161 228.602C287.853 228.663 287.54 228.691 287.227 228.687ZM287.005 223.789C286.81 223.779 286.616 223.813 286.436 223.885C286.256 223.959 286.093 224.07 285.96 224.211C285.683 224.54 285.523 224.951 285.504 225.38H288.334C288.362 224.958 288.24 224.54 287.988 224.201C287.866 224.062 287.715 223.953 287.544 223.882C287.374 223.81 287.189 223.778 287.005 223.789ZM291.439 228.588H290.619V223.204H291.439V228.588ZM290.55 221.744C290.543 221.671 290.552 221.596 290.576 221.526C290.6 221.456 290.638 221.392 290.689 221.337C290.735 221.294 290.789 221.26 290.848 221.238C290.908 221.216 290.971 221.205 291.035 221.207C291.161 221.204 291.283 221.251 291.375 221.337C291.426 221.391 291.466 221.456 291.49 221.526C291.515 221.596 291.524 221.671 291.518 221.744C291.524 221.819 291.514 221.895 291.49 221.965C291.465 222.036 291.426 222.102 291.375 222.156C291.283 222.243 291.161 222.29 291.035 222.287C290.971 222.29 290.908 222.279 290.848 222.257C290.789 222.235 290.735 222.201 290.689 222.156C290.639 222.1 290.601 222.036 290.578 221.965C290.554 221.894 290.545 221.818 290.55 221.744Z" fill="#656565"/>
<path d="M328.269 230.479C328.019 230.491 327.769 230.447 327.538 230.349V229.635C327.776 229.7 328.022 229.734 328.269 229.733C328.407 229.742 328.545 229.721 328.673 229.67C328.801 229.618 328.916 229.54 329.009 229.438C329.196 229.196 329.287 228.893 329.266 228.589V221.405H330.106V228.518C330.139 229.043 329.97 229.56 329.632 229.963C329.455 230.141 329.242 230.279 329.007 230.368C328.772 230.458 328.52 230.495 328.269 230.479ZM332.674 223.203V226.696C332.646 227.05 332.753 227.401 332.975 227.679C333.101 227.796 333.25 227.885 333.412 227.941C333.575 227.997 333.747 228.018 333.918 228.004C334.147 228.024 334.377 227.993 334.591 227.913C334.806 227.833 335 227.706 335.158 227.543C335.461 227.1 335.601 226.568 335.553 226.034V223.205H336.373V228.589H335.697L335.578 227.867H335.534C335.364 228.133 335.12 228.345 334.832 228.475C334.513 228.621 334.166 228.694 333.815 228.687C333.279 228.727 332.748 228.561 332.334 228.22C332.155 228.017 332.019 227.78 331.935 227.523C331.851 227.266 331.82 226.995 331.845 226.726V223.205L332.674 223.203ZM341.82 228.587V225.105C341.848 224.751 341.74 224.4 341.518 224.122C341.393 224.005 341.244 223.915 341.082 223.859C340.919 223.803 340.747 223.782 340.575 223.797C340.347 223.778 340.117 223.807 339.902 223.886C339.687 223.964 339.492 224.089 339.331 224.252C339.027 224.693 338.888 225.226 338.936 225.76V228.584H338.117V223.201H338.783L338.913 223.936H338.953C339.124 223.669 339.37 223.455 339.66 223.323C339.975 223.173 340.322 223.097 340.672 223.102C341.206 223.062 341.734 223.231 342.144 223.573C342.325 223.776 342.462 224.013 342.547 224.271C342.632 224.529 342.663 224.801 342.638 225.071V228.584L341.82 228.587Z" fill="#656565"/>
<path d="M379.265 230.479C379.014 230.492 378.764 230.447 378.534 230.349V229.635C378.772 229.701 379.018 229.734 379.265 229.733C379.402 229.742 379.541 229.721 379.669 229.67C379.797 229.62 379.912 229.54 380.005 229.439C380.192 229.196 380.283 228.895 380.262 228.589V221.405H381.101V228.519C381.135 229.043 380.965 229.56 380.627 229.964C380.451 230.141 380.238 230.28 380.002 230.369C379.767 230.458 379.516 230.495 379.265 230.479ZM383.67 223.204V226.694C383.642 227.048 383.749 227.399 383.971 227.677C384.096 227.794 384.245 227.882 384.408 227.938C384.571 227.995 384.743 228.017 384.914 228.002C385.143 228.021 385.373 227.991 385.587 227.912C385.802 227.831 385.996 227.704 386.155 227.54C386.457 227.098 386.596 226.566 386.549 226.032V223.203H387.369V228.586H386.692L386.574 227.865H386.529C386.36 228.131 386.116 228.342 385.828 228.473C385.51 228.619 385.162 228.691 384.811 228.684C384.275 228.725 383.744 228.558 383.33 228.217C383.151 228.016 383.015 227.779 382.931 227.522C382.847 227.265 382.816 226.994 382.84 226.724V223.203L383.67 223.204ZM389.932 228.588H389.112V220.944H389.932V228.588Z" fill="#656565"/>
<path d="M437.345 228.587L436.447 226.303H433.55L432.66 228.587H431.812L434.666 221.376H435.377L438.217 228.587H437.345ZM436.185 225.551L435.345 223.326C435.237 223.044 435.125 222.698 435.009 222.287C434.926 222.639 434.822 222.986 434.698 223.326L433.849 225.551H436.185ZM439.854 223.203V226.696C439.826 227.05 439.935 227.401 440.158 227.679C440.283 227.796 440.431 227.886 440.594 227.942C440.756 227.998 440.929 228.019 441.1 228.004C441.328 228.023 441.558 227.992 441.772 227.912C441.987 227.832 442.181 227.706 442.34 227.541C442.642 227.099 442.78 226.566 442.731 226.034V223.204H443.553V228.588H442.877L442.757 227.866H442.713C442.545 228.134 442.3 228.346 442.011 228.475C441.692 228.621 441.344 228.693 440.993 228.686C440.458 228.727 439.928 228.559 439.514 228.22C439.335 228.016 439.199 227.779 439.116 227.523C439.032 227.266 439.002 226.995 439.027 226.726V223.204L439.854 223.203ZM449.728 223.203V223.719L448.723 223.836C448.83 223.974 448.914 224.126 448.97 224.291C449.047 224.49 449.083 224.702 449.078 224.914C449.089 225.153 449.045 225.39 448.951 225.608C448.857 225.826 448.715 226.021 448.534 226.178C448.112 226.512 447.581 226.68 447.042 226.648C446.891 226.649 446.741 226.636 446.593 226.61C446.448 226.662 446.321 226.756 446.229 226.879C446.136 227.002 446.081 227.149 446.071 227.302C446.067 227.368 446.082 227.435 446.114 227.493C446.147 227.552 446.195 227.6 446.254 227.631C446.452 227.714 446.666 227.75 446.88 227.734H447.834C448.314 227.704 448.791 227.833 449.187 228.103C449.346 228.231 449.472 228.395 449.555 228.581C449.637 228.767 449.674 228.97 449.661 229.173C449.674 229.444 449.614 229.713 449.488 229.952C449.362 230.191 449.174 230.393 448.943 230.537C448.301 230.891 447.571 231.054 446.838 231.009C446.263 231.042 445.691 230.906 445.195 230.615C445.012 230.495 444.864 230.329 444.764 230.134C444.665 229.94 444.617 229.723 444.626 229.505C444.621 229.193 444.734 228.891 444.942 228.656C445.176 228.403 445.486 228.232 445.827 228.169C445.688 228.104 445.568 228.005 445.479 227.88C445.385 227.747 445.336 227.588 445.34 227.426C445.334 227.24 445.39 227.057 445.498 226.906C445.634 226.732 445.804 226.587 445.997 226.479C445.713 226.357 445.473 226.154 445.308 225.894C445.133 225.61 445.042 225.283 445.047 224.951C445.03 224.699 445.069 224.446 445.161 224.211C445.253 223.976 445.395 223.762 445.578 223.587C446.003 223.244 446.542 223.071 447.089 223.106C447.35 223.103 447.609 223.135 447.86 223.204L449.728 223.203ZM445.411 229.491C445.405 229.624 445.436 229.757 445.501 229.874C445.566 229.991 445.661 230.087 445.778 230.154C446.105 230.323 446.472 230.401 446.84 230.38C447.368 230.417 447.897 230.309 448.37 230.071C448.52 229.991 448.646 229.87 448.734 229.724C448.822 229.578 448.869 229.411 448.869 229.241C448.88 229.125 448.861 229.008 448.814 228.901C448.766 228.794 448.692 228.702 448.597 228.632C448.275 228.494 447.923 228.437 447.573 228.466H446.594C446.281 228.446 445.971 228.541 445.722 228.731C445.616 228.827 445.533 228.943 445.479 229.075C445.425 229.207 445.402 229.35 445.411 229.491ZM445.853 224.927C445.842 225.085 445.865 225.243 445.921 225.39C445.976 225.537 446.063 225.671 446.176 225.782C446.426 225.987 446.744 226.09 447.067 226.071C447.228 226.097 447.392 226.085 447.547 226.036C447.702 225.987 447.844 225.903 447.96 225.791C448.077 225.679 448.165 225.54 448.219 225.387C448.272 225.236 448.289 225.072 448.268 224.912C448.292 224.748 448.278 224.579 448.225 224.422C448.173 224.264 448.084 224.122 447.967 224.004C447.849 223.886 447.705 223.797 447.547 223.745C447.389 223.691 447.22 223.676 447.055 223.699C446.893 223.689 446.731 223.711 446.578 223.763C446.424 223.817 446.284 223.9 446.163 224.009C445.942 224.262 445.831 224.591 445.853 224.926V224.927Z" fill="#656565"/>
<path d="M486.864 226.678C486.877 226.961 486.82 227.244 486.699 227.502C486.578 227.759 486.396 227.983 486.169 228.155C485.62 228.535 484.96 228.722 484.292 228.686C483.618 228.718 482.946 228.606 482.32 228.356V227.551C482.632 227.68 482.956 227.778 483.287 227.845C483.628 227.916 483.975 227.954 484.323 227.954C484.768 227.985 485.21 227.875 485.588 227.639C485.726 227.538 485.837 227.405 485.911 227.25C485.985 227.095 486.019 226.926 486.011 226.755C486.021 226.542 485.968 226.331 485.86 226.146C485.731 225.96 485.557 225.807 485.354 225.704C485.011 225.523 484.654 225.371 484.286 225.25C483.743 225.087 483.248 224.796 482.844 224.4C482.545 224.04 482.391 223.583 482.414 223.117C482.405 222.863 482.457 222.611 482.566 222.381C482.675 222.151 482.838 221.951 483.04 221.795C483.52 221.449 484.104 221.276 484.696 221.305C485.378 221.297 486.054 221.431 486.681 221.697L486.415 222.425C485.867 222.185 485.276 222.059 484.677 222.052C484.307 222.031 483.94 222.131 483.633 222.337C483.511 222.429 483.414 222.549 483.349 222.687C483.285 222.824 483.254 222.976 483.26 223.127C483.251 223.341 483.299 223.552 483.399 223.741C483.516 223.921 483.674 224.071 483.861 224.178C484.184 224.354 484.522 224.501 484.872 224.616C485.452 224.782 485.986 225.078 486.434 225.481C486.727 225.809 486.881 226.237 486.864 226.678ZM490.499 228.686C490.15 228.703 489.8 228.647 489.474 228.522C489.147 228.397 488.851 228.205 488.603 227.959C488.119 227.4 487.872 226.676 487.914 225.94C487.874 225.196 488.103 224.463 488.559 223.872C488.769 223.62 489.035 223.42 489.335 223.287C489.635 223.154 489.963 223.092 490.291 223.105C490.593 223.091 490.894 223.144 491.172 223.259C491.451 223.375 491.701 223.55 491.903 223.773C492.312 224.264 492.522 224.889 492.491 225.526V226.041H488.761C488.74 226.563 488.911 227.074 489.242 227.481C489.409 227.649 489.611 227.78 489.834 227.864C490.056 227.949 490.294 227.985 490.531 227.972C491.128 227.969 491.717 227.845 492.264 227.608V228.336C491.997 228.452 491.72 228.541 491.435 228.601C491.128 228.662 490.815 228.69 490.501 228.686H490.499ZM490.278 223.788C490.084 223.78 489.89 223.814 489.71 223.887C489.53 223.96 489.367 224.071 489.234 224.211C488.96 224.541 488.803 224.952 488.785 225.379H491.611C491.639 224.959 491.519 224.541 491.27 224.2C491.147 224.061 490.994 223.953 490.823 223.88C490.651 223.809 490.466 223.778 490.28 223.788H490.278ZM496.414 228.686C496.079 228.69 495.748 228.625 495.44 228.495C495.15 228.361 494.899 228.154 494.713 227.895H494.648C494.691 228.192 494.712 228.491 494.713 228.789V231.005H493.891V223.204H494.562L494.675 223.941H494.713C494.897 223.668 495.15 223.448 495.446 223.302C495.75 223.167 496.081 223.1 496.414 223.107C496.728 223.09 497.042 223.147 497.33 223.274C497.618 223.402 497.871 223.595 498.069 223.839C498.455 224.457 498.659 225.171 498.658 225.899C498.656 226.626 498.45 227.339 498.063 227.956C497.865 228.196 497.613 228.388 497.327 228.515C497.042 228.641 496.73 228.701 496.418 228.686H496.414ZM496.293 223.799C496.072 223.778 495.848 223.807 495.64 223.886C495.431 223.964 495.244 224.09 495.092 224.253C494.81 224.684 494.677 225.194 494.713 225.707V225.889C494.665 226.456 494.798 227.024 495.092 227.512C495.243 227.683 495.432 227.817 495.644 227.901C495.856 227.985 496.085 228.019 496.312 227.998C496.528 228.006 496.742 227.958 496.934 227.859C497.125 227.76 497.288 227.614 497.406 227.434C497.701 226.969 497.842 226.424 497.81 225.875C497.847 225.331 497.705 224.79 497.406 224.332C497.281 224.158 497.114 224.019 496.92 223.926C496.727 223.832 496.513 223.788 496.298 223.799H496.293Z" fill="#656565"/>
<path d="M59.918 176.978C93.0808 178.95 94.9763 133.081 124.675 123.544C138.081 119.236 147.215 122.863 160.803 119.091C183.178 112.88 186.18 86.4326 209.5 86.4326C248.957 86.4326 245.375 141.895 275.473 156.198C305.572 170.5 320.107 141.354 347.733 141.354C387.002 141.354 389.985 188.853 430.827 188.853C471.669 188.853 463.435 131.14 500.456 130.963" stroke="#304FFD" stroke-width="2" stroke-linecap="round"/>
<path d="M500.456 101.811C467.294 99.8394 465.398 145.708 435.7 155.246C422.293 159.552 413.159 155.927 399.572 159.698C377.196 165.909 374.194 192.356 350.874 192.356C311.417 192.356 315 136.893 284.901 122.591C254.803 108.289 240.268 137.435 212.642 137.435C173.372 137.435 170.388 89.9355 129.547 89.9355C88.7044 89.9355 96.939 147.65 59.918 147.825" stroke="#FC605B" stroke-width="2" stroke-linecap="round"/>
<path d="M21 76.0745V75.4892L23.3218 71.3666H24.0429V75.4044H24.7044V76.0745H24.0429V77.4402H23.4475V76.0745H21ZM23.474 72.1725L21.6946 75.4044H23.474V72.1725ZM25.3057 74.31C25.3057 73.3376 25.4292 72.5795 25.6762 72.0367C25.9231 71.4883 26.3553 71.2139 26.9727 71.2139C27.5857 71.2139 28.0156 71.4883 28.2626 72.0367C28.5096 72.5795 28.633 73.3376 28.633 74.31C28.633 75.2996 28.5096 76.069 28.2626 76.6174C28.0156 77.1657 27.5857 77.4402 26.9727 77.4402C26.3553 77.4402 25.9231 77.1657 25.6762 76.6174C25.4292 76.069 25.3057 75.2996 25.3057 74.31ZM28.0377 74.31C28.0377 73.8181 28.0112 73.4025 27.9583 73.0631C27.9098 72.7183 27.8062 72.4408 27.6474 72.2318C27.493 72.0228 27.2681 71.918 26.9727 71.918C26.6728 71.918 26.4435 72.0228 26.2847 72.2318C26.1304 72.4408 26.0267 72.7183 25.9738 73.0631C25.9253 73.4025 25.9011 73.8181 25.9011 74.31C25.9011 74.819 25.9253 75.2462 25.9738 75.591C26.0267 75.9357 26.1304 76.2132 26.2847 76.4223C26.4435 76.6314 26.6728 76.7362 26.9727 76.7362C27.2681 76.7362 27.493 76.6314 27.6474 76.4223C27.8062 76.2132 27.9098 75.9357 27.9583 75.591C28.0112 75.2462 28.0377 74.819 28.0377 74.31ZM29.4594 74.31C29.4594 73.3376 29.5829 72.5795 29.8299 72.0367C30.0768 71.4883 30.509 71.2139 31.1264 71.2139C31.7394 71.2139 32.1694 71.4883 32.4163 72.0367C32.6633 72.5795 32.7867 73.3376 32.7867 74.31C32.7867 75.2996 32.6633 76.069 32.4163 76.6174C32.1694 77.1657 31.7394 77.4402 31.1264 77.4402C30.509 77.4402 30.0768 77.1657 29.8299 76.6174C29.5829 76.069 29.4594 75.2996 29.4594 74.31ZM32.1914 74.31C32.1914 73.8181 32.1649 73.4025 32.112 73.0631C32.0635 72.7183 31.9599 72.4408 31.8011 72.2318C31.6468 72.0228 31.4219 71.918 31.1264 71.918C30.8266 71.918 30.5972 72.0228 30.4384 72.2318C30.2841 72.4408 30.1805 72.7183 30.1275 73.0631C30.0791 73.4025 30.0548 73.8181 30.0548 74.31C30.0548 74.819 30.0791 75.2462 30.1275 75.591C30.1805 75.9357 30.2841 76.2132 30.4384 76.4223C30.5972 76.6314 30.8266 76.7362 31.1264 76.7362C31.4219 76.7362 31.6468 76.6314 31.8011 76.4223C31.9599 76.2132 32.0635 75.9357 32.112 75.591C32.1649 75.2462 32.1914 74.819 32.1914 74.31ZM36.2128 77.4402L34.3143 74.7427V77.4402H33.7124V71.5277H34.3143V74.2677L36.2194 71.5277H36.9802L34.8898 74.4882L37 77.4402H36.2128Z" fill="#656565"/>
<path d="M21.0743 106.714C21.1058 106.199 21.2655 105.796 21.5537 105.506C21.8417 105.215 22.2153 105.069 22.6745 105.069C22.9805 105.069 23.2438 105.14 23.4644 105.279C23.6895 105.413 23.8583 105.598 23.9708 105.833C24.0878 106.068 24.1464 106.333 24.1464 106.63C24.1464 106.977 24.0653 107.276 23.9033 107.528C23.7457 107.78 23.5387 107.942 23.2821 108.015V108.057C23.5747 108.146 23.8065 108.322 23.9776 108.585C24.1486 108.848 24.2341 109.193 24.2341 109.617C24.2341 109.936 24.1756 110.225 24.0586 110.482C23.9415 110.734 23.766 110.932 23.5319 111.077C23.2978 111.223 23.0165 111.296 22.688 111.296C22.2108 111.296 21.8192 111.142 21.5131 110.834C21.207 110.521 21.036 110.079 21 109.508H21.5942C21.6257 109.844 21.736 110.118 21.925 110.331C22.1141 110.543 22.3661 110.65 22.6812 110.65C22.9963 110.65 23.2349 110.549 23.3969 110.347C23.5634 110.141 23.6467 109.875 23.6467 109.55C23.6467 109.131 23.5342 108.829 23.3091 108.644C23.0841 108.459 22.7442 108.367 22.2896 108.367H22.1343V107.729H22.2964C22.7104 107.724 23.0233 107.64 23.2349 107.478C23.4464 107.31 23.5522 107.053 23.5522 106.706C23.5522 106.409 23.4734 106.172 23.3159 105.992C23.1628 105.813 22.9423 105.724 22.6542 105.724C22.3751 105.724 22.15 105.813 21.979 105.992C21.808 106.172 21.7067 106.412 21.6752 106.714H21.0743ZM25.0637 108.157C25.0637 107.195 25.1897 106.446 25.4418 105.908C25.6939 105.366 26.135 105.095 26.7652 105.095C27.3908 105.095 27.8297 105.366 28.0818 105.908C28.3339 106.446 28.4599 107.195 28.4599 108.157C28.4599 109.136 28.3339 109.897 28.0818 110.44C27.8297 110.982 27.3908 111.254 26.7652 111.254C26.135 111.254 25.6939 110.982 25.4418 110.44C25.1897 109.897 25.0637 109.136 25.0637 108.157ZM27.8522 108.157C27.8522 107.671 27.8252 107.259 27.7712 106.924C27.7217 106.583 27.6159 106.308 27.4538 106.101C27.2963 105.895 27.0667 105.791 26.7652 105.791C26.4591 105.791 26.225 105.895 26.063 106.101C25.9054 106.308 25.7996 106.583 25.7456 106.924C25.6961 107.259 25.6714 107.671 25.6714 108.157C25.6714 108.661 25.6961 109.083 25.7456 109.424C25.7996 109.765 25.9054 110.04 26.063 110.247C26.225 110.454 26.4591 110.557 26.7652 110.557C27.0667 110.557 27.2963 110.454 27.4538 110.247C27.6159 110.04 27.7217 109.765 27.7712 109.424C27.8252 109.083 27.8522 108.661 27.8522 108.157ZM29.3034 108.157C29.3034 107.195 29.4294 106.446 29.6815 105.908C29.9336 105.366 30.3747 105.095 31.0048 105.095C31.6305 105.095 32.0694 105.366 32.3215 105.908C32.5735 106.446 32.6996 107.195 32.6996 108.157C32.6996 109.136 32.5735 109.897 32.3215 110.44C32.0694 110.982 31.6305 111.254 31.0048 111.254C30.3747 111.254 29.9336 110.982 29.6815 110.44C29.4294 109.897 29.3034 109.136 29.3034 108.157ZM32.0919 108.157C32.0919 107.671 32.0649 107.259 32.0109 106.924C31.9614 106.583 31.8556 106.308 31.6935 106.101C31.536 105.895 31.3065 105.791 31.0048 105.791C30.6988 105.791 30.4647 105.895 30.3026 106.101C30.1451 106.308 30.0393 106.583 29.9853 106.924C29.9358 107.259 29.911 107.671 29.911 108.157C29.911 108.661 29.9358 109.083 29.9853 109.424C30.0393 109.765 30.1451 110.04 30.3026 110.247C30.4647 110.454 30.6988 110.557 31.0048 110.557C31.3065 110.557 31.536 110.454 31.6935 110.247C31.8556 110.04 31.9614 109.765 32.0109 109.424C32.0649 109.083 32.0919 108.661 32.0919 108.157ZM36.1965 111.254L34.2587 108.585V111.254H33.6443V105.405H34.2587V108.115L36.2033 105.405H36.9797L34.8462 108.334L37 111.254H36.1965Z" fill="#656565"/>
<path d="M21 144.534C21.5754 143.96 22.0263 143.488 22.3526 143.122C22.6788 142.749 22.9529 142.364 23.175 141.962C23.4015 141.557 23.5148 141.159 23.5148 140.77C23.5148 140.404 23.4423 140.117 23.2973 139.908C23.1568 139.693 22.928 139.585 22.6108 139.585C22.3027 139.585 22.0625 139.707 21.8904 139.95C21.7227 140.187 21.6321 140.505 21.6185 140.906H21.0204C21.0385 140.274 21.1925 139.786 21.4826 139.442C21.7726 139.099 22.1464 138.926 22.604 138.926C23.0707 138.926 23.4401 139.087 23.7119 139.408C23.9883 139.729 24.1265 140.173 24.1265 140.736C24.1265 141.205 24.0132 141.661 23.7867 142.107C23.5646 142.546 23.3109 142.936 23.0254 143.275C22.74 143.607 22.3752 143.996 21.9312 144.442H24.2693V145.084H21V144.534ZM24.9842 142.03C24.9842 141.061 25.1111 140.305 25.3649 139.763C25.6186 139.216 26.0626 138.943 26.697 138.943C27.3268 138.943 27.7686 139.216 28.0224 139.763C28.2762 140.305 28.403 141.061 28.403 142.03C28.403 143.018 28.2762 143.785 28.0224 144.331C27.7686 144.879 27.3268 145.152 26.697 145.152C26.0626 145.152 25.6186 144.879 25.3649 144.331C25.1111 143.785 24.9842 143.018 24.9842 142.03ZM27.7913 142.03C27.7913 141.54 27.7641 141.125 27.7097 140.787C27.6599 140.443 27.5534 140.167 27.3903 139.958C27.2317 139.749 27.0006 139.645 26.697 139.645C26.3889 139.645 26.1533 139.749 25.9902 139.958C25.8316 140.167 25.7251 140.443 25.6707 140.787C25.6209 141.125 25.5959 141.54 25.5959 142.03C25.5959 142.538 25.6209 142.964 25.6707 143.308C25.7251 143.653 25.8316 143.928 25.9902 144.137C26.1533 144.346 26.3889 144.45 26.697 144.45C27.0006 144.45 27.2317 144.346 27.3903 144.137C27.5534 143.928 27.6599 143.653 27.7097 143.308C27.7641 142.964 27.7913 142.538 27.7913 142.03ZM29.2521 142.03C29.2521 141.061 29.379 140.305 29.6328 139.763C29.8865 139.216 30.3306 138.943 30.9649 138.943C31.5948 138.943 32.0366 139.216 32.2903 139.763C32.5441 140.305 32.6709 141.061 32.6709 142.03C32.6709 143.018 32.5441 143.785 32.2903 144.331C32.0366 144.879 31.5948 145.152 30.9649 145.152C30.3306 145.152 29.8865 144.879 29.6328 144.331C29.379 143.785 29.2521 143.018 29.2521 142.03ZM32.0592 142.03C32.0592 141.54 32.032 141.125 31.9777 140.787C31.9278 140.443 31.8213 140.167 31.6582 139.958C31.4996 139.749 31.2686 139.645 30.9649 139.645C30.6568 139.645 30.4212 139.749 30.2581 139.958C30.0995 140.167 29.993 140.443 29.9386 140.787C29.8888 141.125 29.8638 141.54 29.8638 142.03C29.8638 142.538 29.8888 142.964 29.9386 143.308C29.993 143.653 30.0995 143.928 30.2581 144.137C30.4212 144.346 30.6568 144.45 30.9649 144.45C31.2686 144.45 31.4996 144.346 31.6582 144.137C31.8213 143.928 31.9278 143.653 31.9777 143.308C32.032 142.964 32.0592 142.538 32.0592 142.03ZM36.1912 145.152L34.2405 142.462V145.152H33.622V139.256H34.2405V141.988L36.198 139.256H36.9796L34.8318 142.209L37 145.152H36.1912Z" fill="#656565"/>
<path d="M21 173.579V172.875H22.4241V179.007H21.7272V173.579H21ZM23.6082 175.877C23.6082 174.905 23.7496 174.147 24.0324 173.604C24.3153 173.056 24.8101 172.781 25.5172 172.781C26.2191 172.781 26.7115 173.056 26.9943 173.604C27.2771 174.147 27.4185 174.905 27.4185 175.877C27.4185 176.867 27.2771 177.637 26.9943 178.185C26.7115 178.734 26.2191 179.007 25.5172 179.007C24.8101 179.007 24.3153 178.734 24.0324 178.185C23.7496 177.637 23.6082 176.867 23.6082 175.877ZM26.7368 175.877C26.7368 175.386 26.7065 174.97 26.6459 174.63C26.5903 174.286 26.4716 174.009 26.2898 173.799C26.1131 173.59 25.8555 173.485 25.5172 173.485C25.1737 173.485 24.9112 173.59 24.7294 173.799C24.5526 174.009 24.4339 174.286 24.3733 174.63C24.3177 174.97 24.29 175.386 24.29 175.877C24.29 176.386 24.3177 176.814 24.3733 177.158C24.4339 177.504 24.5526 177.78 24.7294 177.989C24.9112 178.199 25.1737 178.303 25.5172 178.303C25.8555 178.303 26.1131 178.199 26.2898 177.989C26.4716 177.78 26.5903 177.504 26.6459 177.158C26.7065 176.814 26.7368 176.386 26.7368 175.877ZM28.3649 175.877C28.3649 174.905 28.5063 174.147 28.7891 173.604C29.0719 173.056 29.5668 172.781 30.2738 172.781C30.9758 172.781 31.4682 173.056 31.751 173.604C32.0338 174.147 32.1752 174.905 32.1752 175.877C32.1752 176.867 32.0338 177.637 31.751 178.185C31.4682 178.734 30.9758 179.007 30.2738 179.007C29.5668 179.007 29.0719 178.734 28.7891 178.185C28.5063 177.637 28.3649 176.867 28.3649 175.877ZM31.4934 175.877C31.4934 175.386 31.4631 174.97 31.4025 174.63C31.347 174.286 31.2283 174.009 31.0465 173.799C30.8698 173.59 30.6122 173.485 30.2738 173.485C29.9304 173.485 29.6678 173.59 29.486 173.799C29.3093 174.009 29.1906 174.286 29.13 174.63C29.0745 174.97 29.0466 175.386 29.0466 175.877C29.0466 176.386 29.0745 176.814 29.13 177.158C29.1906 177.504 29.3093 177.78 29.486 177.989C29.6678 178.199 29.9304 178.303 30.2738 178.303C30.6122 178.303 30.8698 178.199 31.0465 177.989C31.2283 177.78 31.347 177.504 31.4025 177.158C31.4631 176.814 31.4934 176.386 31.4934 175.877ZM36.0986 179.007L33.9245 176.31V179.007H33.2352V173.095H33.9245V175.835L36.1061 173.095H36.9773L34.5835 176.056L37 179.007H36.0986Z" fill="#656565"/>
<path d="M427.016 24.7374C426.543 24.7374 426.117 24.8331 425.738 25.0246C425.363 25.2116 425.043 25.4853 424.777 25.8455C424.516 26.2013 424.315 26.6322 424.174 27.1384C424.033 27.6446 423.963 28.2146 423.963 28.8484C423.963 29.6876 424.074 30.4172 424.297 31.0374C424.524 31.6531 424.859 32.1297 425.305 32.467C425.754 32.8046 426.315 32.9732 426.986 32.9732C427.369 32.9732 427.729 32.9368 428.065 32.8639C428.404 32.7863 428.734 32.6906 429.055 32.5766V33.589C428.742 33.7258 428.414 33.8261 428.07 33.8899C427.727 33.9583 427.318 33.9925 426.846 33.9925C425.975 33.9925 425.246 33.7828 424.66 33.3632C424.078 32.939 423.641 32.3417 423.348 31.571C423.059 30.8003 422.914 29.8905 422.914 28.8417C422.914 28.0846 423.004 27.3937 423.184 26.769C423.367 26.1396 423.633 25.597 423.981 25.141C424.332 24.6849 424.762 24.3338 425.27 24.0875C425.781 23.8367 426.367 23.7112 427.027 23.7112C427.461 23.7112 427.879 23.7614 428.281 23.8618C428.684 23.9621 429.047 24.1057 429.371 24.2927L428.973 25.2777C428.699 25.1318 428.399 25.0064 428.07 24.9016C427.746 24.792 427.395 24.7374 427.016 24.7374ZM433.168 26.2355C433.934 26.2355 434.502 26.436 434.873 26.8374C435.244 27.2387 435.43 27.8795 435.43 28.7596V33.8557H434.721L434.533 32.7476H434.486C434.307 33.0212 434.119 33.2514 433.924 33.4385C433.729 33.6208 433.502 33.76 433.244 33.8557C432.99 33.9469 432.678 33.9925 432.307 33.9925C431.916 33.9925 431.568 33.9127 431.264 33.7531C430.963 33.5935 430.725 33.3518 430.549 33.028C430.377 32.7043 430.291 32.2938 430.291 31.7967C430.291 31.0488 430.545 30.4742 431.053 30.073C431.561 29.6716 432.334 29.4527 433.373 29.4163L434.481 29.3615V28.9032C434.481 28.2556 434.361 27.8019 434.123 27.542C433.885 27.282 433.549 27.152 433.115 27.152C432.779 27.152 432.459 27.209 432.154 27.3231C431.85 27.4371 431.561 27.5716 431.287 27.7266L430.988 26.8647C431.277 26.6915 431.609 26.5432 431.984 26.4202C432.359 26.297 432.754 26.2355 433.168 26.2355ZM434.469 30.1618L433.49 30.2098C432.69 30.2462 432.125 30.399 431.797 30.668C431.469 30.9371 431.305 31.3179 431.305 31.8104C431.305 32.239 431.416 32.556 431.639 32.7612C431.861 32.9665 432.156 33.0691 432.524 33.0691C433.094 33.0691 433.561 32.8844 433.924 32.515C434.287 32.1456 434.469 31.5915 434.469 30.8527V30.1618ZM441.588 31.8036C441.588 32.2824 441.484 32.6859 441.277 33.0143C441.074 33.3381 440.781 33.5821 440.399 33.7462C440.02 33.9105 439.567 33.9925 439.039 33.9925C438.59 33.9925 438.201 33.9514 437.873 33.8694C437.545 33.7873 437.258 33.671 437.012 33.5205V32.4739C437.274 32.6244 437.586 32.7612 437.949 32.8844C438.313 33.0075 438.684 33.0691 439.063 33.0691C439.617 33.0691 440.02 32.9641 440.27 32.7544C440.52 32.5447 440.645 32.2596 440.645 31.8993C440.645 31.6941 440.594 31.5139 440.492 31.3589C440.395 31.1993 440.229 31.0466 439.994 30.9007C439.76 30.7501 439.436 30.5859 439.022 30.4081C438.611 30.2257 438.256 30.0455 437.955 29.8677C437.658 29.6853 437.428 29.4642 437.264 29.2042C437.104 28.9443 437.024 28.6068 437.024 28.1918C437.024 27.558 437.242 27.0723 437.68 26.7348C438.121 26.3927 438.699 26.2217 439.414 26.2217C439.801 26.2217 440.162 26.2673 440.498 26.3585C440.838 26.4451 441.154 26.5638 441.447 26.7142L441.119 27.624C440.854 27.4918 440.57 27.38 440.27 27.2889C439.969 27.1977 439.662 27.152 439.35 27.152C438.901 27.152 438.555 27.2387 438.313 27.412C438.074 27.5853 437.955 27.8224 437.955 28.1233C437.955 28.356 438.01 28.5475 438.119 28.698C438.233 28.8484 438.412 28.9898 438.658 29.1221C438.904 29.2544 439.229 29.4094 439.631 29.5873C440.033 29.7606 440.381 29.9407 440.674 30.1276C440.967 30.3101 441.192 30.5335 441.348 30.7981C441.508 31.0579 441.588 31.3931 441.588 31.8036ZM444.125 23.2119V26.3927C444.125 26.5752 444.121 26.7599 444.113 26.9468C444.106 27.1293 444.092 27.298 444.072 27.453H444.137C444.27 27.1886 444.438 26.9673 444.641 26.7895C444.848 26.6071 445.082 26.4702 445.344 26.3791C445.606 26.2833 445.883 26.2355 446.176 26.2355C446.692 26.2355 447.121 26.3312 447.465 26.5228C447.813 26.7142 448.072 27.0107 448.244 27.412C448.42 27.8133 448.508 28.3331 448.508 28.9716V33.8557H447.547V29.0469C447.547 28.4221 447.424 27.9546 447.178 27.6446C446.936 27.3345 446.563 27.1793 446.059 27.1793C445.582 27.1793 445.201 27.2865 444.916 27.5009C444.635 27.7107 444.432 28.0208 444.307 28.4312C444.186 28.8417 444.125 29.3433 444.125 29.9361V33.8557H443.152V23.2119H444.125ZM459.166 30.0934C459.166 30.7091 459.098 31.2586 458.961 31.7421C458.824 32.2254 458.627 32.6335 458.369 32.9665C458.111 33.2993 457.799 33.5548 457.432 33.7326C457.068 33.9059 456.656 33.9925 456.195 33.9925C455.766 33.9925 455.371 33.9059 455.012 33.7326C454.656 33.5548 454.348 33.2993 454.086 32.9665C453.828 32.6335 453.627 32.2254 453.483 31.7421C453.342 31.2586 453.272 30.7091 453.272 30.0934C453.272 29.2726 453.391 28.5749 453.629 28.0003C453.867 27.4211 454.207 26.981 454.649 26.68C455.094 26.3745 455.623 26.2217 456.236 26.2217C456.822 26.2217 457.334 26.3745 457.772 26.68C458.213 26.9856 458.555 27.4279 458.797 28.0071C459.043 28.5817 459.166 29.2771 459.166 30.0934ZM454.279 30.0934C454.279 30.6955 454.348 31.2175 454.484 31.6599C454.621 32.1022 454.832 32.4443 455.117 32.6859C455.402 32.9277 455.77 33.0485 456.219 33.0485C456.664 33.0485 457.029 32.9277 457.315 32.6859C457.604 32.4443 457.817 32.1022 457.953 31.6599C458.09 31.2175 458.158 30.6955 458.158 30.0934C458.158 29.496 458.09 28.9807 457.953 28.5475C457.817 28.1097 457.606 27.7723 457.32 27.5351C457.035 27.298 456.666 27.1793 456.213 27.1793C455.545 27.1793 455.055 27.4371 454.742 27.9524C454.434 28.4677 454.279 29.1814 454.279 30.0934ZM466.151 26.3585V33.8557H465.354L465.213 32.8023H465.16C465.027 33.0622 464.856 33.2811 464.645 33.459C464.434 33.6368 464.195 33.7691 463.93 33.8557C463.668 33.9469 463.389 33.9925 463.092 33.9925C462.584 33.9925 462.158 33.8968 461.815 33.7052C461.471 33.5137 461.211 33.2172 461.035 32.816C460.863 32.4146 460.777 31.8993 460.777 31.2701V26.3585H461.762V31.1879C461.762 31.8127 461.883 32.2801 462.125 32.5902C462.367 32.8957 462.736 33.0485 463.233 33.0485C463.709 33.0485 464.088 32.9437 464.369 32.7339C464.654 32.5241 464.859 32.2163 464.984 31.8104C465.109 31.4 465.172 30.8984 465.172 30.3055V26.3585H466.151ZM470.281 33.0622C470.442 33.0622 470.606 33.0462 470.774 33.0143C470.942 32.9825 471.078 32.9437 471.184 32.8981V33.7804C471.07 33.8397 470.912 33.8899 470.709 33.931C470.51 33.972 470.315 33.9925 470.123 33.9925C469.783 33.9925 469.475 33.9241 469.197 33.7873C468.92 33.6459 468.697 33.4088 468.529 33.0759C468.365 32.743 468.283 32.2824 468.283 31.6941V27.2478H467.369V26.6937L468.289 26.2491L468.676 24.621H469.262V26.3585H471.143V27.2478H469.262V31.6599C469.262 32.1297 469.354 32.4808 469.537 32.7134C469.725 32.9459 469.973 33.0622 470.281 33.0622Z" fill="#656565"/>
<path d="M407.545 33.7495C410.006 33.7495 412 31.4211 412 28.549C412 25.677 410.006 23.3486 407.545 23.3486C405.085 23.3486 403.091 25.677 403.091 28.549C403.091 31.4211 405.085 33.7495 407.545 33.7495Z" fill="#6259CE"/>
<path d="M342.925 24.7374C342.452 24.7374 342.026 24.8331 341.648 25.0246C341.273 25.2116 340.952 25.4853 340.687 25.8455C340.425 26.2013 340.224 26.6322 340.083 27.1384C339.942 27.6446 339.872 28.2146 339.872 28.8484C339.872 29.6876 339.983 30.4172 340.206 31.0374C340.433 31.6531 340.769 32.1297 341.214 32.467C341.663 32.8046 342.224 32.9732 342.896 32.9732C343.278 32.9732 343.638 32.9368 343.974 32.8639C344.314 32.7863 344.644 32.6906 344.964 32.5766V33.589C344.651 33.7258 344.323 33.8261 343.98 33.8899C343.636 33.9583 343.228 33.9925 342.755 33.9925C341.884 33.9925 341.155 33.7828 340.569 33.3632C339.987 32.939 339.55 32.3417 339.257 31.571C338.968 30.8003 338.823 29.8905 338.823 28.8417C338.823 28.0846 338.913 27.3937 339.093 26.769C339.276 26.1396 339.542 25.597 339.89 25.141C340.241 24.6849 340.671 24.3338 341.179 24.0875C341.69 23.8367 342.276 23.7112 342.937 23.7112C343.37 23.7112 343.788 23.7614 344.19 23.8618C344.593 23.9621 344.956 24.1057 345.28 24.2927L344.882 25.2777C344.608 25.1318 344.308 25.0064 343.98 24.9016C343.655 24.792 343.304 24.7374 342.925 24.7374ZM349.077 26.2355C349.843 26.2355 350.411 26.436 350.782 26.8374C351.153 27.2387 351.339 27.8795 351.339 28.7596V33.8557H350.63L350.442 32.7476H350.396C350.216 33.0212 350.028 33.2514 349.833 33.4385C349.638 33.6208 349.411 33.76 349.153 33.8557C348.899 33.9469 348.587 33.9925 348.216 33.9925C347.825 33.9925 347.478 33.9127 347.173 33.7531C346.872 33.5935 346.634 33.3518 346.458 33.028C346.286 32.7043 346.2 32.2938 346.2 31.7967C346.2 31.0488 346.454 30.4742 346.962 30.073C347.47 29.6716 348.243 29.4527 349.282 29.4163L350.39 29.3615V28.9032C350.39 28.2556 350.271 27.8019 350.032 27.542C349.794 27.282 349.458 27.152 349.024 27.152C348.689 27.152 348.368 27.209 348.064 27.3231C347.759 27.4371 347.47 27.5716 347.196 27.7266L346.898 26.8647C347.187 26.6915 347.519 26.5432 347.894 26.4202C348.269 26.297 348.663 26.2355 349.077 26.2355ZM350.378 30.1618L349.399 30.2098C348.599 30.2462 348.034 30.399 347.706 30.668C347.378 30.9371 347.214 31.3179 347.214 31.8104C347.214 32.239 347.325 32.556 347.548 32.7612C347.771 32.9665 348.065 33.0691 348.433 33.0691C349.003 33.0691 349.47 32.8844 349.833 32.515C350.196 32.1456 350.378 31.5915 350.378 30.8527V30.1618ZM357.497 31.8036C357.497 32.2824 357.394 32.6859 357.187 33.0143C356.983 33.3381 356.69 33.5821 356.308 33.7462C355.929 33.9105 355.476 33.9925 354.948 33.9925C354.499 33.9925 354.11 33.9514 353.782 33.8694C353.454 33.7873 353.167 33.671 352.921 33.5205V32.4739C353.183 32.6244 353.495 32.7612 353.858 32.8844C354.222 33.0075 354.593 33.0691 354.972 33.0691C355.526 33.0691 355.929 32.9641 356.179 32.7544C356.429 32.5447 356.554 32.2596 356.554 31.8993C356.554 31.6941 356.503 31.5139 356.401 31.3589C356.304 31.1993 356.138 31.0466 355.903 30.9007C355.669 30.7501 355.345 30.5859 354.931 30.4081C354.521 30.2257 354.165 30.0455 353.864 29.8677C353.567 29.6853 353.337 29.4642 353.173 29.2042C353.013 28.9443 352.933 28.6068 352.933 28.1918C352.933 27.558 353.151 27.0723 353.589 26.7348C354.03 26.3927 354.608 26.2217 355.323 26.2217C355.71 26.2217 356.071 26.2673 356.407 26.3585C356.747 26.4451 357.064 26.5638 357.357 26.7142L357.028 27.624C356.763 27.4918 356.48 27.38 356.179 27.2889C355.878 27.1977 355.571 27.152 355.259 27.152C354.81 27.152 354.464 27.2387 354.222 27.412C353.983 27.5853 353.864 27.8224 353.864 28.1233C353.864 28.356 353.919 28.5475 354.028 28.698C354.142 28.8484 354.321 28.9898 354.567 29.1221C354.814 29.2544 355.138 29.4094 355.54 29.5873C355.942 29.7606 356.29 29.9407 356.583 30.1276C356.876 30.3101 357.101 30.5335 357.257 30.7981C357.417 31.0579 357.497 31.3931 357.497 31.8036ZM360.034 23.2119V26.3927C360.034 26.5752 360.03 26.7599 360.023 26.9468C360.015 27.1293 360.001 27.298 359.982 27.453H360.046C360.179 27.1886 360.347 26.9673 360.55 26.7895C360.757 26.6071 360.991 26.4702 361.253 26.3791C361.515 26.2833 361.792 26.2355 362.085 26.2355C362.601 26.2355 363.03 26.3312 363.374 26.5228C363.722 26.7142 363.982 27.0107 364.153 27.412C364.329 27.8133 364.417 28.3331 364.417 28.9716V33.8557H363.456V29.0469C363.456 28.4221 363.333 27.9546 363.087 27.6446C362.845 27.3345 362.472 27.1793 361.968 27.1793C361.491 27.1793 361.11 27.2865 360.825 27.5009C360.544 27.7107 360.341 28.0208 360.216 28.4312C360.095 28.8417 360.034 29.3433 360.034 29.9361V33.8557H359.062V23.2119H360.034ZM370.511 26.3585V33.8557H369.538V26.3585H370.511ZM370.036 23.554C370.196 23.554 370.333 23.6155 370.446 23.7387C370.564 23.8572 370.622 24.0442 370.622 24.2996C370.622 24.5504 370.564 24.7374 370.446 24.8605C370.333 24.9836 370.196 25.0451 370.036 25.0451C369.868 25.0451 369.728 24.9836 369.614 24.8605C369.505 24.7374 369.45 24.5504 369.45 24.2996C369.45 24.0442 369.505 23.8572 369.614 23.7387C369.728 23.6155 369.868 23.554 370.036 23.554ZM375.614 26.2217C376.376 26.2217 376.952 26.4406 377.343 26.8784C377.733 27.3116 377.929 28.0094 377.929 28.9716V33.8557H376.968V29.0469C376.968 28.4221 376.845 27.9546 376.599 27.6446C376.357 27.3345 375.983 27.1793 375.48 27.1793C374.769 27.1793 374.269 27.4142 373.98 27.884C373.69 28.3537 373.546 29.0355 373.546 29.9293V33.8557H372.573V26.3585H373.358L373.505 27.4393H373.558C373.694 27.1748 373.868 26.9537 374.079 26.7758C374.29 26.5934 374.526 26.4566 374.788 26.3654C375.05 26.2697 375.325 26.2217 375.614 26.2217Z" fill="#656565"/>
<path d="M323.455 33.7495C325.915 33.7495 327.909 31.4211 327.909 28.549C327.909 25.677 325.915 23.3486 323.455 23.3486C320.994 23.3486 319 25.677 319 28.549C319 31.4211 320.994 33.7495 323.455 33.7495Z" fill="#FC605B"/>
</g>
</g>
<defs>
<clipPath id="clip0_3769_1100">
<rect width="530" height="251" fill="white"/>
</clipPath>
</defs>
</svg>
