<svg width="244" height="411" viewBox="0 0 244 411" fill="none" xmlns="http://www.w3.org/2000/svg">
<rect width="244" height="411" fill="white"/>
<path d="M18.1186 34V23.8182H21.7479C22.5367 23.8182 23.1913 23.9541 23.7116 24.2259C24.2353 24.4976 24.6264 24.8738 24.8849 25.3544C25.1435 25.8317 25.2727 26.3835 25.2727 27.0099C25.2727 27.633 25.1418 28.1816 24.88 28.6555C24.6214 29.1262 24.2304 29.4924 23.7067 29.7543C23.1863 30.0161 22.5317 30.147 21.7429 30.147H18.9936V28.8246H21.6037C22.1009 28.8246 22.5052 28.7533 22.8168 28.6108C23.1316 28.4683 23.362 28.2611 23.5078 27.9893C23.6536 27.7176 23.7266 27.3911 23.7266 27.0099C23.7266 26.6255 23.652 26.2924 23.5028 26.0107C23.357 25.7289 23.1267 25.5135 22.8118 25.3643C22.5002 25.2119 22.0909 25.1357 21.5838 25.1357H19.6548V34H18.1186ZM23.1449 29.4062L25.6605 34H23.9105L21.4446 29.4062H23.1449ZM30.2182 34.1541C29.4658 34.1541 28.8179 33.9934 28.2743 33.6719C27.7341 33.3471 27.3165 32.8913 27.0215 32.3047C26.7298 31.7147 26.584 31.0237 26.584 30.2315C26.584 29.4493 26.7298 28.7599 27.0215 28.1634C27.3165 27.5668 27.7275 27.1011 28.2544 26.7663C28.7847 26.4316 29.4045 26.2642 30.1138 26.2642C30.5447 26.2642 30.9623 26.3355 31.3667 26.478C31.771 26.6205 32.1339 26.8442 32.4554 27.1491C32.7769 27.4541 33.0305 27.8501 33.2161 28.3374C33.4017 28.8213 33.4945 29.4096 33.4945 30.1023V30.6293H27.4242V29.5156H32.0378C32.0378 29.1245 31.9583 28.7782 31.7992 28.4766C31.6401 28.1716 31.4164 27.9313 31.128 27.7557C30.843 27.58 30.5082 27.4922 30.1238 27.4922C29.7061 27.4922 29.3416 27.5949 29.03 27.8004C28.7218 28.0026 28.4831 28.2678 28.3141 28.5959C28.1484 28.9207 28.0655 29.2737 28.0655 29.6548V30.5249C28.0655 31.0353 28.155 31.4695 28.334 31.8274C28.5163 32.1854 28.7698 32.4588 29.0946 32.6477C29.4194 32.8333 29.7989 32.9261 30.2331 32.9261C30.5149 32.9261 30.7717 32.8864 31.0037 32.8068C31.2357 32.724 31.4363 32.6013 31.6053 32.4389C31.7743 32.2765 31.9036 32.076 31.9931 31.8374L33.4 32.0909C33.2873 32.5052 33.0852 32.8681 32.7935 33.1797C32.5051 33.4879 32.1422 33.7282 31.7047 33.9006C31.2705 34.0696 30.775 34.1541 30.2182 34.1541ZM41.4577 26.3636L38.6886 34H37.0977L34.3235 26.3636H35.9194L37.8533 32.2401H37.9329L39.8619 26.3636H41.4577ZM45.8862 34.1541C45.1338 34.1541 44.4859 33.9934 43.9423 33.6719C43.402 33.3471 42.9844 32.8913 42.6895 32.3047C42.3978 31.7147 42.252 31.0237 42.252 30.2315C42.252 29.4493 42.3978 28.7599 42.6895 28.1634C42.9844 27.5668 43.3954 27.1011 43.9224 26.7663C44.4527 26.4316 45.0725 26.2642 45.7818 26.2642C46.2127 26.2642 46.6303 26.3355 47.0346 26.478C47.439 26.6205 47.8019 26.8442 48.1234 27.1491C48.4449 27.4541 48.6984 27.8501 48.8841 28.3374C49.0697 28.8213 49.1625 29.4096 49.1625 30.1023V30.6293H43.0922V29.5156H47.7058C47.7058 29.1245 47.6262 28.7782 47.4672 28.4766C47.3081 28.1716 47.0843 27.9313 46.796 27.7557C46.5109 27.58 46.1762 27.4922 45.7917 27.4922C45.3741 27.4922 45.0095 27.5949 44.698 27.8004C44.3897 28.0026 44.1511 28.2678 43.9821 28.5959C43.8163 28.9207 43.7335 29.2737 43.7335 29.6548V30.5249C43.7335 31.0353 43.823 31.4695 44.002 31.8274C44.1842 32.1854 44.4378 32.4588 44.7626 32.6477C45.0874 32.8333 45.4669 32.9261 45.9011 32.9261C46.1828 32.9261 46.4397 32.8864 46.6717 32.8068C46.9037 32.724 47.1042 32.6013 47.2733 32.4389C47.4423 32.2765 47.5716 32.076 47.661 31.8374L49.068 32.0909C48.9553 32.5052 48.7531 32.8681 48.4615 33.1797C48.1731 33.4879 47.8102 33.7282 47.3727 33.9006C46.9385 34.0696 46.443 34.1541 45.8862 34.1541ZM52.2983 29.4659V34H50.8118V26.3636H52.2386V27.6065H52.3331C52.5088 27.2022 52.7839 26.8774 53.1584 26.6321C53.5362 26.3868 54.0118 26.2642 54.5852 26.2642C55.1056 26.2642 55.5613 26.3736 55.9524 26.5923C56.3435 26.8078 56.6468 27.1293 56.8622 27.5568C57.0777 27.9844 57.1854 28.513 57.1854 29.1428V34H55.6989V29.3217C55.6989 28.7682 55.5547 28.3357 55.2663 28.0241C54.978 27.7093 54.5819 27.5518 54.0781 27.5518C53.7334 27.5518 53.4268 27.6264 53.1584 27.7756C52.8932 27.9247 52.6828 28.1435 52.527 28.4318C52.3745 28.7169 52.2983 29.0616 52.2983 29.4659ZM64.0163 30.8331V26.3636H65.5078V34H64.0462V32.6776H63.9666C63.791 33.0852 63.5092 33.425 63.1214 33.6967C62.737 33.9652 62.258 34.0994 61.6847 34.0994C61.1941 34.0994 60.7599 33.9917 60.3821 33.7763C60.0076 33.5575 59.7126 33.2344 59.4972 32.8068C59.285 32.3793 59.179 31.8506 59.179 31.2209V26.3636H60.6655V31.0419C60.6655 31.5623 60.8097 31.9766 61.098 32.2848C61.3864 32.593 61.7609 32.7472 62.2216 32.7472C62.5 32.7472 62.7768 32.6776 63.0518 32.5384C63.3303 32.3991 63.5606 32.1887 63.7429 31.907C63.9285 31.6252 64.0196 31.2673 64.0163 30.8331ZM70.7963 34.1541C70.044 34.1541 69.396 33.9934 68.8525 33.6719C68.3122 33.3471 67.8946 32.8913 67.5996 32.3047C67.3079 31.7147 67.1621 31.0237 67.1621 30.2315C67.1621 29.4493 67.3079 28.7599 67.5996 28.1634C67.8946 27.5668 68.3056 27.1011 68.8326 26.7663C69.3629 26.4316 69.9827 26.2642 70.6919 26.2642C71.1228 26.2642 71.5404 26.3355 71.9448 26.478C72.3491 26.6205 72.7121 26.8442 73.0336 27.1491C73.3551 27.4541 73.6086 27.8501 73.7942 28.3374C73.9798 28.8213 74.0726 29.4096 74.0726 30.1023V30.6293H68.0023V29.5156H72.6159C72.6159 29.1245 72.5364 28.7782 72.3773 28.4766C72.2182 28.1716 71.9945 27.9313 71.7061 27.7557C71.4211 27.58 71.0864 27.4922 70.7019 27.4922C70.2843 27.4922 69.9197 27.5949 69.6081 27.8004C69.2999 28.0026 69.0613 28.2678 68.8922 28.5959C68.7265 28.9207 68.6436 29.2737 68.6436 29.6548V30.5249C68.6436 31.0353 68.7331 31.4695 68.9121 31.8274C69.0944 32.1854 69.348 32.4588 69.6728 32.6477C69.9976 32.8333 70.3771 32.9261 70.8113 32.9261C71.093 32.9261 71.3498 32.8864 71.5819 32.8068C71.8139 32.724 72.0144 32.6013 72.1834 32.4389C72.3525 32.2765 72.4817 32.076 72.5712 31.8374L73.9782 32.0909C73.8655 32.5052 73.6633 32.8681 73.3716 33.1797C73.0833 33.4879 72.7203 33.7282 72.2828 33.9006C71.8487 34.0696 71.3532 34.1541 70.7963 34.1541ZM83.0613 26.3636V27.5568H78.7459V26.3636H83.0613ZM79.9292 34V25.4787C79.9292 25.0014 80.0336 24.6053 80.2424 24.2905C80.4512 23.9723 80.7279 23.7353 81.0726 23.5795C81.4173 23.4205 81.7918 23.3409 82.1962 23.3409C82.4945 23.3409 82.7497 23.3658 82.9618 23.4155C83.1739 23.4619 83.3314 23.505 83.4341 23.5447L83.0861 24.7479C83.0165 24.728 82.927 24.7048 82.8176 24.6783C82.7083 24.6484 82.5757 24.6335 82.4199 24.6335C82.0587 24.6335 81.8001 24.723 81.6444 24.902C81.4919 25.081 81.4157 25.3395 81.4157 25.6776V34H79.9292ZM84.595 34V26.3636H86.0318V27.5767H86.1113C86.2505 27.1657 86.4958 26.8426 86.8471 26.6072C87.2018 26.3686 87.6028 26.2493 88.0502 26.2493C88.1431 26.2493 88.2524 26.2526 88.3784 26.2592C88.5076 26.2659 88.6087 26.2741 88.6816 26.2841V27.706C88.622 27.6894 88.5159 27.6712 88.3635 27.6513C88.211 27.6281 88.0585 27.6165 87.9061 27.6165C87.5547 27.6165 87.2415 27.6911 86.9664 27.8402C86.6947 27.986 86.4792 28.1899 86.3201 28.4517C86.161 28.7102 86.0815 29.0052 86.0815 29.3366V34H84.595ZM92.9112 34.1541C92.1953 34.1541 91.5705 33.9901 91.0369 33.6619C90.5033 33.3338 90.089 32.8748 89.794 32.2848C89.4991 31.6948 89.3516 31.0054 89.3516 30.2166C89.3516 29.4245 89.4991 28.7318 89.794 28.1385C90.089 27.5452 90.5033 27.0845 91.0369 26.7564C91.5705 26.4283 92.1953 26.2642 92.9112 26.2642C93.6271 26.2642 94.2519 26.4283 94.7855 26.7564C95.3191 27.0845 95.7334 27.5452 96.0284 28.1385C96.3234 28.7318 96.4709 29.4245 96.4709 30.2166C96.4709 31.0054 96.3234 31.6948 96.0284 32.2848C95.7334 32.8748 95.3191 33.3338 94.7855 33.6619C94.2519 33.9901 93.6271 34.1541 92.9112 34.1541ZM92.9162 32.9062C93.3802 32.9062 93.7647 32.7836 94.0696 32.5384C94.3745 32.2931 94.5999 31.9666 94.7457 31.5589C94.8949 31.1513 94.9695 30.7022 94.9695 30.2116C94.9695 29.7244 94.8949 29.277 94.7457 28.8693C94.5999 28.4583 94.3745 28.1286 94.0696 27.88C93.7647 27.6314 93.3802 27.5071 92.9162 27.5071C92.4489 27.5071 92.0611 27.6314 91.7528 27.88C91.4479 28.1286 91.2209 28.4583 91.0717 28.8693C90.9259 29.277 90.853 29.7244 90.853 30.2116C90.853 30.7022 90.9259 31.1513 91.0717 31.5589C91.2209 31.9666 91.4479 32.2931 91.7528 32.5384C92.0611 32.7836 92.4489 32.9062 92.9162 32.9062ZM98.1301 34V26.3636H99.557V27.6065H99.6515C99.8105 27.1856 100.071 26.8575 100.432 26.6222C100.793 26.3835 101.226 26.2642 101.73 26.2642C102.24 26.2642 102.668 26.3835 103.012 26.6222C103.36 26.8608 103.617 27.1889 103.783 27.6065H103.862C104.045 27.1989 104.335 26.8741 104.732 26.6321C105.13 26.3868 105.604 26.2642 106.154 26.2642C106.847 26.2642 107.412 26.4813 107.85 26.9155C108.29 27.3497 108.511 28.0043 108.511 28.8793V34H107.024V29.0185C107.024 28.5014 106.883 28.1269 106.602 27.8949C106.32 27.6629 105.984 27.5469 105.593 27.5469C105.109 27.5469 104.732 27.696 104.464 27.9943C104.195 28.2893 104.061 28.6688 104.061 29.1328V34H102.58V28.924C102.58 28.5097 102.45 28.1766 102.192 27.9247C101.933 27.6728 101.597 27.5469 101.183 27.5469C100.901 27.5469 100.641 27.6214 100.402 27.7706C100.167 27.9164 99.9763 28.1203 99.8304 28.3821C99.6879 28.6439 99.6167 28.9472 99.6167 29.2919V34H98.1301ZM119.881 26.4929C119.828 26.0223 119.609 25.6577 119.225 25.3991C118.84 25.1373 118.356 25.0064 117.773 25.0064C117.355 25.0064 116.994 25.0727 116.689 25.2053C116.384 25.3345 116.147 25.5135 115.978 25.7422C115.812 25.9676 115.73 26.2244 115.73 26.5128C115.73 26.7547 115.786 26.9635 115.899 27.1392C116.015 27.3149 116.165 27.4624 116.351 27.5817C116.54 27.6977 116.742 27.7955 116.958 27.875C117.173 27.9512 117.38 28.0142 117.579 28.0639L118.573 28.3224C118.898 28.402 119.231 28.5097 119.573 28.6456C119.914 28.7815 120.231 28.9605 120.522 29.1825C120.814 29.4046 121.049 29.6797 121.228 30.0078C121.41 30.3359 121.502 30.7287 121.502 31.1861C121.502 31.7628 121.352 32.2749 121.054 32.7223C120.759 33.1697 120.33 33.5227 119.767 33.7812C119.206 34.0398 118.529 34.169 117.733 34.169C116.971 34.169 116.311 34.0481 115.754 33.8061C115.198 33.5642 114.762 33.2211 114.447 32.777C114.132 32.3295 113.958 31.7992 113.925 31.1861H115.466C115.496 31.554 115.615 31.8606 115.824 32.1058C116.036 32.3478 116.306 32.5284 116.634 32.6477C116.966 32.7637 117.329 32.8217 117.723 32.8217C118.157 32.8217 118.544 32.7538 118.882 32.6179C119.223 32.4787 119.491 32.2865 119.687 32.0412C119.883 31.7926 119.98 31.5026 119.98 31.1712C119.98 30.8696 119.894 30.6226 119.722 30.4304C119.553 30.2382 119.322 30.0791 119.031 29.9531C118.742 29.8272 118.416 29.7161 118.051 29.62L116.848 29.2919C116.033 29.0698 115.387 28.7434 114.909 28.3125C114.435 27.8816 114.198 27.3116 114.198 26.6023C114.198 26.0156 114.357 25.5036 114.676 25.0661C114.994 24.6286 115.425 24.2888 115.968 24.0469C116.512 23.8016 117.125 23.679 117.808 23.679C118.497 23.679 119.105 23.8 119.632 24.0419C120.163 24.2839 120.58 24.617 120.885 25.0412C121.19 25.4621 121.349 25.946 121.362 26.4929H119.881ZM125.44 34.169C124.956 34.169 124.519 34.0795 124.128 33.9006C123.737 33.7183 123.427 33.4548 123.198 33.1101C122.973 32.7654 122.86 32.3428 122.86 31.8423C122.86 31.4115 122.943 31.0568 123.109 30.7784C123.274 30.5 123.498 30.2796 123.78 30.1172C124.062 29.9548 124.376 29.8321 124.724 29.7493C125.072 29.6664 125.427 29.6035 125.788 29.5604C126.246 29.5073 126.617 29.4643 126.902 29.4311C127.187 29.3946 127.394 29.3366 127.523 29.2571C127.653 29.1776 127.717 29.0483 127.717 28.8693V28.8345C127.717 28.4003 127.595 28.0639 127.349 27.8253C127.107 27.5866 126.746 27.4673 126.266 27.4673C125.765 27.4673 125.371 27.5784 125.082 27.8004C124.797 28.0192 124.6 28.2628 124.491 28.5312L123.094 28.2131C123.259 27.7491 123.501 27.3745 123.82 27.0895C124.141 26.8011 124.511 26.5923 124.928 26.4631C125.346 26.3305 125.785 26.2642 126.246 26.2642C126.551 26.2642 126.874 26.3007 127.215 26.3736C127.56 26.4432 127.881 26.5724 128.18 26.7614C128.481 26.9503 128.728 27.2204 128.92 27.5717C129.113 27.9197 129.209 28.3722 129.209 28.929V34H127.757V32.956H127.697C127.601 33.1482 127.457 33.3371 127.265 33.5227C127.073 33.7083 126.826 33.8625 126.524 33.9851C126.223 34.1077 125.861 34.169 125.44 34.169ZM125.763 32.9759C126.174 32.9759 126.526 32.8946 126.817 32.7322C127.112 32.5698 127.336 32.3577 127.489 32.0959C127.644 31.8307 127.722 31.5473 127.722 31.2457V30.2614C127.669 30.3144 127.567 30.3641 127.414 30.4105C127.265 30.4536 127.094 30.4917 126.902 30.5249C126.71 30.5547 126.522 30.5829 126.34 30.6094C126.158 30.6326 126.005 30.6525 125.883 30.669C125.594 30.7055 125.331 30.7668 125.092 30.853C124.857 30.9392 124.668 31.0634 124.526 31.2259C124.386 31.3849 124.317 31.5971 124.317 31.8622C124.317 32.2301 124.453 32.5085 124.724 32.6974C124.996 32.883 125.343 32.9759 125.763 32.9759ZM132.675 23.8182V34H131.189V23.8182H132.675ZM137.966 34.1541C137.214 34.1541 136.566 33.9934 136.022 33.6719C135.482 33.3471 135.065 32.8913 134.77 32.3047C134.478 31.7147 134.332 31.0237 134.332 30.2315C134.332 29.4493 134.478 28.7599 134.77 28.1634C135.065 27.5668 135.475 27.1011 136.002 26.7663C136.533 26.4316 137.153 26.2642 137.862 26.2642C138.293 26.2642 138.71 26.3355 139.115 26.478C139.519 26.6205 139.882 26.8442 140.203 27.1491C140.525 27.4541 140.779 27.8501 140.964 28.3374C141.15 28.8213 141.243 29.4096 141.243 30.1023V30.6293H135.172V29.5156H139.786C139.786 29.1245 139.706 28.7782 139.547 28.4766C139.388 28.1716 139.164 27.9313 138.876 27.7557C138.591 27.58 138.256 27.4922 137.872 27.4922C137.454 27.4922 137.09 27.5949 136.778 27.8004C136.47 28.0026 136.231 28.2678 136.062 28.5959C135.896 28.9207 135.814 29.2737 135.814 29.6548V30.5249C135.814 31.0353 135.903 31.4695 136.082 31.8274C136.264 32.1854 136.518 32.4588 136.843 32.6477C137.167 32.8333 137.547 32.9261 137.981 32.9261C138.263 32.9261 138.52 32.8864 138.752 32.8068C138.984 32.724 139.184 32.6013 139.353 32.4389C139.522 32.2765 139.652 32.076 139.741 31.8374L141.148 32.0909C141.035 32.5052 140.833 32.8681 140.542 33.1797C140.253 33.4879 139.89 33.7282 139.453 33.9006C139.019 34.0696 138.523 34.1541 137.966 34.1541ZM148.614 28.228L147.267 28.4666C147.211 28.2943 147.121 28.1302 146.998 27.9744C146.879 27.8187 146.717 27.6911 146.511 27.5916C146.306 27.4922 146.049 27.4425 145.741 27.4425C145.32 27.4425 144.968 27.5369 144.687 27.7259C144.405 27.9115 144.264 28.1518 144.264 28.4467C144.264 28.7019 144.358 28.9074 144.547 29.0632C144.736 29.219 145.041 29.3466 145.462 29.446L146.675 29.7244C147.378 29.8868 147.902 30.1371 148.246 30.4751C148.591 30.8132 148.763 31.2524 148.763 31.7926C148.763 32.25 148.631 32.6577 148.366 33.0156C148.104 33.3703 147.738 33.6487 147.267 33.8509C146.8 34.053 146.258 34.1541 145.641 34.1541C144.786 34.1541 144.088 33.9718 143.548 33.6072C143.008 33.2393 142.676 32.7173 142.554 32.0412L143.991 31.8224C144.08 32.197 144.264 32.4804 144.542 32.6726C144.821 32.8615 145.184 32.956 145.631 32.956C146.118 32.956 146.508 32.8549 146.8 32.6527C147.091 32.4472 147.237 32.197 147.237 31.902C147.237 31.6634 147.148 31.4628 146.969 31.3004C146.793 31.138 146.523 31.0154 146.158 30.9325L144.866 30.6491C144.153 30.4867 143.626 30.2282 143.285 29.8736C142.947 29.5189 142.778 29.0698 142.778 28.5263C142.778 28.0755 142.903 27.6811 143.155 27.343C143.407 27.005 143.755 26.7415 144.199 26.5526C144.644 26.3603 145.152 26.2642 145.726 26.2642C146.551 26.2642 147.201 26.4432 147.675 26.8011C148.148 27.1558 148.462 27.6314 148.614 28.228Z" fill="#2E2E67"/>
<path d="M144.125 229.87V228.916L147.079 225.856C147.394 225.524 147.654 225.232 147.858 224.982C148.066 224.729 148.221 224.489 148.323 224.262C148.425 224.035 148.476 223.793 148.476 223.538C148.476 223.248 148.408 222.998 148.272 222.788C148.135 222.575 147.949 222.411 147.713 222.298C147.478 222.181 147.212 222.123 146.917 222.123C146.604 222.123 146.331 222.187 146.098 222.315C145.865 222.443 145.686 222.623 145.561 222.856C145.436 223.089 145.374 223.362 145.374 223.674H144.117C144.117 223.143 144.239 222.678 144.483 222.281C144.728 221.883 145.063 221.575 145.489 221.356C145.915 221.134 146.4 221.024 146.942 221.024C147.49 221.024 147.973 221.133 148.391 221.352C148.811 221.568 149.14 221.863 149.375 222.238C149.611 222.61 149.729 223.031 149.729 223.499C149.729 223.823 149.668 224.14 149.546 224.45C149.427 224.759 149.218 225.104 148.919 225.485C148.621 225.863 148.206 226.322 147.675 226.862L145.941 228.677V228.741H149.87V229.87H144.125ZM154.523 230.015C153.85 230.012 153.275 229.835 152.797 229.482C152.32 229.13 151.955 228.617 151.702 227.944C151.449 227.271 151.323 226.46 151.323 225.511C151.323 224.565 151.449 223.756 151.702 223.086C151.958 222.416 152.324 221.904 152.802 221.552C153.282 221.2 153.855 221.024 154.523 221.024C155.191 221.024 155.763 221.201 156.24 221.556C156.718 221.908 157.083 222.42 157.336 223.09C157.591 223.758 157.719 224.565 157.719 225.511C157.719 226.462 157.593 227.275 157.34 227.948C157.087 228.619 156.722 229.131 156.245 229.487C155.767 229.839 155.194 230.015 154.523 230.015ZM154.523 228.877C155.114 228.877 155.576 228.589 155.908 228.012C156.243 227.435 156.411 226.602 156.411 225.511C156.411 224.786 156.334 224.174 156.181 223.674C156.03 223.171 155.813 222.791 155.529 222.532C155.248 222.271 154.912 222.14 154.523 222.14C153.935 222.14 153.473 222.43 153.138 223.009C152.803 223.589 152.634 224.423 152.631 225.511C152.631 226.238 152.706 226.853 152.857 227.356C153.01 227.856 153.228 228.235 153.509 228.494C153.79 228.749 154.128 228.877 154.523 228.877ZM159.231 229.87V228.916L162.184 225.856C162.499 225.524 162.759 225.232 162.964 224.982C163.171 224.729 163.326 224.489 163.428 224.262C163.531 224.035 163.582 223.793 163.582 223.538C163.582 223.248 163.514 222.998 163.377 222.788C163.241 222.575 163.055 222.411 162.819 222.298C162.583 222.181 162.317 222.123 162.022 222.123C161.71 222.123 161.437 222.187 161.204 222.315C160.971 222.443 160.792 222.623 160.667 222.856C160.542 223.089 160.479 223.362 160.479 223.674H159.222C159.222 223.143 159.344 222.678 159.589 222.281C159.833 221.883 160.168 221.575 160.594 221.356C161.021 221.134 161.505 221.024 162.048 221.024C162.596 221.024 163.079 221.133 163.496 221.352C163.917 221.568 164.245 221.863 164.481 222.238C164.717 222.61 164.835 223.031 164.835 223.499C164.835 223.823 164.773 224.14 164.651 224.45C164.532 224.759 164.323 225.104 164.025 225.485C163.727 225.863 163.312 226.322 162.781 226.862L161.046 228.677V228.741H164.975V229.87H159.231ZM166.219 228.166V227.1L169.991 221.143H170.83V222.711H170.298L167.6 226.981V227.049H172.769V228.166H166.219ZM170.357 229.87V227.842L170.366 227.356V221.143H171.614V229.87H170.357ZM178.128 224.953V226.06H174.259V224.953H178.128ZM179.457 229.87V228.916L182.411 225.856C182.726 225.524 182.986 225.232 183.19 224.982C183.398 224.729 183.553 224.489 183.655 224.262C183.757 224.035 183.808 223.793 183.808 223.538C183.808 223.248 183.74 222.998 183.604 222.788C183.467 222.575 183.281 222.411 183.045 222.298C182.81 222.181 182.544 222.123 182.249 222.123C181.936 222.123 181.663 222.187 181.43 222.315C181.197 222.443 181.018 222.623 180.893 222.856C180.768 223.089 180.706 223.362 180.706 223.674H179.449C179.449 223.143 179.571 222.678 179.815 222.281C180.06 221.883 180.395 221.575 180.821 221.356C181.247 221.134 181.732 221.024 182.274 221.024C182.822 221.024 183.305 221.133 183.723 221.352C184.143 221.568 184.472 221.863 184.707 222.238C184.943 222.61 185.061 223.031 185.061 223.499C185.061 223.823 185 224.14 184.878 224.45C184.759 224.759 184.55 225.104 184.251 225.485C183.953 225.863 183.538 226.322 183.007 226.862L181.273 228.677V228.741H185.202V229.87H179.457ZM189.697 229.989C189.163 229.989 188.683 229.887 188.257 229.683C187.834 229.475 187.496 229.191 187.243 228.83C186.99 228.47 186.855 228.058 186.838 227.595H188.116C188.148 227.97 188.314 228.278 188.615 228.519C188.916 228.761 189.277 228.881 189.697 228.881C190.033 228.881 190.33 228.805 190.588 228.651C190.849 228.495 191.054 228.281 191.202 228.008C191.352 227.735 191.428 227.424 191.428 227.075C191.428 226.72 191.351 226.403 191.197 226.124C191.044 225.846 190.832 225.627 190.563 225.468C190.295 225.309 189.989 225.228 189.642 225.225C189.378 225.225 189.112 225.271 188.845 225.362C188.578 225.453 188.362 225.572 188.197 225.72L186.991 225.541L187.482 221.143H192.28V222.272H188.577L188.3 224.714H188.351C188.521 224.549 188.747 224.411 189.028 224.301C189.313 224.19 189.616 224.134 189.94 224.134C190.472 224.134 190.945 224.261 191.359 224.514C191.777 224.766 192.105 225.112 192.344 225.549C192.585 225.984 192.705 226.484 192.702 227.049C192.705 227.614 192.577 228.119 192.318 228.562C192.063 229.005 191.707 229.354 191.253 229.61C190.801 229.863 190.283 229.989 189.697 229.989Z" fill="#2E2E67"/>
<path d="M147.225 248.916V238.007H147.924V248.916H147.225ZM149.411 241.391C149.366 240.987 149.178 240.675 148.849 240.453C148.519 240.229 148.104 240.116 147.604 240.116C147.247 240.116 146.937 240.173 146.676 240.287C146.414 240.398 146.211 240.551 146.066 240.747C145.924 240.94 145.853 241.16 145.853 241.408C145.853 241.615 145.901 241.794 145.998 241.945C146.097 242.095 146.227 242.222 146.386 242.324C146.548 242.423 146.721 242.507 146.906 242.575C147.09 242.641 147.268 242.695 147.438 242.737L148.291 242.959C148.569 243.027 148.854 243.119 149.147 243.236C149.44 243.352 149.711 243.506 149.961 243.696C150.211 243.886 150.413 244.122 150.566 244.403C150.722 244.685 150.801 245.021 150.801 245.413C150.801 245.908 150.673 246.347 150.417 246.73C150.164 247.114 149.796 247.416 149.313 247.638C148.833 247.859 148.252 247.97 147.57 247.97C146.917 247.97 146.352 247.866 145.874 247.659C145.397 247.452 145.024 247.158 144.754 246.777C144.484 246.393 144.335 245.939 144.306 245.413H145.627C145.653 245.729 145.755 245.991 145.934 246.202C146.116 246.409 146.347 246.564 146.629 246.666C146.913 246.766 147.224 246.815 147.562 246.815C147.934 246.815 148.265 246.757 148.555 246.641C148.847 246.521 149.078 246.356 149.245 246.146C149.413 245.933 149.497 245.685 149.497 245.4C149.497 245.142 149.423 244.93 149.275 244.766C149.13 244.601 148.933 244.464 148.683 244.356C148.435 244.248 148.156 244.153 147.843 244.071L146.812 243.79C146.113 243.599 145.559 243.32 145.15 242.95C144.744 242.581 144.541 242.092 144.541 241.484C144.541 240.981 144.677 240.543 144.95 240.168C145.222 239.793 145.592 239.501 146.058 239.294C146.524 239.084 147.049 238.979 147.634 238.979C148.225 238.979 148.747 239.082 149.198 239.29C149.653 239.497 150.011 239.783 150.272 240.146C150.533 240.507 150.67 240.922 150.681 241.391H149.411ZM155.293 247.945C154.708 247.945 154.185 247.844 153.725 247.642C153.267 247.44 152.905 247.16 152.638 246.802C152.374 246.442 152.232 246.024 152.212 245.55H153.55C153.567 245.808 153.654 246.033 153.81 246.223C153.969 246.41 154.177 246.555 154.432 246.658C154.688 246.76 154.972 246.811 155.285 246.811C155.628 246.811 155.932 246.751 156.196 246.632C156.464 246.513 156.672 246.347 156.823 246.133C156.973 245.918 157.049 245.669 157.049 245.388C157.049 245.095 156.973 244.838 156.823 244.616C156.675 244.392 156.458 244.216 156.171 244.088C155.887 243.96 155.543 243.896 155.14 243.896H154.402V242.822H155.14C155.464 242.822 155.748 242.764 155.992 242.648C156.239 242.531 156.432 242.369 156.571 242.162C156.711 241.952 156.78 241.706 156.78 241.425C156.78 241.155 156.719 240.92 156.597 240.722C156.478 240.52 156.307 240.362 156.086 240.248C155.867 240.135 155.608 240.078 155.31 240.078C155.026 240.078 154.76 240.131 154.513 240.236C154.269 240.338 154.07 240.486 153.917 240.679C153.763 240.869 153.681 241.098 153.669 241.365H152.395C152.41 240.893 152.549 240.479 152.813 240.121C153.08 239.763 153.432 239.483 153.87 239.281C154.307 239.079 154.793 238.979 155.327 238.979C155.887 238.979 156.37 239.088 156.776 239.307C157.185 239.523 157.5 239.811 157.722 240.172C157.946 240.533 158.057 240.927 158.054 241.356C158.057 241.845 157.921 242.26 157.645 242.601C157.373 242.942 157.009 243.17 156.554 243.287V243.355C157.134 243.443 157.583 243.673 157.901 244.045C158.222 244.418 158.381 244.879 158.378 245.43C158.381 245.91 158.248 246.341 157.978 246.722C157.711 247.102 157.346 247.402 156.883 247.621C156.419 247.837 155.89 247.945 155.293 247.945ZM160.588 247.906C160.355 247.906 160.155 247.824 159.987 247.659C159.819 247.491 159.736 247.29 159.736 247.054C159.736 246.821 159.819 246.622 159.987 246.457C160.155 246.29 160.355 246.206 160.588 246.206C160.821 246.206 161.021 246.29 161.189 246.457C161.356 246.622 161.44 246.821 161.44 247.054C161.44 247.21 161.4 247.354 161.321 247.484C161.244 247.612 161.142 247.714 161.014 247.791C160.886 247.868 160.744 247.906 160.588 247.906ZM165.926 238.979C166.315 238.981 166.699 239.052 167.077 239.192C167.455 239.331 167.796 239.558 168.1 239.873C168.406 240.189 168.651 240.615 168.832 241.152C169.017 241.686 169.111 242.351 169.114 243.146C169.114 243.91 169.037 244.591 168.884 245.187C168.73 245.781 168.51 246.283 168.223 246.692C167.939 247.101 167.594 247.412 167.188 247.625C166.781 247.838 166.324 247.945 165.815 247.945C165.296 247.945 164.834 247.842 164.43 247.638C164.027 247.433 163.699 247.15 163.446 246.79C163.193 246.426 163.036 246.008 162.973 245.537H164.273C164.358 245.912 164.531 246.216 164.793 246.449C165.057 246.679 165.398 246.794 165.815 246.794C166.455 246.794 166.953 246.516 167.311 245.959C167.669 245.399 167.85 244.618 167.852 243.615H167.784C167.636 243.859 167.452 244.07 167.23 244.246C167.011 244.422 166.766 244.558 166.493 244.655C166.22 244.751 165.929 244.8 165.619 244.8C165.117 244.8 164.659 244.676 164.247 244.429C163.835 244.182 163.507 243.842 163.263 243.41C163.019 242.979 162.896 242.486 162.896 241.932C162.896 241.381 163.021 240.881 163.271 240.432C163.524 239.983 163.877 239.628 164.328 239.366C164.783 239.102 165.315 238.973 165.926 238.979ZM165.93 240.087C165.598 240.087 165.298 240.169 165.031 240.334C164.767 240.496 164.558 240.716 164.405 240.994C164.252 241.27 164.175 241.577 164.175 241.915C164.175 242.253 164.249 242.56 164.396 242.835C164.547 243.108 164.752 243.325 165.01 243.487C165.271 243.646 165.57 243.726 165.905 243.726C166.155 243.726 166.388 243.677 166.604 243.581C166.82 243.484 167.009 243.351 167.171 243.18C167.332 243.007 167.459 242.811 167.55 242.592C167.641 242.373 167.686 242.143 167.686 241.902C167.686 241.581 167.609 241.283 167.456 241.007C167.305 240.731 167.098 240.51 166.834 240.342C166.57 240.172 166.269 240.087 165.93 240.087ZM173.948 239.098H175.546L178.325 245.882H178.427L181.205 239.098H182.803V247.825H181.551V241.51H181.47L178.896 247.812H177.856L175.282 241.506H175.201V247.825H173.948V239.098ZM185.89 243.939V247.825H184.616V241.28H185.839V242.345H185.919C186.07 241.998 186.306 241.72 186.627 241.51C186.951 241.3 187.358 241.195 187.85 241.195C188.296 241.195 188.687 241.288 189.022 241.476C189.357 241.66 189.617 241.936 189.802 242.302C189.986 242.669 190.079 243.122 190.079 243.662V247.825H188.804V243.815C188.804 243.341 188.681 242.97 188.434 242.703C188.187 242.433 187.847 242.298 187.415 242.298C187.12 242.298 186.857 242.362 186.627 242.49C186.4 242.618 186.219 242.805 186.086 243.052C185.955 243.297 185.89 243.592 185.89 243.939Z" fill="#2E2E67"/>
<path d="M138.111 211.255H198.111V68.9999C198.111 64.5816 194.53 60.9999 190.111 60.9999H146.111C141.693 60.9999 138.111 64.5816 138.111 68.9999V211.255Z" fill="#8674FE"/>
<path d="M44.8312 229.87V228.916L47.7843 225.856C48.0997 225.524 48.3596 225.232 48.5642 224.982C48.7716 224.729 48.9264 224.489 49.0287 224.262C49.1309 224.035 49.1821 223.793 49.1821 223.538C49.1821 223.248 49.1139 222.998 48.9775 222.788C48.8412 222.575 48.6551 222.411 48.4193 222.298C48.1835 222.181 47.9179 222.123 47.6224 222.123C47.3099 222.123 47.0372 222.187 46.8042 222.315C46.5713 222.443 46.3923 222.623 46.2673 222.856C46.1423 223.089 46.0798 223.362 46.0798 223.674H44.8227C44.8227 223.143 44.9449 222.678 45.1892 222.281C45.4335 221.883 45.7687 221.575 46.1949 221.356C46.621 221.134 47.1054 221.024 47.648 221.024C48.1963 221.024 48.6792 221.133 49.0968 221.352C49.5173 221.568 49.8454 221.863 50.0812 222.238C50.317 222.61 50.4349 223.031 50.4349 223.499C50.4349 223.823 50.3738 224.14 50.2517 224.45C50.1324 224.759 49.9235 225.104 49.6253 225.485C49.327 225.863 48.9122 226.322 48.3809 226.862L46.6466 228.677V228.741H50.5755V229.87H44.8312ZM55.2289 230.015C54.5556 230.012 53.9804 229.835 53.5031 229.482C53.0258 229.13 52.6608 228.617 52.4079 227.944C52.1551 227.271 52.0287 226.46 52.0287 225.511C52.0287 224.565 52.1551 223.756 52.4079 223.086C52.6636 222.416 53.0301 221.904 53.5074 221.552C53.9875 221.2 54.5613 221.024 55.2289 221.024C55.8966 221.024 56.469 221.201 56.9463 221.556C57.4235 221.908 57.7886 222.42 58.0414 223.09C58.2971 223.758 58.425 224.565 58.425 225.511C58.425 226.462 58.2985 227.275 58.0457 227.948C57.7929 228.619 57.4278 229.131 56.9505 229.487C56.4733 229.839 55.8994 230.015 55.2289 230.015ZM55.2289 228.877C55.8199 228.877 56.2815 228.589 56.6139 228.012C56.9491 227.435 57.1167 226.602 57.1167 225.511C57.1167 224.786 57.04 224.174 56.8866 223.674C56.736 223.171 56.5187 222.791 56.2346 222.532C55.9534 222.271 55.6181 222.14 55.2289 222.14C54.6409 222.14 54.1792 222.43 53.844 223.009C53.5088 223.589 53.3397 224.423 53.3369 225.511C53.3369 226.238 53.4122 226.853 53.5628 227.356C53.7162 227.856 53.9335 228.235 54.2147 228.494C54.496 228.749 54.8341 228.877 55.2289 228.877ZM59.9367 229.87V228.916L62.8898 225.856C63.2052 225.524 63.4651 225.232 63.6696 224.982C63.877 224.729 64.0319 224.489 64.1341 224.262C64.2364 224.035 64.2875 223.793 64.2875 223.538C64.2875 223.248 64.2194 222.998 64.083 222.788C63.9466 222.575 63.7605 222.411 63.5248 222.298C63.289 222.181 63.0233 222.123 62.7279 222.123C62.4154 222.123 62.1427 222.187 61.9097 222.315C61.6767 222.443 61.4978 222.623 61.3728 222.856C61.2478 223.089 61.1853 223.362 61.1853 223.674H59.9282C59.9282 223.143 60.0503 222.678 60.2946 222.281C60.539 221.883 60.8742 221.575 61.3003 221.356C61.7265 221.134 62.2108 221.024 62.7534 221.024C63.3017 221.024 63.7847 221.133 64.2023 221.352C64.6228 221.568 64.9509 221.863 65.1867 222.238C65.4225 222.61 65.5404 223.031 65.5404 223.499C65.5404 223.823 65.4793 224.14 65.3571 224.45C65.2378 224.759 65.029 225.104 64.7307 225.485C64.4324 225.863 64.0177 226.322 63.4864 226.862L61.752 228.677V228.741H65.681V229.87H59.9367ZM70.3344 229.989C69.7492 229.989 69.2265 229.889 68.7662 229.687C68.3088 229.485 67.9466 229.205 67.6796 228.847C67.4154 228.487 67.2733 228.069 67.2534 227.595H68.5915C68.6086 227.853 68.6952 228.078 68.8515 228.268C69.0105 228.455 69.2179 228.6 69.4736 228.703C69.7293 228.805 70.0134 228.856 70.3259 228.856C70.6696 228.856 70.9736 228.796 71.2378 228.677C71.5049 228.558 71.7137 228.391 71.8642 228.178C72.0148 227.962 72.0901 227.714 72.0901 227.433C72.0901 227.14 72.0148 226.883 71.8642 226.661C71.7165 226.437 71.4992 226.261 71.2123 226.133C70.9282 226.005 70.5844 225.941 70.181 225.941H69.4438V224.867H70.181C70.5049 224.867 70.789 224.809 71.0333 224.693C71.2804 224.576 71.4736 224.414 71.6128 224.207C71.752 223.997 71.8216 223.751 71.8216 223.47C71.8216 223.2 71.7605 222.965 71.6384 222.766C71.5191 222.565 71.3486 222.407 71.127 222.293C70.9083 222.18 70.6498 222.123 70.3515 222.123C70.0674 222.123 69.8017 222.176 69.5546 222.281C69.3103 222.383 69.1114 222.531 68.958 222.724C68.8046 222.914 68.7222 223.143 68.7108 223.41H67.4367C67.4509 222.938 67.5901 222.524 67.8543 222.166C68.1213 221.808 68.4736 221.528 68.9111 221.326C69.3486 221.124 69.8344 221.024 70.3685 221.024C70.9282 221.024 71.4111 221.133 71.8174 221.352C72.2265 221.568 72.5418 221.856 72.7634 222.217C72.9878 222.578 73.0986 222.972 73.0958 223.401C73.0986 223.89 72.9623 224.305 72.6867 224.646C72.414 224.987 72.0503 225.215 71.5958 225.332V225.4C72.1753 225.488 72.6242 225.718 72.9424 226.09C73.2634 226.462 73.4225 226.924 73.4196 227.475C73.4225 227.955 73.289 228.386 73.0191 228.766C72.752 229.147 72.387 229.447 71.9239 229.666C71.4608 229.881 70.931 229.989 70.3344 229.989ZM78.904 224.953V226.06H75.0347V224.953H78.904ZM80.2336 229.87V228.916L83.1867 225.856C83.502 225.524 83.762 225.232 83.9665 224.982C84.1739 224.729 84.3287 224.489 84.431 224.262C84.5333 224.035 84.5844 223.793 84.5844 223.538C84.5844 223.248 84.5162 222.998 84.3799 222.788C84.2435 222.575 84.0574 222.411 83.8216 222.298C83.5858 222.181 83.3202 222.123 83.0248 222.123C82.7123 222.123 82.4395 222.187 82.2066 222.315C81.9736 222.443 81.7946 222.623 81.6696 222.856C81.5446 223.089 81.4821 223.362 81.4821 223.674H80.225C80.225 223.143 80.3472 222.678 80.5915 222.281C80.8358 221.883 81.1711 221.575 81.5972 221.356C82.0233 221.134 82.5077 221.024 83.0503 221.024C83.5986 221.024 84.0816 221.133 84.4992 221.352C84.9196 221.568 85.2478 221.863 85.4836 222.238C85.7194 222.61 85.8373 223.031 85.8373 223.499C85.8373 223.823 85.7762 224.14 85.654 224.45C85.5347 224.759 85.3259 225.104 85.0276 225.485C84.7293 225.863 84.3145 226.322 83.7833 226.862L82.0489 228.677V228.741H85.9779V229.87H80.2336ZM87.2222 228.166V227.1L90.9935 221.143H91.833V222.711H91.3003L88.6029 226.981V227.049H93.7719V228.166H87.2222ZM91.36 229.87V227.842L91.3685 227.356V221.143H92.6171V229.87H91.36Z" fill="#2E2E67"/>
<path d="M45.6865 247.971V237.062H46.3854V247.971H45.6865ZM47.8726 240.445C47.8271 240.042 47.6396 239.729 47.3101 239.508C46.9805 239.283 46.5658 239.171 46.0658 239.171C45.7078 239.171 45.3982 239.228 45.1368 239.342C44.8754 239.452 44.6723 239.606 44.5274 239.802C44.3854 239.995 44.3144 240.215 44.3144 240.462C44.3144 240.67 44.3626 240.849 44.4592 240.999C44.5587 241.15 44.6879 241.276 44.847 241.378C45.009 241.478 45.1823 241.562 45.3669 241.63C45.5516 241.695 45.7291 241.749 45.8996 241.792L46.7519 242.013C47.0303 242.082 47.3158 242.174 47.6084 242.29C47.901 242.407 48.1723 242.56 48.4223 242.751C48.6723 242.941 48.874 243.177 49.0274 243.458C49.1837 243.739 49.2618 244.076 49.2618 244.468C49.2618 244.962 49.134 245.401 48.8783 245.785C48.6254 246.168 48.2575 246.471 47.7746 246.692C47.2945 246.914 46.7135 247.025 46.0317 247.025C45.3783 247.025 44.8129 246.921 44.3357 246.714C43.8584 246.506 43.4848 246.212 43.2149 245.832C42.945 245.448 42.7959 244.994 42.7675 244.468H44.0885C44.1141 244.783 44.2163 245.046 44.3953 245.256C44.5771 245.464 44.8087 245.619 45.0899 245.721C45.374 245.82 45.6851 245.87 46.0232 245.87C46.3953 245.87 46.7263 245.812 47.0161 245.695C47.3087 245.576 47.5388 245.411 47.7064 245.201C47.874 244.988 47.9578 244.739 47.9578 244.455C47.9578 244.197 47.884 243.985 47.7362 243.82C47.5913 243.655 47.3939 243.519 47.1439 243.411C46.8967 243.303 46.6169 243.208 46.3044 243.126L45.2732 242.844C44.5743 242.654 44.0203 242.374 43.6112 242.005C43.205 241.636 43.0019 241.147 43.0019 240.539C43.0019 240.036 43.1382 239.597 43.4109 239.222C43.6837 238.847 44.053 238.556 44.5189 238.349C44.9848 238.138 45.5104 238.033 46.0956 238.033C46.6865 238.033 47.2078 238.137 47.6595 238.344C48.1141 238.552 48.472 238.837 48.7334 239.201C48.9948 239.562 49.1311 239.976 49.1425 240.445H47.8726ZM54.0271 238.153V246.88H52.706V239.474H52.6549L50.5668 240.837V239.576L52.7444 238.153H54.0271ZM56.7405 246.961C56.5075 246.961 56.3073 246.878 56.1396 246.714C55.972 246.546 55.8882 246.344 55.8882 246.109C55.8882 245.876 55.972 245.677 56.1396 245.512C56.3073 245.344 56.5075 245.261 56.7405 245.261C56.9734 245.261 57.1737 245.344 57.3413 245.512C57.509 245.677 57.5928 245.876 57.5928 246.109C57.5928 246.265 57.553 246.408 57.4734 246.539C57.3967 246.667 57.2945 246.769 57.1666 246.846C57.0388 246.922 56.8967 246.961 56.7405 246.961ZM61.9383 246.999C61.3275 246.999 60.7877 246.894 60.319 246.684C59.8531 246.474 59.488 246.184 59.2238 245.815C58.9596 245.445 58.8289 245.025 58.8318 244.553C58.8289 244.184 58.9042 243.844 59.0576 243.535C59.2139 243.222 59.4255 242.962 59.6925 242.755C59.9596 242.545 60.2579 242.411 60.5874 242.354V242.303C60.1528 242.198 59.8048 241.965 59.5434 241.604C59.282 241.244 59.1528 240.829 59.1556 240.36C59.1528 239.914 59.2707 239.516 59.5093 239.167C59.7508 238.815 60.0818 238.538 60.5022 238.336C60.9227 238.134 61.4014 238.033 61.9383 238.033C62.4695 238.033 62.944 238.136 63.3616 238.34C63.782 238.542 64.113 238.819 64.3545 239.171C64.596 239.521 64.7181 239.917 64.721 240.36C64.7181 240.829 64.5846 241.244 64.3204 241.604C64.0562 241.965 63.7124 242.198 63.2891 242.303V242.354C63.6158 242.411 63.9099 242.545 64.1712 242.755C64.4354 242.962 64.6457 243.222 64.8019 243.535C64.961 243.844 65.042 244.184 65.0448 244.553C65.042 245.025 64.9085 245.445 64.6443 245.815C64.38 246.184 64.0136 246.474 63.5448 246.684C63.0789 246.894 62.5434 246.999 61.9383 246.999ZM61.9383 245.921C62.2991 245.921 62.6116 245.861 62.8758 245.742C63.14 245.62 63.3445 245.451 63.4894 245.235C63.6343 245.016 63.7082 244.761 63.711 244.468C63.7082 244.164 63.6286 243.896 63.4724 243.663C63.319 243.43 63.1102 243.246 62.846 243.113C62.5818 242.979 62.2792 242.913 61.9383 242.913C61.5945 242.913 61.2891 242.979 61.0221 243.113C60.755 243.246 60.5448 243.43 60.3914 243.663C60.238 243.896 60.1627 244.164 60.1656 244.468C60.1627 244.761 60.2323 245.016 60.3744 245.235C60.5193 245.451 60.7252 245.62 60.9923 245.742C61.2593 245.861 61.5747 245.921 61.9383 245.921ZM61.9383 241.86C62.2281 241.86 62.4852 241.802 62.7096 241.685C62.934 241.569 63.1102 241.407 63.238 241.199C63.3687 240.992 63.4354 240.749 63.4383 240.471C63.4354 240.198 63.3701 239.959 63.2423 239.755C63.1173 239.55 62.9425 239.393 62.7181 239.282C62.4937 239.168 62.2337 239.111 61.9383 239.111C61.6372 239.111 61.3729 239.168 61.1457 239.282C60.9212 239.393 60.7465 239.55 60.6215 239.755C60.4965 239.959 60.4354 240.198 60.4383 240.471C60.4354 240.749 60.4979 240.992 60.6258 241.199C60.7536 241.407 60.9298 241.569 61.1542 241.685C61.3815 241.802 61.6428 241.86 61.9383 241.86ZM69.8666 238.153H71.4646L74.243 244.937H74.3452L77.1237 238.153H78.7217V246.88H77.4688V240.565H77.3879L74.814 246.867H73.7742L71.2004 240.56H71.1194V246.88H69.8666V238.153ZM81.808 242.994V246.88H80.5338V240.334H81.7568V241.4H81.8378C81.9884 241.053 82.2242 240.775 82.5452 240.565C82.869 240.354 83.2767 240.249 83.7682 240.249C84.2142 240.249 84.6048 240.343 84.9401 240.53C85.2753 240.715 85.5352 240.991 85.7199 241.357C85.9045 241.724 85.9969 242.177 85.9969 242.717V246.88H84.7227V242.87C84.7227 242.396 84.5992 242.025 84.352 241.758C84.1048 241.488 83.7653 241.353 83.3335 241.353C83.0381 241.353 82.7753 241.417 82.5452 241.545C82.3179 241.672 82.1375 241.86 82.004 242.107C81.8733 242.351 81.808 242.647 81.808 242.994Z" fill="#2E2E67"/>
<path d="M40.3333 211.255H95.8889V137.04C95.8889 132.622 92.3072 129.04 87.8889 129.04H48.3333C43.9151 129.04 40.3333 132.622 40.3333 137.04V211.255Z" fill="#FFD9F2"/>
<line y1="-0.25" x2="210.002" y2="-0.25" transform="matrix(0.999989 -0.00476084 0.00627193 0.99998 17 212.2)" stroke="#5A5A5A" stroke-width="0.5"/>
<path d="M25.0092 294.035C24.9131 293.733 24.7839 293.463 24.6214 293.224C24.4624 292.982 24.2718 292.777 24.0497 292.608C23.8277 292.436 23.5741 292.305 23.2891 292.215C23.0073 292.126 22.6974 292.081 22.3594 292.081C21.786 292.081 21.2689 292.228 20.8082 292.523C20.3475 292.818 19.983 293.251 19.7145 293.821C19.4493 294.388 19.3168 295.082 19.3168 295.904C19.3168 296.729 19.451 297.427 19.7195 297.997C19.9879 298.567 20.3558 299 20.8232 299.295C21.2905 299.59 21.8224 299.737 22.419 299.737C22.9725 299.737 23.4548 299.625 23.8658 299.399C24.2801 299.174 24.5999 298.856 24.8253 298.445C25.054 298.03 25.1683 297.543 25.1683 296.983L25.5661 297.058H22.6527V295.79H26.6548V296.948C26.6548 297.803 26.4725 298.546 26.108 299.175C25.7467 299.802 25.2462 300.286 24.6065 300.627C23.9702 300.969 23.241 301.139 22.419 301.139C21.4976 301.139 20.6889 300.927 19.9929 300.503C19.3002 300.079 18.7599 299.477 18.3722 298.698C17.9844 297.916 17.7905 296.988 17.7905 295.914C17.7905 295.102 17.9032 294.373 18.1286 293.727C18.3539 293.08 18.6705 292.532 19.0781 292.081C19.4891 291.627 19.9714 291.281 20.5249 291.042C21.0817 290.8 21.6899 290.679 22.3494 290.679C22.8996 290.679 23.4117 290.76 23.8857 290.923C24.3629 291.085 24.7872 291.315 25.1584 291.614C25.5329 291.912 25.8428 292.267 26.0881 292.678C26.3333 293.085 26.4991 293.538 26.5852 294.035H25.0092ZM28.4856 301V293.364H29.9224V294.577H30.002C30.1412 294.166 30.3864 293.843 30.7377 293.607C31.0924 293.369 31.4934 293.249 31.9409 293.249C32.0337 293.249 32.1431 293.253 32.269 293.259C32.3983 293.266 32.4993 293.274 32.5723 293.284V294.706C32.5126 294.689 32.4065 294.671 32.2541 294.651C32.1016 294.628 31.9492 294.616 31.7967 294.616C31.4454 294.616 31.1322 294.691 30.8571 294.84C30.5853 294.986 30.3699 295.19 30.2108 295.452C30.0517 295.71 29.9721 296.005 29.9721 296.337V301H28.4856ZM36.8018 301.154C36.0859 301.154 35.4612 300.99 34.9276 300.662C34.3939 300.334 33.9796 299.875 33.6847 299.285C33.3897 298.695 33.2422 298.005 33.2422 297.217C33.2422 296.424 33.3897 295.732 33.6847 295.138C33.9796 294.545 34.3939 294.085 34.9276 293.756C35.4612 293.428 36.0859 293.264 36.8018 293.264C37.5178 293.264 38.1425 293.428 38.6761 293.756C39.2098 294.085 39.6241 294.545 39.919 295.138C40.214 295.732 40.3615 296.424 40.3615 297.217C40.3615 298.005 40.214 298.695 39.919 299.285C39.6241 299.875 39.2098 300.334 38.6761 300.662C38.1425 300.99 37.5178 301.154 36.8018 301.154ZM36.8068 299.906C37.2708 299.906 37.6553 299.784 37.9602 299.538C38.2652 299.293 38.4905 298.967 38.6364 298.559C38.7855 298.151 38.8601 297.702 38.8601 297.212C38.8601 296.724 38.7855 296.277 38.6364 295.869C38.4905 295.458 38.2652 295.129 37.9602 294.88C37.6553 294.631 37.2708 294.507 36.8068 294.507C36.3395 294.507 35.9517 294.631 35.6435 294.88C35.3385 295.129 35.1115 295.458 34.9624 295.869C34.8165 296.277 34.7436 296.724 34.7436 297.212C34.7436 297.702 34.8165 298.151 34.9624 298.559C35.1115 298.967 35.3385 299.293 35.6435 299.538C35.9517 299.784 36.3395 299.906 36.8068 299.906ZM47.7431 295.228L46.3958 295.467C46.3394 295.294 46.2499 295.13 46.1273 294.974C46.008 294.819 45.8456 294.691 45.6401 294.592C45.4346 294.492 45.1777 294.442 44.8695 294.442C44.4486 294.442 44.0972 294.537 43.8155 294.726C43.5338 294.911 43.3929 295.152 43.3929 295.447C43.3929 295.702 43.4874 295.907 43.6763 296.063C43.8652 296.219 44.1702 296.347 44.5911 296.446L45.8042 296.724C46.5068 296.887 47.0305 297.137 47.3752 297.475C47.7199 297.813 47.8922 298.252 47.8922 298.793C47.8922 299.25 47.7596 299.658 47.4945 300.016C47.2327 300.37 46.8664 300.649 46.3958 300.851C45.9284 301.053 45.3865 301.154 44.7701 301.154C43.915 301.154 43.2173 300.972 42.677 300.607C42.1368 300.239 41.8053 299.717 41.6827 299.041L43.1195 298.822C43.209 299.197 43.3929 299.48 43.6713 299.673C43.9498 299.862 44.3127 299.956 44.7601 299.956C45.2473 299.956 45.6368 299.855 45.9284 299.653C46.2201 299.447 46.3659 299.197 46.3659 298.902C46.3659 298.663 46.2765 298.463 46.0975 298.3C45.9218 298.138 45.6517 298.015 45.2871 297.933L43.9945 297.649C43.2819 297.487 42.7549 297.228 42.4135 296.874C42.0755 296.519 41.9064 296.07 41.9064 295.526C41.9064 295.076 42.0324 294.681 42.2843 294.343C42.5362 294.005 42.8842 293.741 43.3283 293.553C43.7724 293.36 44.2812 293.264 44.8546 293.264C45.6799 293.264 46.3295 293.443 46.8034 293.801C47.2774 294.156 47.5906 294.631 47.7431 295.228ZM55.2489 295.228L53.9016 295.467C53.8453 295.294 53.7558 295.13 53.6332 294.974C53.5138 294.819 53.3514 294.691 53.146 294.592C52.9405 294.492 52.6836 294.442 52.3754 294.442C51.9544 294.442 51.6031 294.537 51.3214 294.726C51.0397 294.911 50.8988 295.152 50.8988 295.447C50.8988 295.702 50.9933 295.907 51.1822 296.063C51.3711 296.219 51.676 296.347 52.0969 296.446L53.31 296.724C54.0127 296.887 54.5363 297.137 54.881 297.475C55.2257 297.813 55.3981 298.252 55.3981 298.793C55.3981 299.25 55.2655 299.658 55.0004 300.016C54.7385 300.37 54.3723 300.649 53.9016 300.851C53.4343 301.053 52.8924 301.154 52.2759 301.154C51.4208 301.154 50.7231 300.972 50.1829 300.607C49.6426 300.239 49.3112 299.717 49.1886 299.041L50.6254 298.822C50.7148 299.197 50.8988 299.48 51.1772 299.673C51.4556 299.862 51.8185 299.956 52.266 299.956C52.7532 299.956 53.1426 299.855 53.4343 299.653C53.726 299.447 53.8718 299.197 53.8718 298.902C53.8718 298.663 53.7823 298.463 53.6033 298.3C53.4277 298.138 53.1576 298.015 52.793 297.933L51.5004 297.649C50.7878 297.487 50.2608 297.228 49.9194 296.874C49.5813 296.519 49.4123 296.07 49.4123 295.526C49.4123 295.076 49.5382 294.681 49.7901 294.343C50.042 294.005 50.39 293.741 50.8342 293.553C51.2783 293.36 51.7871 293.264 52.3604 293.264C53.1857 293.264 53.8353 293.443 54.3093 293.801C54.7833 294.156 55.0965 294.631 55.2489 295.228ZM60.7376 303.864V293.364H62.1893V294.602H62.3136C62.3997 294.442 62.524 294.259 62.6864 294.05C62.8488 293.841 63.0742 293.659 63.3626 293.503C63.6509 293.344 64.0321 293.264 64.506 293.264C65.1225 293.264 65.6727 293.42 66.1566 293.732C66.6405 294.043 67.02 294.492 67.2951 295.079C67.5735 295.665 67.7127 296.371 67.7127 297.197C67.7127 298.022 67.5752 298.73 67.3001 299.32C67.025 299.906 66.6471 300.359 66.1665 300.677C65.686 300.992 65.1374 301.149 64.521 301.149C64.0569 301.149 63.6774 301.071 63.3825 300.915C63.0908 300.76 62.8621 300.577 62.6964 300.369C62.5307 300.16 62.4031 299.974 62.3136 299.812H62.2241V303.864H60.7376ZM62.1942 297.182C62.1942 297.719 62.2721 298.189 62.4279 298.594C62.5837 298.998 62.8091 299.315 63.104 299.543C63.399 299.769 63.7603 299.881 64.1879 299.881C64.632 299.881 65.0032 299.764 65.3015 299.528C65.5998 299.29 65.8252 298.967 65.9776 298.559C66.1334 298.151 66.2113 297.692 66.2113 297.182C66.2113 296.678 66.1351 296.226 65.9826 295.825C65.8335 295.424 65.6081 295.107 65.3065 294.875C65.0082 294.643 64.6353 294.527 64.1879 294.527C63.757 294.527 63.3924 294.638 63.0941 294.86C62.7991 295.082 62.5754 295.392 62.4229 295.79C62.2705 296.187 62.1942 296.652 62.1942 297.182ZM69.3782 301V293.364H70.815V294.577H70.8945C71.0337 294.166 71.279 293.843 71.6303 293.607C71.985 293.369 72.386 293.249 72.8335 293.249C72.9263 293.249 73.0356 293.253 73.1616 293.259C73.2908 293.266 73.3919 293.274 73.4648 293.284V294.706C73.4052 294.689 73.2991 294.671 73.1467 294.651C72.9942 294.628 72.8417 294.616 72.6893 294.616C72.338 294.616 72.0247 294.691 71.7496 294.84C71.4779 294.986 71.2624 295.19 71.1033 295.452C70.9442 295.71 70.8647 296.005 70.8647 296.337V301H69.3782ZM77.6944 301.154C76.9785 301.154 76.3538 300.99 75.8201 300.662C75.2865 300.334 74.8722 299.875 74.5772 299.285C74.2823 298.695 74.1348 298.005 74.1348 297.217C74.1348 296.424 74.2823 295.732 74.5772 295.138C74.8722 294.545 75.2865 294.085 75.8201 293.756C76.3538 293.428 76.9785 293.264 77.6944 293.264C78.4103 293.264 79.0351 293.428 79.5687 293.756C80.1023 294.085 80.5166 294.545 80.8116 295.138C81.1066 295.732 81.2541 296.424 81.2541 297.217C81.2541 298.005 81.1066 298.695 80.8116 299.285C80.5166 299.875 80.1023 300.334 79.5687 300.662C79.0351 300.99 78.4103 301.154 77.6944 301.154ZM77.6994 299.906C78.1634 299.906 78.5479 299.784 78.8528 299.538C79.1577 299.293 79.3831 298.967 79.5289 298.559C79.6781 298.151 79.7527 297.702 79.7527 297.212C79.7527 296.724 79.6781 296.277 79.5289 295.869C79.3831 295.458 79.1577 295.129 78.8528 294.88C78.5479 294.631 78.1634 294.507 77.6994 294.507C77.2321 294.507 76.8443 294.631 76.536 294.88C76.2311 295.129 76.0041 295.458 75.8549 295.869C75.7091 296.277 75.6362 296.724 75.6362 297.212C75.6362 297.702 75.7091 298.151 75.8549 298.559C76.0041 298.967 76.2311 299.293 76.536 299.538C76.8443 299.784 77.2321 299.906 77.6994 299.906ZM86.5476 293.364V294.557H82.2322V293.364H86.5476ZM83.4155 301V292.479C83.4155 292.001 83.5199 291.605 83.7287 291.29C83.9375 290.972 84.2143 290.735 84.5589 290.58C84.9036 290.42 85.2782 290.341 85.6825 290.341C85.9808 290.341 86.236 290.366 86.4482 290.415C86.6603 290.462 86.8177 290.505 86.9205 290.545L86.5724 291.748C86.5028 291.728 86.4134 291.705 86.304 291.678C86.1946 291.648 86.062 291.634 85.9062 291.634C85.545 291.634 85.2865 291.723 85.1307 291.902C84.9782 292.081 84.902 292.339 84.902 292.678V301H83.4155ZM88.0813 301V293.364H89.5678V301H88.0813ZM88.832 292.185C88.5735 292.185 88.3514 292.099 88.1658 291.927C87.9835 291.751 87.8924 291.542 87.8924 291.3C87.8924 291.055 87.9835 290.846 88.1658 290.674C88.3514 290.498 88.5735 290.411 88.832 290.411C89.0906 290.411 89.311 290.498 89.4933 290.674C89.6789 290.846 89.7717 291.055 89.7717 291.3C89.7717 291.542 89.6789 291.751 89.4933 291.927C89.311 292.099 89.0906 292.185 88.832 292.185ZM95.1323 293.364V294.557H90.9611V293.364H95.1323ZM92.0797 291.534H93.5662V298.758C93.5662 299.046 93.6093 299.263 93.6955 299.409C93.7817 299.552 93.8927 299.649 94.0286 299.702C94.1678 299.752 94.3186 299.777 94.481 299.777C94.6003 299.777 94.7047 299.769 94.7942 299.752C94.8837 299.736 94.9533 299.722 95.003 299.712L95.2715 300.94C95.1853 300.973 95.0627 301.007 94.9036 301.04C94.7445 301.076 94.5456 301.096 94.307 301.099C93.9159 301.106 93.5513 301.036 93.2132 300.891C92.8752 300.745 92.6017 300.519 92.3929 300.214C92.1841 299.91 92.0797 299.527 92.0797 299.066V291.534ZM100.482 301V293.364H101.909V294.607H102.003C102.162 294.186 102.422 293.857 102.784 293.622C103.145 293.384 103.577 293.264 104.081 293.264C104.592 293.264 105.019 293.384 105.364 293.622C105.712 293.861 105.969 294.189 106.134 294.607H106.214C106.396 294.199 106.686 293.874 107.084 293.632C107.482 293.387 107.956 293.264 108.506 293.264C109.199 293.264 109.764 293.481 110.201 293.915C110.642 294.35 110.862 295.004 110.862 295.879V301H109.376V296.018C109.376 295.501 109.235 295.127 108.953 294.895C108.672 294.663 108.335 294.547 107.944 294.547C107.46 294.547 107.084 294.696 106.816 294.994C106.547 295.289 106.413 295.669 106.413 296.133V301H104.931V295.924C104.931 295.51 104.802 295.177 104.544 294.925C104.285 294.673 103.949 294.547 103.534 294.547C103.253 294.547 102.992 294.621 102.754 294.771C102.518 294.916 102.328 295.12 102.182 295.382C102.039 295.644 101.968 295.947 101.968 296.292V301H100.482ZM115.077 301.169C114.593 301.169 114.156 301.08 113.765 300.901C113.373 300.718 113.064 300.455 112.835 300.11C112.609 299.765 112.497 299.343 112.497 298.842C112.497 298.411 112.58 298.057 112.745 297.778C112.911 297.5 113.135 297.28 113.417 297.117C113.698 296.955 114.013 296.832 114.361 296.749C114.709 296.666 115.064 296.603 115.425 296.56C115.882 296.507 116.254 296.464 116.539 296.431C116.824 296.395 117.031 296.337 117.16 296.257C117.289 296.178 117.354 296.048 117.354 295.869V295.835C117.354 295.4 117.231 295.064 116.986 294.825C116.744 294.587 116.383 294.467 115.902 294.467C115.402 294.467 115.007 294.578 114.719 294.8C114.434 295.019 114.237 295.263 114.127 295.531L112.73 295.213C112.896 294.749 113.138 294.375 113.456 294.089C113.778 293.801 114.147 293.592 114.565 293.463C114.983 293.33 115.422 293.264 115.882 293.264C116.187 293.264 116.511 293.301 116.852 293.374C117.197 293.443 117.518 293.572 117.816 293.761C118.118 293.95 118.365 294.22 118.557 294.572C118.749 294.92 118.846 295.372 118.846 295.929V301H117.394V299.956H117.334C117.238 300.148 117.094 300.337 116.902 300.523C116.709 300.708 116.462 300.862 116.161 300.985C115.859 301.108 115.498 301.169 115.077 301.169ZM115.4 299.976C115.811 299.976 116.163 299.895 116.454 299.732C116.749 299.57 116.973 299.358 117.125 299.096C117.281 298.831 117.359 298.547 117.359 298.246V297.261C117.306 297.314 117.203 297.364 117.051 297.411C116.902 297.454 116.731 297.492 116.539 297.525C116.346 297.555 116.159 297.583 115.977 297.609C115.795 297.633 115.642 297.652 115.52 297.669C115.231 297.705 114.968 297.767 114.729 297.853C114.494 297.939 114.305 298.063 114.162 298.226C114.023 298.385 113.953 298.597 113.953 298.862C113.953 299.23 114.089 299.509 114.361 299.697C114.633 299.883 114.979 299.976 115.4 299.976ZM120.825 301V293.364H122.262V294.577H122.342C122.481 294.166 122.726 293.843 123.078 293.607C123.432 293.369 123.833 293.249 124.281 293.249C124.374 293.249 124.483 293.253 124.609 293.259C124.738 293.266 124.839 293.274 124.912 293.284V294.706C124.852 294.689 124.746 294.671 124.594 294.651C124.441 294.628 124.289 294.616 124.137 294.616C123.785 294.616 123.472 294.691 123.197 294.84C122.925 294.986 122.71 295.19 122.551 295.452C122.392 295.71 122.312 296.005 122.312 296.337V301H120.825ZM129.127 304.023C128.52 304.023 127.998 303.943 127.561 303.784C127.127 303.625 126.772 303.415 126.497 303.153C126.222 302.891 126.016 302.604 125.88 302.293L127.158 301.766C127.248 301.911 127.367 302.066 127.516 302.228C127.668 302.394 127.874 302.535 128.132 302.651C128.394 302.767 128.731 302.825 129.142 302.825C129.705 302.825 130.171 302.687 130.539 302.412C130.907 302.14 131.091 301.706 131.091 301.109V299.608H130.996C130.907 299.77 130.777 299.951 130.608 300.15C130.443 300.349 130.214 300.521 129.922 300.667C129.631 300.813 129.251 300.886 128.784 300.886C128.181 300.886 127.637 300.745 127.153 300.463C126.672 300.178 126.291 299.759 126.01 299.205C125.731 298.648 125.592 297.964 125.592 297.152C125.592 296.34 125.73 295.644 126.005 295.064C126.283 294.484 126.664 294.04 127.148 293.732C127.632 293.42 128.181 293.264 128.794 293.264C129.268 293.264 129.65 293.344 129.942 293.503C130.234 293.659 130.461 293.841 130.623 294.05C130.789 294.259 130.917 294.442 131.006 294.602H131.115V293.364H132.572V301.169C132.572 301.825 132.42 302.364 132.115 302.785C131.81 303.206 131.397 303.517 130.877 303.719C130.36 303.922 129.776 304.023 129.127 304.023ZM129.112 299.653C129.539 299.653 129.901 299.553 130.196 299.354C130.494 299.152 130.719 298.864 130.872 298.489C131.028 298.112 131.105 297.659 131.105 297.132C131.105 296.618 131.029 296.166 130.877 295.775C130.724 295.384 130.501 295.079 130.206 294.86C129.911 294.638 129.546 294.527 129.112 294.527C128.664 294.527 128.292 294.643 127.993 294.875C127.695 295.104 127.47 295.415 127.317 295.81C127.168 296.204 127.093 296.645 127.093 297.132C127.093 297.633 127.17 298.072 127.322 298.45C127.475 298.827 127.7 299.122 127.998 299.335C128.3 299.547 128.671 299.653 129.112 299.653ZM134.566 301V293.364H136.052V301H134.566ZM135.316 292.185C135.058 292.185 134.836 292.099 134.65 291.927C134.468 291.751 134.377 291.542 134.377 291.3C134.377 291.055 134.468 290.846 134.65 290.674C134.836 290.498 135.058 290.411 135.316 290.411C135.575 290.411 135.795 290.498 135.978 290.674C136.163 290.846 136.256 291.055 136.256 291.3C136.256 291.542 136.163 291.751 135.978 291.927C135.795 292.099 135.575 292.185 135.316 292.185ZM139.539 296.466V301H138.052V293.364H139.479V294.607H139.573C139.749 294.202 140.024 293.877 140.399 293.632C140.776 293.387 141.252 293.264 141.825 293.264C142.346 293.264 142.802 293.374 143.193 293.592C143.584 293.808 143.887 294.129 144.102 294.557C144.318 294.984 144.426 295.513 144.426 296.143V301H142.939V296.322C142.939 295.768 142.795 295.336 142.507 295.024C142.218 294.709 141.822 294.552 141.318 294.552C140.974 294.552 140.667 294.626 140.399 294.776C140.133 294.925 139.923 295.143 139.767 295.432C139.615 295.717 139.539 296.062 139.539 296.466ZM148.532 296.545L148.627 294.447L146.857 295.586L146.315 294.641L148.194 293.682L146.315 292.722L146.857 291.778L148.627 292.916L148.532 290.818H149.611L149.517 292.916L151.286 291.778L151.828 292.722L149.949 293.682L151.828 294.641L151.286 295.586L149.517 294.447L149.611 296.545H148.532Z" fill="#2E2E67"/>
<path d="M19.1051 355L26.3409 340.682V340.562H17.9119V337.545H30.1591V340.605L22.9148 355H19.1051ZM38.8288 355.239C37.6243 355.239 36.5504 355.017 35.6072 354.574C34.6697 354.131 33.9254 353.52 33.3743 352.741C32.8232 351.963 32.5362 351.071 32.5135 350.065H36.093C36.1328 350.741 36.4169 351.29 36.9453 351.71C37.4737 352.131 38.1016 352.341 38.8288 352.341C39.4084 352.341 39.9197 352.213 40.3629 351.957C40.8118 351.696 41.1612 351.335 41.4112 350.875C41.6669 350.409 41.7947 349.875 41.7947 349.273C41.7947 348.659 41.6641 348.119 41.4027 347.653C41.147 347.187 40.7919 346.824 40.3374 346.562C39.8828 346.301 39.3629 346.168 38.7777 346.162C38.2663 346.162 37.7692 346.267 37.2862 346.477C36.8089 346.687 36.4368 346.974 36.1697 347.338L32.8885 346.75L33.7152 337.545H44.3857V340.562H36.7578L36.3061 344.935H36.4084C36.7152 344.503 37.1783 344.145 37.7976 343.861C38.4169 343.577 39.1101 343.435 39.8771 343.435C40.9283 343.435 41.8658 343.682 42.6896 344.176C43.5135 344.67 44.1641 345.349 44.6413 346.213C45.1186 347.071 45.3544 348.06 45.3487 349.179C45.3544 350.355 45.0817 351.401 44.5305 352.315C43.9851 353.224 43.2209 353.94 42.2379 354.463C41.2607 354.98 40.1243 355.239 38.8288 355.239ZM57.4766 351.727V350.807C57.4766 350.108 57.6243 349.466 57.9197 348.881C58.2209 348.29 58.6555 347.818 59.2237 347.466C59.7976 347.108 60.4964 346.929 61.3203 346.929C62.1555 346.929 62.8572 347.105 63.4254 347.457C63.9993 347.81 64.4311 348.281 64.7209 348.872C65.0163 349.457 65.1641 350.102 65.1641 350.807V351.727C65.1641 352.426 65.0163 353.071 64.7209 353.662C64.4254 354.247 63.9908 354.716 63.4169 355.068C62.843 355.426 62.1442 355.605 61.3203 355.605C60.4851 355.605 59.7834 355.426 59.2152 355.068C58.647 354.716 58.2152 354.247 57.9197 353.662C57.6243 353.071 57.4766 352.426 57.4766 351.727ZM59.9567 350.807V351.727C59.9567 352.131 60.0533 352.511 60.2464 352.869C60.4453 353.227 60.8033 353.406 61.3203 353.406C61.8374 353.406 62.1896 353.23 62.3771 352.878C62.5703 352.526 62.6669 352.142 62.6669 351.727V350.807C62.6669 350.392 62.576 350.006 62.3942 349.648C62.2124 349.29 61.8544 349.111 61.3203 349.111C60.8089 349.111 60.4538 349.29 60.255 349.648C60.0561 350.006 59.9567 350.392 59.9567 350.807ZM48.5192 341.739V340.818C48.5192 340.114 48.6697 339.469 48.9709 338.884C49.272 338.293 49.7067 337.821 50.2749 337.469C50.8487 337.116 51.5419 336.94 52.3544 336.94C53.1953 336.94 53.8999 337.116 54.468 337.469C55.0362 337.821 55.468 338.293 55.7635 338.884C56.0589 339.469 56.2067 340.114 56.2067 340.818V341.739C56.2067 342.443 56.0561 343.088 55.755 343.673C55.4595 344.259 55.0249 344.727 54.451 345.08C53.8828 345.426 53.1839 345.599 52.3544 345.599C51.5249 345.599 50.8232 345.423 50.2493 345.071C49.6811 344.713 49.2493 344.244 48.9538 343.665C48.6641 343.08 48.5192 342.437 48.5192 341.739ZM51.0163 340.818V341.739C51.0163 342.153 51.1129 342.537 51.3061 342.889C51.505 343.241 51.8544 343.418 52.3544 343.418C52.8771 343.418 53.2322 343.241 53.4197 342.889C53.6129 342.537 53.7095 342.153 53.7095 341.739V340.818C53.7095 340.403 53.6186 340.017 53.4368 339.659C53.255 339.301 52.8942 339.122 52.3544 339.122C51.8487 339.122 51.4993 339.304 51.3061 339.668C51.1129 340.031 51.0163 340.415 51.0163 340.818ZM49.6442 355L61.6442 337.545H63.8771L51.8771 355H49.6442Z" fill="#2E2E67"/>
<rect width="36" height="136" rx="8" transform="matrix(0 -1 -1 0 227 364)" fill="#FFD9F2"/>
<path d="M191 364V328L99 328C94.5817 328 91 331.582 91 336V356C91 360.418 94.5817 364 99 364L191 364Z" fill="#7E57FF"/>
<path d="M138.358 384.818L138.415 383.256L137.094 384.094L136.753 383.497L138.145 382.773L136.753 382.048L137.094 381.452L138.415 382.29L138.358 380.727H139.04L138.983 382.29L140.304 381.452L140.645 382.048L139.253 382.773L140.645 383.497L140.304 384.094L138.983 383.256L139.04 384.818H138.358ZM143.897 380.727H144.778V385.926C144.778 386.39 144.693 386.784 144.522 387.109C144.352 387.433 144.111 387.679 143.801 387.847C143.491 388.015 143.125 388.099 142.704 388.099C142.306 388.099 141.952 388.027 141.642 387.883C141.332 387.736 141.088 387.528 140.911 387.258C140.733 386.988 140.644 386.667 140.644 386.295H141.511C141.511 386.501 141.562 386.681 141.664 386.835C141.768 386.987 141.91 387.105 142.09 387.19C142.27 387.276 142.474 387.318 142.704 387.318C142.957 387.318 143.173 387.265 143.35 387.158C143.528 387.052 143.663 386.896 143.755 386.69C143.85 386.481 143.897 386.227 143.897 385.926V380.727ZM148.034 388.128C147.689 388.128 147.375 388.063 147.093 387.933C146.811 387.8 146.588 387.609 146.422 387.361C146.256 387.11 146.173 386.807 146.173 386.452C146.173 386.139 146.235 385.886 146.358 385.692C146.481 385.495 146.646 385.341 146.852 385.23C147.058 385.119 147.285 385.036 147.534 384.982C147.785 384.925 148.037 384.88 148.29 384.847C148.621 384.804 148.89 384.772 149.096 384.751C149.304 384.727 149.456 384.688 149.551 384.634C149.648 384.579 149.696 384.484 149.696 384.349V384.321C149.696 383.971 149.6 383.698 149.409 383.504C149.219 383.31 148.932 383.213 148.546 383.213C148.146 383.213 147.832 383.301 147.605 383.476C147.377 383.651 147.218 383.838 147.125 384.037L146.33 383.753C146.472 383.421 146.661 383.163 146.898 382.979C147.137 382.792 147.397 382.661 147.679 382.588C147.963 382.512 148.243 382.474 148.517 382.474C148.692 382.474 148.894 382.496 149.121 382.538C149.351 382.579 149.572 382.663 149.785 382.79C150 382.918 150.179 383.111 150.321 383.369C150.463 383.627 150.534 383.973 150.534 384.406V388H149.696V387.261H149.654C149.597 387.38 149.502 387.506 149.369 387.641C149.237 387.776 149.061 387.891 148.84 387.986C148.62 388.08 148.352 388.128 148.034 388.128ZM148.162 387.375C148.494 387.375 148.773 387.31 149 387.18C149.23 387.049 149.403 386.881 149.519 386.675C149.637 386.469 149.696 386.253 149.696 386.026V385.259C149.661 385.301 149.583 385.34 149.462 385.376C149.343 385.409 149.206 385.438 149.05 385.464C148.896 385.488 148.746 385.509 148.599 385.528C148.454 385.545 148.337 385.559 148.247 385.571C148.03 385.599 147.826 385.646 147.637 385.71C147.45 385.771 147.298 385.865 147.182 385.99C147.068 386.113 147.012 386.281 147.012 386.494C147.012 386.786 147.119 387.006 147.335 387.155C147.552 387.302 147.828 387.375 148.162 387.375ZM152.902 384.719V388H152.064V382.545H152.874V383.398H152.945C153.072 383.121 153.267 382.898 153.527 382.73C153.787 382.56 154.124 382.474 154.536 382.474C154.905 382.474 155.228 382.55 155.505 382.702C155.782 382.851 155.997 383.078 156.151 383.384C156.305 383.687 156.382 384.07 156.382 384.534V388H155.544V384.591C155.544 384.162 155.433 383.829 155.21 383.589C154.988 383.348 154.682 383.227 154.294 383.227C154.027 383.227 153.787 383.285 153.577 383.401C153.368 383.517 153.204 383.687 153.083 383.909C152.962 384.132 152.902 384.402 152.902 384.719ZM160.712 388V387.361L163.112 384.733C163.394 384.425 163.626 384.158 163.808 383.93C163.991 383.701 164.126 383.485 164.213 383.284C164.303 383.08 164.348 382.867 164.348 382.645C164.348 382.389 164.287 382.168 164.164 381.981C164.043 381.794 163.877 381.649 163.666 381.548C163.456 381.446 163.219 381.395 162.956 381.395C162.677 381.395 162.433 381.453 162.225 381.569C162.019 381.683 161.859 381.842 161.745 382.048C161.634 382.254 161.578 382.496 161.578 382.773H160.74C160.74 382.347 160.838 381.973 161.035 381.651C161.231 381.329 161.499 381.078 161.838 380.898C162.178 380.718 162.561 380.628 162.985 380.628C163.411 380.628 163.788 380.718 164.117 380.898C164.446 381.078 164.704 381.32 164.892 381.626C165.079 381.931 165.172 382.271 165.172 382.645C165.172 382.912 165.124 383.174 165.026 383.43C164.932 383.683 164.766 383.966 164.529 384.278C164.295 384.589 163.969 384.967 163.553 385.415L161.919 387.162V387.219H165.3V388H160.712ZM169.139 388.099C168.604 388.099 168.148 387.954 167.771 387.663C167.395 387.369 167.107 386.944 166.909 386.388C166.71 385.829 166.61 385.154 166.61 384.364C166.61 383.578 166.71 382.906 166.909 382.35C167.11 381.791 167.399 381.365 167.775 381.072C168.154 380.776 168.608 380.628 169.139 380.628C169.669 380.628 170.122 380.776 170.499 381.072C170.878 381.365 171.166 381.791 171.365 382.35C171.566 382.906 171.667 383.578 171.667 384.364C171.667 385.154 171.568 385.829 171.369 386.388C171.17 386.944 170.882 387.369 170.506 387.663C170.129 387.954 169.674 388.099 169.139 388.099ZM169.139 387.318C169.669 387.318 170.081 387.062 170.374 386.551C170.668 386.04 170.815 385.311 170.815 384.364C170.815 383.734 170.747 383.198 170.612 382.755C170.48 382.312 170.288 381.975 170.037 381.743C169.789 381.511 169.489 381.395 169.139 381.395C168.613 381.395 168.202 381.654 167.906 382.173C167.61 382.689 167.463 383.419 167.463 384.364C167.463 384.993 167.529 385.528 167.661 385.969C167.794 386.409 167.985 386.744 168.233 386.974C168.484 387.203 168.786 387.318 169.139 387.318ZM173.017 388V387.361L175.417 384.733C175.699 384.425 175.931 384.158 176.113 383.93C176.295 383.701 176.43 383.485 176.518 383.284C176.608 383.08 176.653 382.867 176.653 382.645C176.653 382.389 176.591 382.168 176.468 381.981C176.347 381.794 176.182 381.649 175.971 381.548C175.76 381.446 175.524 381.395 175.261 381.395C174.981 381.395 174.738 381.453 174.529 381.569C174.323 381.683 174.164 381.842 174.05 382.048C173.939 382.254 173.883 382.496 173.883 382.773H173.045C173.045 382.347 173.143 381.973 173.34 381.651C173.536 381.329 173.804 381.078 174.142 380.898C174.483 380.718 174.865 380.628 175.289 380.628C175.715 380.628 176.093 380.718 176.422 380.898C176.751 381.078 177.009 381.32 177.196 381.626C177.383 381.931 177.477 382.271 177.477 382.645C177.477 382.912 177.428 383.174 177.331 383.43C177.236 383.683 177.071 383.966 176.834 384.278C176.6 384.589 176.274 384.967 175.857 385.415L174.224 387.162V387.219H177.605V388H173.017ZM178.744 386.509V385.784L181.941 380.727H182.466V381.849H182.111L179.696 385.67V385.727H184V386.509H178.744ZM182.168 388V386.288V385.951V380.727H183.006V388H182.168ZM188.47 383.973V384.754H185.288V383.973H188.47ZM188.919 381.509V380.727H194.373V381.509H192.086V388H191.205V381.509H188.919ZM195.619 388V382.545H196.457V388H195.619ZM196.045 381.636C195.881 381.636 195.741 381.581 195.622 381.469C195.506 381.358 195.448 381.224 195.448 381.068C195.448 380.912 195.506 380.778 195.622 380.667C195.741 380.556 195.881 380.5 196.045 380.5C196.208 380.5 196.348 380.556 196.464 380.667C196.582 380.778 196.641 380.912 196.641 381.068C196.641 381.224 196.582 381.358 196.464 381.469C196.348 381.581 196.208 381.636 196.045 381.636ZM198.83 380.727V388H197.992V380.727H198.83ZM201.203 380.727V388H200.365V380.727H201.203ZM207.908 388H205.664V380.727H208.008C208.713 380.727 209.317 380.873 209.819 381.164C210.321 381.453 210.705 381.868 210.973 382.411C211.24 382.95 211.374 383.597 211.374 384.349C211.374 385.107 211.239 385.759 210.969 386.306C210.699 386.851 210.306 387.27 209.79 387.563C209.274 387.854 208.647 388 207.908 388ZM206.545 387.219H207.851C208.453 387.219 208.951 387.103 209.346 386.871C209.742 386.639 210.037 386.308 210.231 385.88C210.425 385.451 210.522 384.941 210.522 384.349C210.522 383.762 210.426 383.257 210.234 382.833C210.042 382.407 209.756 382.08 209.375 381.853C208.994 381.623 208.519 381.509 207.951 381.509H206.545V387.219ZM214.343 388.128C213.997 388.128 213.684 388.063 213.402 387.933C213.12 387.8 212.896 387.609 212.731 387.361C212.565 387.11 212.482 386.807 212.482 386.452C212.482 386.139 212.544 385.886 212.667 385.692C212.79 385.495 212.954 385.341 213.16 385.23C213.366 385.119 213.594 385.036 213.842 384.982C214.093 384.925 214.345 384.88 214.599 384.847C214.93 384.804 215.199 384.772 215.405 384.751C215.613 384.727 215.765 384.688 215.859 384.634C215.956 384.579 216.005 384.484 216.005 384.349V384.321C216.005 383.971 215.909 383.698 215.717 383.504C215.528 383.31 215.24 383.213 214.854 383.213C214.454 383.213 214.14 383.301 213.913 383.476C213.686 383.651 213.526 383.838 213.434 384.037L212.638 383.753C212.78 383.421 212.97 383.163 213.206 382.979C213.446 382.792 213.706 382.661 213.988 382.588C214.272 382.512 214.551 382.474 214.826 382.474C215.001 382.474 215.202 382.496 215.43 382.538C215.659 382.579 215.881 382.663 216.094 382.79C216.309 382.918 216.488 383.111 216.63 383.369C216.772 383.627 216.843 383.973 216.843 384.406V388H216.005V387.261H215.962C215.905 387.38 215.811 387.506 215.678 387.641C215.546 387.776 215.369 387.891 215.149 387.986C214.929 388.08 214.66 388.128 214.343 388.128ZM214.471 387.375C214.802 387.375 215.081 387.31 215.309 387.18C215.538 387.049 215.711 386.881 215.827 386.675C215.946 386.469 216.005 386.253 216.005 386.026V385.259C215.969 385.301 215.891 385.34 215.77 385.376C215.652 385.409 215.515 385.438 215.358 385.464C215.205 385.488 215.054 385.509 214.907 385.528C214.763 385.545 214.646 385.559 214.556 385.571C214.338 385.599 214.135 385.646 213.945 385.71C213.758 385.771 213.607 385.865 213.491 385.99C213.377 386.113 213.32 386.281 213.32 386.494C213.32 386.786 213.428 387.006 213.643 387.155C213.861 387.302 214.137 387.375 214.471 387.375ZM220.745 382.545V383.256H217.918V382.545H220.745ZM218.742 381.239H219.58V386.438C219.58 386.674 219.614 386.852 219.683 386.97C219.754 387.086 219.844 387.164 219.953 387.205C220.064 387.242 220.181 387.261 220.304 387.261C220.397 387.261 220.472 387.257 220.532 387.247C220.591 387.235 220.638 387.226 220.674 387.219L220.844 387.972C220.787 387.993 220.708 388.014 220.606 388.036C220.504 388.059 220.375 388.071 220.219 388.071C219.982 388.071 219.75 388.02 219.523 387.918C219.298 387.817 219.111 387.661 218.962 387.453C218.815 387.245 218.742 386.982 218.742 386.665V381.239ZM224.234 388.114C223.708 388.114 223.255 387.998 222.874 387.766C222.495 387.531 222.202 387.205 221.996 386.786C221.793 386.364 221.691 385.874 221.691 385.315C221.691 384.757 221.793 384.264 221.996 383.838C222.202 383.41 222.489 383.076 222.856 382.837C223.225 382.595 223.656 382.474 224.148 382.474C224.433 382.474 224.713 382.522 224.99 382.616C225.267 382.711 225.519 382.865 225.746 383.078C225.974 383.289 226.155 383.568 226.29 383.916C226.425 384.264 226.492 384.693 226.492 385.202V385.557H222.288V384.832H225.64C225.64 384.525 225.578 384.25 225.455 384.009C225.335 383.767 225.162 383.576 224.937 383.437C224.714 383.297 224.451 383.227 224.148 383.227C223.815 383.227 223.526 383.31 223.282 383.476C223.04 383.639 222.855 383.852 222.724 384.115C222.594 384.378 222.529 384.66 222.529 384.96V385.443C222.529 385.855 222.6 386.204 222.742 386.491C222.887 386.775 223.087 386.991 223.342 387.141C223.598 387.287 223.895 387.361 224.234 387.361C224.454 387.361 224.653 387.33 224.83 387.268C225.01 387.205 225.165 387.11 225.295 386.984C225.426 386.857 225.526 386.698 225.597 386.509L226.407 386.736C226.322 387.01 226.179 387.252 225.977 387.46C225.776 387.666 225.527 387.827 225.232 387.943C224.936 388.057 224.603 388.114 224.234 388.114Z" fill="#656565"/>
<path d="M21.386 388V378.873L18.693 381.558L17.636 380.5L22.136 376L26.636 380.5L25.579 381.557L22.886 378.872V387.999L21.386 388Z" fill="#28C66F"/>
<path d="M35.1506 379.273V388H33.8295V380.594H33.7784L31.6903 381.957V380.696L33.8679 379.273H35.1506ZM40.5497 388.119C39.9645 388.119 39.4418 388.018 38.9815 387.817C38.5241 387.615 38.1619 387.335 37.8949 386.977C37.6307 386.616 37.4886 386.199 37.4688 385.724H38.8068C38.8239 385.983 38.9105 386.207 39.0668 386.398C39.2259 386.585 39.4332 386.73 39.6889 386.832C39.9446 386.935 40.2287 386.986 40.5412 386.986C40.8849 386.986 41.1889 386.926 41.4531 386.807C41.7202 386.687 41.929 386.521 42.0795 386.308C42.2301 386.092 42.3054 385.844 42.3054 385.562C42.3054 385.27 42.2301 385.013 42.0795 384.791C41.9318 384.567 41.7145 384.391 41.4276 384.263C41.1435 384.135 40.7997 384.071 40.3963 384.071H39.6591V382.997H40.3963C40.7202 382.997 41.0043 382.939 41.2486 382.822C41.4957 382.706 41.6889 382.544 41.8281 382.337C41.9673 382.126 42.0369 381.881 42.0369 381.599C42.0369 381.33 41.9759 381.095 41.8537 380.896C41.7344 380.695 41.5639 380.537 41.3423 380.423C41.1236 380.31 40.8651 380.253 40.5668 380.253C40.2827 380.253 40.017 380.305 39.7699 380.411C39.5256 380.513 39.3267 380.661 39.1733 380.854C39.0199 381.044 38.9375 381.273 38.9261 381.54H37.652C37.6662 381.068 37.8054 380.653 38.0696 380.295C38.3366 379.937 38.6889 379.658 39.1264 379.456C39.5639 379.254 40.0497 379.153 40.5838 379.153C41.1435 379.153 41.6264 379.263 42.0327 379.482C42.4418 379.697 42.7571 379.986 42.9787 380.347C43.2031 380.707 43.3139 381.102 43.3111 381.531C43.3139 382.02 43.1776 382.435 42.902 382.776C42.6293 383.116 42.2656 383.345 41.8111 383.462V383.53C42.3906 383.618 42.8395 383.848 43.1577 384.22C43.4787 384.592 43.6378 385.054 43.6349 385.605C43.6378 386.085 43.5043 386.516 43.2344 386.896C42.9673 387.277 42.6023 387.577 42.1392 387.795C41.6761 388.011 41.1463 388.119 40.5497 388.119ZM45.8445 388.081C45.6115 388.081 45.4112 387.999 45.2436 387.834C45.076 387.666 44.9922 387.464 44.9922 387.229C44.9922 386.996 45.076 386.797 45.2436 386.632C45.4112 386.464 45.6115 386.381 45.8445 386.381C46.0774 386.381 46.2777 386.464 46.4453 386.632C46.6129 386.797 46.6967 386.996 46.6967 387.229C46.6967 387.385 46.657 387.528 46.5774 387.659C46.5007 387.787 46.3984 387.889 46.2706 387.966C46.1428 388.043 46.0007 388.081 45.8445 388.081ZM51.0423 388.119C50.4315 388.119 49.8917 388.014 49.4229 387.804C48.957 387.594 48.592 387.304 48.3278 386.935C48.0636 386.565 47.9329 386.145 47.9357 385.673C47.9329 385.304 48.0082 384.964 48.1616 384.655C48.3178 384.342 48.5295 384.082 48.7965 383.875C49.0636 383.665 49.3619 383.531 49.6914 383.474V383.423C49.2567 383.318 48.9087 383.085 48.6474 382.724C48.386 382.364 48.2567 381.949 48.2596 381.48C48.2567 381.034 48.3746 380.636 48.6133 380.287C48.8548 379.935 49.1857 379.658 49.6062 379.456C50.0266 379.254 50.5053 379.153 51.0423 379.153C51.5735 379.153 52.0479 379.256 52.4656 379.46C52.886 379.662 53.217 379.939 53.4585 380.291C53.6999 380.641 53.8221 381.037 53.8249 381.48C53.8221 381.949 53.6886 382.364 53.4244 382.724C53.1602 383.085 52.8164 383.318 52.3931 383.423V383.474C52.7198 383.531 53.0138 383.665 53.2752 383.875C53.5394 384.082 53.7496 384.342 53.9059 384.655C54.065 384.964 54.146 385.304 54.1488 385.673C54.146 386.145 54.0124 386.565 53.7482 386.935C53.484 387.304 53.1175 387.594 52.6488 387.804C52.1829 388.014 51.6474 388.119 51.0423 388.119ZM51.0423 387.041C51.4031 387.041 51.7156 386.982 51.9798 386.862C52.244 386.74 52.4485 386.571 52.5934 386.355C52.7383 386.136 52.8121 385.881 52.815 385.588C52.8121 385.284 52.7326 385.016 52.5763 384.783C52.4229 384.55 52.2141 384.366 51.9499 384.233C51.6857 384.099 51.3832 384.033 51.0423 384.033C50.6985 384.033 50.3931 384.099 50.1261 384.233C49.859 384.366 49.6488 384.55 49.4954 384.783C49.342 385.016 49.2667 385.284 49.2695 385.588C49.2667 385.881 49.3363 386.136 49.4783 386.355C49.6232 386.571 49.8292 386.74 50.0962 386.862C50.3633 386.982 50.6786 387.041 51.0423 387.041ZM51.0423 382.98C51.332 382.98 51.5891 382.922 51.8136 382.805C52.038 382.689 52.2141 382.527 52.342 382.32C52.4727 382.112 52.5394 381.869 52.5423 381.591C52.5394 381.318 52.4741 381.08 52.3462 380.875C52.2212 380.67 52.0465 380.513 51.8221 380.402C51.5977 380.288 51.3377 380.232 51.0423 380.232C50.7411 380.232 50.4769 380.288 50.2496 380.402C50.0252 380.513 49.8505 380.67 49.7255 380.875C49.6005 381.08 49.5394 381.318 49.5423 381.591C49.5394 381.869 49.6019 382.112 49.7298 382.32C49.8576 382.527 50.0337 382.689 50.2582 382.805C50.4854 382.922 50.7468 382.98 51.0423 382.98ZM60.2308 386.364V385.903C60.2308 385.574 60.299 385.273 60.4354 385C60.5746 384.724 60.7763 384.504 61.0405 384.339C61.3075 384.172 61.63 384.088 62.0078 384.088C62.3942 384.088 62.718 384.17 62.9794 384.335C63.2408 384.5 63.4382 384.72 63.5717 384.996C63.7081 385.271 63.7763 385.574 63.7763 385.903V386.364C63.7763 386.693 63.7081 386.996 63.5717 387.271C63.4354 387.544 63.2351 387.764 62.9709 387.932C62.7095 388.097 62.3885 388.179 62.0078 388.179C61.6243 388.179 61.3004 388.097 61.0362 387.932C60.772 387.764 60.5717 387.544 60.4354 387.271C60.299 386.996 60.2308 386.693 60.2308 386.364ZM61.2237 385.903V386.364C61.2237 386.608 61.282 386.83 61.3984 387.028C61.5149 387.227 61.718 387.327 62.0078 387.327C62.2947 387.327 62.495 387.227 62.6087 387.028C62.7223 386.83 62.7791 386.608 62.7791 386.364V385.903C62.7791 385.659 62.7237 385.437 62.6129 385.239C62.505 385.04 62.3033 384.94 62.0078 384.94C61.7237 384.94 61.522 385.04 61.4027 385.239C61.2834 385.437 61.2237 385.659 61.2237 385.903ZM55.8416 381.369V380.909C55.8416 380.58 55.9098 380.277 56.0462 380.001C56.1854 379.726 56.3871 379.506 56.6513 379.341C56.9183 379.176 57.2408 379.094 57.6186 379.094C58.005 379.094 58.3288 379.176 58.5902 379.341C58.8516 379.506 59.049 379.726 59.1825 380.001C59.3161 380.277 59.3828 380.58 59.3828 380.909V381.369C59.3828 381.699 59.3146 382.001 59.1783 382.277C59.0447 382.55 58.8459 382.77 58.5817 382.938C58.3203 383.102 57.9993 383.185 57.6186 383.185C57.2322 383.185 56.907 383.102 56.6428 382.938C56.3814 382.77 56.1825 382.55 56.0462 382.277C55.9098 382.001 55.8416 381.699 55.8416 381.369ZM56.8388 380.909V381.369C56.8388 381.614 56.8956 381.835 57.0092 382.034C57.1257 382.233 57.3288 382.332 57.6186 382.332C57.9027 382.332 58.1016 382.233 58.2152 382.034C58.3317 381.835 58.3899 381.614 58.3899 381.369V380.909C58.3899 380.665 58.3345 380.443 58.2237 380.244C58.1129 380.045 57.9112 379.946 57.6186 379.946C57.3345 379.946 57.1328 380.045 57.0135 380.244C56.897 380.443 56.8388 380.665 56.8388 380.909ZM56.2464 388L62.2464 379.273H63.2649L57.2649 388H56.2464Z" fill="#28C66F"/>
</svg>
